<svg width="284" height="215" xmlns="http://www.w3.org/2000/svg" xmlns:xlink="http://www.w3.org/1999/xlink" overflow="hidden"><defs><clipPath id="clip0"><path d="M339 26 623 26 623 241 339 241Z" fill-rule="evenodd" clip-rule="evenodd"/></clipPath><clipPath id="clip1"><path d="M340 28 622 28 622 240 340 240Z" fill-rule="evenodd" clip-rule="evenodd"/></clipPath><clipPath id="clip2"><path d="M340 28 622 28 622 241 340 241Z" fill-rule="evenodd" clip-rule="evenodd"/></clipPath></defs><g clip-path="url(#clip0)" transform="translate(-339 -26)"><g clip-path="url(#clip1)"><g clip-path="url(#clip2)"><path d="M0 0 307.246 0 307.246 227.076 0 227.076Z" fill="#FFFFFF" transform="matrix(1.01213 0 -0 1 337.699 12.9245)"/><path d="M0 0 307.246 0 307.246 227.076 0 227.076Z" fill="#FFFFFF" transform="matrix(1.01213 0 -0 1 337.699 12.9245)"/><path d="M39.8614 183.631 278.134 183.631 278.134 17.0195 39.8614 17.0195Z" fill="#FFFFFF" transform="matrix(1.01213 0 -0 1 337.699 12.9245)"/><path d="M39.8614 183.631 278.134 183.631" stroke="#262626" stroke-width="0.298602" stroke-linecap="square" stroke-linejoin="round" stroke-miterlimit="10" fill="none" transform="matrix(1.01213 0 -0 1 337.699 12.9245)"/><path d="M39.8614 17.0195 278.134 17.0195" stroke="#262626" stroke-width="0.298602" stroke-linecap="square" stroke-linejoin="round" stroke-miterlimit="10" fill="none" transform="matrix(1.01213 0 -0 1 337.699 12.9245)"/><path d="M77.1811 183.631 77.1811 181.248" stroke="#262626" stroke-width="0.298602" stroke-linecap="square" stroke-linejoin="round" stroke-miterlimit="10" fill="none" transform="matrix(1.01213 0 -0 1 337.699 12.9245)"/><path d="M134.596 183.631 134.596 181.248" stroke="#262626" stroke-width="0.298602" stroke-linecap="square" stroke-linejoin="round" stroke-miterlimit="10" fill="none" transform="matrix(1.01213 0 -0 1 337.699 12.9245)"/><path d="M192.011 183.631 192.011 181.248" stroke="#262626" stroke-width="0.298602" stroke-linecap="square" stroke-linejoin="round" stroke-miterlimit="10" fill="none" transform="matrix(1.01213 0 -0 1 337.699 12.9245)"/><path d="M249.427 183.631 249.427 181.248" stroke="#262626" stroke-width="0.298602" stroke-linecap="square" stroke-linejoin="round" stroke-miterlimit="10" fill="none" transform="matrix(1.01213 0 -0 1 337.699 12.9245)"/><path d="M77.1811 17.0195 77.1811 19.4022" stroke="#262626" stroke-width="0.298602" stroke-linecap="square" stroke-linejoin="round" stroke-miterlimit="10" fill="none" transform="matrix(1.01213 0 -0 1 337.699 12.9245)"/><path d="M134.596 17.0195 134.596 19.4022" stroke="#262626" stroke-width="0.298602" stroke-linecap="square" stroke-linejoin="round" stroke-miterlimit="10" fill="none" transform="matrix(1.01213 0 -0 1 337.699 12.9245)"/><path d="M192.011 17.0195 192.011 19.4022" stroke="#262626" stroke-width="0.298602" stroke-linecap="square" stroke-linejoin="round" stroke-miterlimit="10" fill="none" transform="matrix(1.01213 0 -0 1 337.699 12.9245)"/><path d="M249.427 17.0195 249.427 19.4022" stroke="#262626" stroke-width="0.298602" stroke-linecap="square" stroke-linejoin="round" stroke-miterlimit="10" fill="none" transform="matrix(1.01213 0 -0 1 337.699 12.9245)"/><text fill="#262626" font-family="Arial,Arial_MSFontService,sans-serif" font-weight="700" font-size="27" transform="matrix(0.320542 -0.3167 0.320542 0.3167 409.405 222)">011<tspan x="90.6461" y="90.6461">100</tspan><tspan x="181.292" y="181.292">001</tspan><tspan x="271.938" y="271.938">110</tspan></text><text fill="#262626" font-family="Arial,Arial_MSFontService,sans-serif" font-weight="700" font-size="29" transform="matrix(0.453314 0 0 0.447881 373.057 237)">Steady states <tspan x="195" y="0">[</tspan>'<tspan x="212" y="0">ZEB</tspan>', '<tspan x="299" y="0">miR</tspan><tspan x="354" y="0">200</tspan><tspan x="402" y="0">', '</tspan>GRHL2<tspan x="531" y="0">'</tspan><tspan x="538" y="0">]</tspan></text><path d="M39.8614 183.631 39.8614 17.0195" stroke="#262626" stroke-width="0.298602" stroke-linecap="square" stroke-linejoin="round" stroke-miterlimit="10" fill="none" transform="matrix(1.01213 0 -0 1 337.699 12.9245)"/><path d="M278.134 183.631 278.134 17.0195" stroke="#262626" stroke-width="0.298602" stroke-linecap="square" stroke-linejoin="round" stroke-miterlimit="10" fill="none" transform="matrix(1.01213 0 -0 1 337.699 12.9245)"/><path d="M39.8614 183.631 42.2441 183.631" stroke="#262626" stroke-width="0.298602" stroke-linecap="square" stroke-linejoin="round" stroke-miterlimit="10" fill="none" transform="matrix(1.01213 0 -0 1 337.699 12.9245)"/><path d="M39.8614 148.92 42.2441 148.92" stroke="#262626" stroke-width="0.298602" stroke-linecap="square" stroke-linejoin="round" stroke-miterlimit="10" fill="none" transform="matrix(1.01213 0 -0 1 337.699 12.9245)"/><path d="M39.8614 114.21 42.2441 114.21" stroke="#262626" stroke-width="0.298602" stroke-linecap="square" stroke-linejoin="round" stroke-miterlimit="10" fill="none" transform="matrix(1.01213 0 -0 1 337.699 12.9245)"/><path d="M39.8614 79.4988 42.2441 79.4988" stroke="#262626" stroke-width="0.298602" stroke-linecap="square" stroke-linejoin="round" stroke-miterlimit="10" fill="none" transform="matrix(1.01213 0 -0 1 337.699 12.9245)"/><path d="M39.8614 44.7881 42.2441 44.7881" stroke="#262626" stroke-width="0.298602" stroke-linecap="square" stroke-linejoin="round" stroke-miterlimit="10" fill="none" transform="matrix(1.01213 0 -0 1 337.699 12.9245)"/><path d="M278.134 183.631 275.751 183.631" stroke="#262626" stroke-width="0.298602" stroke-linecap="square" stroke-linejoin="round" stroke-miterlimit="10" fill="none" transform="matrix(1.01213 0 -0 1 337.699 12.9245)"/><path d="M278.134 148.92 275.751 148.92" stroke="#262626" stroke-width="0.298602" stroke-linecap="square" stroke-linejoin="round" stroke-miterlimit="10" fill="none" transform="matrix(1.01213 0 -0 1 337.699 12.9245)"/><path d="M278.134 114.21 275.751 114.21" stroke="#262626" stroke-width="0.298602" stroke-linecap="square" stroke-linejoin="round" stroke-miterlimit="10" fill="none" transform="matrix(1.01213 0 -0 1 337.699 12.9245)"/><path d="M278.134 79.4988 275.751 79.4988" stroke="#262626" stroke-width="0.298602" stroke-linecap="square" stroke-linejoin="round" stroke-miterlimit="10" fill="none" transform="matrix(1.01213 0 -0 1 337.699 12.9245)"/><path d="M278.134 44.7881 275.751 44.7881" stroke="#262626" stroke-width="0.298602" stroke-linecap="square" stroke-linejoin="round" stroke-miterlimit="10" fill="none" transform="matrix(1.01213 0 -0 1 337.699 12.9245)"/><text fill="#262626" font-family="Arial,Arial_MSFontService,sans-serif" font-weight="700" font-size="27" transform="matrix(0.453314 0 0 0.447881 367.618 201)">0<tspan x="-23" y="-78.1458">0</tspan><tspan x="-8.00003" y="-78.1458">.</tspan><tspan x="0" y="-78.1458">1</tspan><tspan x="-23" y="-156.292">0</tspan><tspan x="-8.00003" y="-156.292">.</tspan><tspan x="0" y="-156.292">2</tspan><tspan x="-23" y="-232.205">0</tspan><tspan x="-8.00003" y="-232.205">.</tspan><tspan x="0" y="-232.205">3</tspan><tspan x="-23" y="-310.35">0</tspan><tspan x="-8.00003" y="-310.35">.</tspan><tspan x="0" y="-310.35">4</tspan></text><text fill="#262626" font-family="Arial,Arial_MSFontService,sans-serif" font-weight="700" font-size="29" transform="matrix(2.77575e-17 -0.447881 0.453314 2.74248e-17 352.658 147)">Frequency</text><path d="M59.9569 37.0125 59.9569 52.4737" stroke="#0000FF" stroke-width="1.19436" stroke-linejoin="round" stroke-miterlimit="10" fill="none" transform="matrix(1.01213 0 -0 1 337.699 12.9245)"/><path d="M117.372 46.6351 117.372 61.7569" stroke="#0000FF" stroke-width="1.19436" stroke-linejoin="round" stroke-miterlimit="10" fill="none" transform="matrix(1.01213 0 -0 1 337.699 12.9245)"/><path d="M174.787 151.111 174.787 159.127" stroke="#0000FF" stroke-width="1.19436" stroke-linejoin="round" stroke-miterlimit="10" fill="none" transform="matrix(1.01213 0 -0 1 337.699 12.9245)"/><path d="M232.202 155.235 232.202 168.879" stroke="#0000FF" stroke-width="1.19436" stroke-linejoin="round" stroke-miterlimit="10" fill="none" transform="matrix(1.01213 0 -0 1 337.699 12.9245)"/><path d="M59.9569 37.0125 59.9569 21.5511" stroke="#0000FF" stroke-width="1.19436" stroke-linejoin="round" stroke-miterlimit="10" fill="none" transform="matrix(1.01213 0 -0 1 337.699 12.9245)"/><path d="M117.372 46.6351 117.372 31.5138" stroke="#0000FF" stroke-width="1.19436" stroke-linejoin="round" stroke-miterlimit="10" fill="none" transform="matrix(1.01213 0 -0 1 337.699 12.9245)"/><path d="M174.787 151.111 174.787 143.096" stroke="#0000FF" stroke-width="1.19436" stroke-linejoin="round" stroke-miterlimit="10" fill="none" transform="matrix(1.01213 0 -0 1 337.699 12.9245)"/><path d="M232.202 155.235 232.202 141.592" stroke="#0000FF" stroke-width="1.19436" stroke-linejoin="round" stroke-miterlimit="10" fill="none" transform="matrix(1.01213 0 -0 1 337.699 12.9245)"/><path d="M1.75171 0C1.75171 0.967441 0.967441 1.75171-3.99796e-08 1.75171-0.967441 1.75171-1.75171 0.967441-1.75171-3.99796e-08-1.75171-0.967441-0.967441-1.75171-6.68035e-08-1.75171 0.967441-1.75171 1.75171-0.967441 1.75171 0Z" fill="#0000FF" transform="matrix(1.01213 0 -0 1 398.383 49.937)"/><path d="M1.75171 0C1.75171 0.967441 0.967441 1.75171-3.99796e-08 1.75171-0.967441 1.75171-1.75171 0.967441-1.75171-3.99796e-08-1.75171-0.967441-0.967441-1.75171-6.68035e-08-1.75171 0.967441-1.75171 1.75171-0.967441 1.75171 0Z" stroke="#0000FF" stroke-width="1.19436" stroke-miterlimit="10" fill="none" transform="matrix(1.01213 0 -0 1 398.383 49.937)"/><path d="M1.75171 0C1.75171 0.967441 0.967441 1.75171-3.99796e-08 1.75171-0.967441 1.75171-1.75171 0.967441-1.75171-3.99796e-08-1.75171-0.967441-0.967441-1.75171-6.68035e-08-1.75171 0.967441-1.75171 1.75171-0.967441 1.75171 0Z" fill="#0000FF" transform="matrix(1.01213 0 -0 1 456.494 59.5596)"/><path d="M1.75171 0C1.75171 0.967441 0.967441 1.75171-3.99796e-08 1.75171-0.967441 1.75171-1.75171 0.967441-1.75171-3.99796e-08-1.75171-0.967441-0.967441-1.75171-6.68035e-08-1.75171 0.967441-1.75171 1.75171-0.967441 1.75171 0Z" stroke="#0000FF" stroke-width="1.19436" stroke-miterlimit="10" fill="none" transform="matrix(1.01213 0 -0 1 456.494 59.5596)"/><path d="M1.75171 0C1.75171 0.967441 0.967441 1.75171-3.99796e-08 1.75171-0.967441 1.75171-1.75171 0.967441-1.75171-3.99796e-08-1.75171-0.967441-0.967441-1.75171-6.68035e-08-1.75171 0.967441-1.75171 1.75171-0.967441 1.75171 0Z" fill="#0000FF" transform="matrix(1.01213 0 -0 1 514.606 164.036)"/><path d="M1.75171 0C1.75171 0.967441 0.967441 1.75171-3.99796e-08 1.75171-0.967441 1.75171-1.75171 0.967441-1.75171-3.99796e-08-1.75171-0.967441-0.967441-1.75171-6.68035e-08-1.75171 0.967441-1.75171 1.75171-0.967441 1.75171 0Z" stroke="#0000FF" stroke-width="1.19436" stroke-miterlimit="10" fill="none" transform="matrix(1.01213 0 -0 1 514.606 164.036)"/><path d="M1.75171 0C1.75171 0.967441 0.967441 1.75171-3.99796e-08 1.75171-0.967441 1.75171-1.75171 0.967441-1.75171-3.99796e-08-1.75171-0.967441-0.967441-1.75171-6.68035e-08-1.75171 0.967441-1.75171 1.75171-0.967441 1.75171 0Z" fill="#0000FF" transform="matrix(1.01213 0 -0 1 572.718 168.16)"/><path d="M1.75171 0C1.75171 0.967441 0.967441 1.75171-3.99796e-08 1.75171-0.967441 1.75171-1.75171 0.967441-1.75171-3.99796e-08-1.75171-0.967441-0.967441-1.75171-6.68035e-08-1.75171 0.967441-1.75171 1.75171-0.967441 1.75171 0Z" stroke="#0000FF" stroke-width="1.19436" stroke-miterlimit="10" fill="none" transform="matrix(1.01213 0 -0 1 572.718 168.16)"/><path d="M-1.79152 0 1.79152 0" stroke="#0000FF" stroke-width="1.19436" stroke-miterlimit="10" fill="none" transform="matrix(1.01213 0 -0 1 398.383 65.3982)"/><path d="M-1.79152 0 1.79152 0" stroke="#0000FF" stroke-width="1.19436" stroke-miterlimit="10" fill="none" transform="matrix(1.01213 0 -0 1 456.494 74.6814)"/><path d="M-1.79152 0 1.79152 0" stroke="#0000FF" stroke-width="1.19436" stroke-miterlimit="10" fill="none" transform="matrix(1.01213 0 -0 1 514.606 172.052)"/><path d="M-1.79152 0 1.79152 0" stroke="#0000FF" stroke-width="1.19436" stroke-miterlimit="10" fill="none" transform="matrix(1.01213 0 -0 1 572.718 181.803)"/><path d="M-1.79152 0 1.79152 0" stroke="#0000FF" stroke-width="1.19436" stroke-miterlimit="10" fill="none" transform="matrix(1.01213 0 -0 1 398.383 34.4756)"/><path d="M-1.79152 0 1.79152 0" stroke="#0000FF" stroke-width="1.19436" stroke-miterlimit="10" fill="none" transform="matrix(1.01213 0 -0 1 456.494 44.4382)"/><path d="M-1.79152 0 1.79152 0" stroke="#0000FF" stroke-width="1.19436" stroke-miterlimit="10" fill="none" transform="matrix(1.01213 0 -0 1 514.606 156.02)"/><path d="M-1.79152 0 1.79152 0" stroke="#0000FF" stroke-width="1.19436" stroke-miterlimit="10" fill="none" transform="matrix(1.01213 0 -0 1 572.718 154.517)"/><path d="M68.5687 45.5987 68.5687 51.1032" stroke="#FF00FF" stroke-width="1.19436" stroke-linejoin="round" stroke-miterlimit="10" fill="none" transform="matrix(1.01213 0 -0 1 337.699 12.9245)"/><path d="M125.984 42.3044 125.984 48.2789" stroke="#FF00FF" stroke-width="1.19436" stroke-linejoin="round" stroke-miterlimit="10" fill="none" transform="matrix(1.01213 0 -0 1 337.699 12.9245)"/><path d="M183.399 148.968 183.399 152.774" stroke="#FF00FF" stroke-width="1.19436" stroke-linejoin="round" stroke-miterlimit="10" fill="none" transform="matrix(1.01213 0 -0 1 337.699 12.9245)"/><path d="M240.814 150.806 240.814 153.049" stroke="#FF00FF" stroke-width="1.19436" stroke-linejoin="round" stroke-miterlimit="10" fill="none" transform="matrix(1.01213 0 -0 1 337.699 12.9245)"/><path d="M68.5687 45.5987 68.5687 40.094" stroke="#FF00FF" stroke-width="1.19436" stroke-linejoin="round" stroke-miterlimit="10" fill="none" transform="matrix(1.01213 0 -0 1 337.699 12.9245)"/><path d="M125.984 42.3044 125.984 36.3299" stroke="#FF00FF" stroke-width="1.19436" stroke-linejoin="round" stroke-miterlimit="10" fill="none" transform="matrix(1.01213 0 -0 1 337.699 12.9245)"/><path d="M183.399 148.968 183.399 145.162" stroke="#FF00FF" stroke-width="1.19436" stroke-linejoin="round" stroke-miterlimit="10" fill="none" transform="matrix(1.01213 0 -0 1 337.699 12.9245)"/><path d="M240.814 150.806 240.814 148.563" stroke="#FF00FF" stroke-width="1.19436" stroke-linejoin="round" stroke-miterlimit="10" fill="none" transform="matrix(1.01213 0 -0 1 337.699 12.9245)"/><path d="M1.75171 0C1.75171 0.967441 0.967441 1.75171-3.99796e-08 1.75171-0.967441 1.75171-1.75171 0.967441-1.75171-3.99796e-08-1.75171-0.967441-0.967441-1.75171-6.68035e-08-1.75171 0.967441-1.75171 1.75171-0.967441 1.75171 0Z" fill="#FF00FF" transform="matrix(1.01213 0 -0 1 407.099 58.5232)"/><path d="M1.75171 0C1.75171 0.967441 0.967441 1.75171-3.99796e-08 1.75171-0.967441 1.75171-1.75171 0.967441-1.75171-3.99796e-08-1.75171-0.967441-0.967441-1.75171-6.68035e-08-1.75171 0.967441-1.75171 1.75171-0.967441 1.75171 0Z" stroke="#FF00FF" stroke-width="1.19436" stroke-miterlimit="10" fill="none" transform="matrix(1.01213 0 -0 1 407.099 58.5232)"/><path d="M1.75171 0C1.75171 0.967441 0.967441 1.75171-3.99796e-08 1.75171-0.967441 1.75171-1.75171 0.967441-1.75171-3.99796e-08-1.75171-0.967441-0.967441-1.75171-6.68035e-08-1.75171 0.967441-1.75171 1.75171-0.967441 1.75171 0Z" fill="#FF00FF" transform="matrix(1.01213 0 -0 1 465.211 55.2289)"/><path d="M1.75171 0C1.75171 0.967441 0.967441 1.75171-3.99796e-08 1.75171-0.967441 1.75171-1.75171 0.967441-1.75171-3.99796e-08-1.75171-0.967441-0.967441-1.75171-6.68035e-08-1.75171 0.967441-1.75171 1.75171-0.967441 1.75171 0Z" stroke="#FF00FF" stroke-width="1.19436" stroke-miterlimit="10" fill="none" transform="matrix(1.01213 0 -0 1 465.211 55.2289)"/><path d="M1.75171 0C1.75171 0.967441 0.967441 1.75171-3.99796e-08 1.75171-0.967441 1.75171-1.75171 0.967441-1.75171-3.99796e-08-1.75171-0.967441-0.967441-1.75171-6.68035e-08-1.75171 0.967441-1.75171 1.75171-0.967441 1.75171 0Z" fill="#FF00FF" transform="matrix(1.01213 0 -0 1 523.323 161.892)"/><path d="M1.75171 0C1.75171 0.967441 0.967441 1.75171-3.99796e-08 1.75171-0.967441 1.75171-1.75171 0.967441-1.75171-3.99796e-08-1.75171-0.967441-0.967441-1.75171-6.68035e-08-1.75171 0.967441-1.75171 1.75171-0.967441 1.75171 0Z" stroke="#FF00FF" stroke-width="1.19436" stroke-miterlimit="10" fill="none" transform="matrix(1.01213 0 -0 1 523.323 161.892)"/><path d="M1.75171 0C1.75171 0.967441 0.967441 1.75171-3.99796e-08 1.75171-0.967441 1.75171-1.75171 0.967441-1.75171-3.99796e-08-1.75171-0.967441-0.967441-1.75171-6.68035e-08-1.75171 0.967441-1.75171 1.75171-0.967441 1.75171 0Z" fill="#FF00FF" transform="matrix(1.01213 0 -0 1 581.434 163.73)"/><path d="M1.75171 0C1.75171 0.967441 0.967441 1.75171-3.99796e-08 1.75171-0.967441 1.75171-1.75171 0.967441-1.75171-3.99796e-08-1.75171-0.967441-0.967441-1.75171-6.68035e-08-1.75171 0.967441-1.75171 1.75171-0.967441 1.75171 0Z" stroke="#FF00FF" stroke-width="1.19436" stroke-miterlimit="10" fill="none" transform="matrix(1.01213 0 -0 1 581.434 163.73)"/><path d="M-1.79152 0 1.79152 0" stroke="#FF00FF" stroke-width="1.19436" stroke-miterlimit="10" fill="none" transform="matrix(1.01213 0 -0 1 407.099 64.0276)"/><path d="M-1.79152 0 1.79152 0" stroke="#FF00FF" stroke-width="1.19436" stroke-miterlimit="10" fill="none" transform="matrix(1.01213 0 -0 1 465.211 61.2033)"/><path d="M-1.79152 0 1.79152 0" stroke="#FF00FF" stroke-width="1.19436" stroke-miterlimit="10" fill="none" transform="matrix(1.01213 0 -0 1 523.323 165.699)"/><path d="M-1.79152 0 1.79152 0" stroke="#FF00FF" stroke-width="1.19436" stroke-miterlimit="10" fill="none" transform="matrix(1.01213 0 -0 1 581.434 165.973)"/><path d="M-1.79152 0 1.79152 0" stroke="#FF00FF" stroke-width="1.19436" stroke-miterlimit="10" fill="none" transform="matrix(1.01213 0 -0 1 407.099 53.0184)"/><path d="M-1.79152 0 1.79152 0" stroke="#FF00FF" stroke-width="1.19436" stroke-miterlimit="10" fill="none" transform="matrix(1.01213 0 -0 1 465.211 49.2544)"/><path d="M-1.79152 0 1.79152 0" stroke="#FF00FF" stroke-width="1.19436" stroke-miterlimit="10" fill="none" transform="matrix(1.01213 0 -0 1 523.323 158.086)"/><path d="M-1.79152 0 1.79152 0" stroke="#FF00FF" stroke-width="1.19436" stroke-miterlimit="10" fill="none" transform="matrix(1.01213 0 -0 1 581.434 161.487)"/><path d="M77.1811 42.8492 77.1811 44.8969" stroke="#FF0000" stroke-width="1.19436" stroke-linejoin="round" stroke-miterlimit="10" fill="none" transform="matrix(1.01213 0 -0 1 337.699 12.9245)"/><path d="M134.596 42.6132 134.596 44.3455" stroke="#FF0000" stroke-width="1.19436" stroke-linejoin="round" stroke-miterlimit="10" fill="none" transform="matrix(1.01213 0 -0 1 337.699 12.9245)"/><path d="M192.011 150.865 192.011 152.172" stroke="#FF0000" stroke-width="1.19436" stroke-linejoin="round" stroke-miterlimit="10" fill="none" transform="matrix(1.01213 0 -0 1 337.699 12.9245)"/><path d="M249.427 151.115 249.427 152.051" stroke="#FF0000" stroke-width="1.19436" stroke-linejoin="round" stroke-miterlimit="10" fill="none" transform="matrix(1.01213 0 -0 1 337.699 12.9245)"/><path d="M77.1811 42.8492 77.1811 40.8018" stroke="#FF0000" stroke-width="1.19436" stroke-linejoin="round" stroke-miterlimit="10" fill="none" transform="matrix(1.01213 0 -0 1 337.699 12.9245)"/><path d="M134.596 42.6132 134.596 40.881" stroke="#FF0000" stroke-width="1.19436" stroke-linejoin="round" stroke-miterlimit="10" fill="none" transform="matrix(1.01213 0 -0 1 337.699 12.9245)"/><path d="M192.011 150.865 192.011 149.559" stroke="#FF0000" stroke-width="1.19436" stroke-linejoin="round" stroke-miterlimit="10" fill="none" transform="matrix(1.01213 0 -0 1 337.699 12.9245)"/><path d="M249.427 151.115 249.427 150.179" stroke="#FF0000" stroke-width="1.19436" stroke-linejoin="round" stroke-miterlimit="10" fill="none" transform="matrix(1.01213 0 -0 1 337.699 12.9245)"/><path d="M1.75171 0C1.75171 0.967441 0.967441 1.75171-3.99796e-08 1.75171-0.967441 1.75171-1.75171 0.967441-1.75171-3.99796e-08-1.75171-0.967441-0.967441-1.75171-6.68035e-08-1.75171 0.967441-1.75171 1.75171-0.967441 1.75171 0Z" fill="#FF0000" transform="matrix(1.01213 0 -0 1 415.816 55.7737)"/><path d="M1.75171 0C1.75171 0.967441 0.967441 1.75171-3.99796e-08 1.75171-0.967441 1.75171-1.75171 0.967441-1.75171-3.99796e-08-1.75171-0.967441-0.967441-1.75171-6.68035e-08-1.75171 0.967441-1.75171 1.75171-0.967441 1.75171 0Z" stroke="#FF0000" stroke-width="1.19436" stroke-miterlimit="10" fill="none" transform="matrix(1.01213 0 -0 1 415.816 55.7737)"/><path d="M1.75171 0C1.75171 0.967441 0.967441 1.75171-3.99796e-08 1.75171-0.967441 1.75171-1.75171 0.967441-1.75171-3.99796e-08-1.75171-0.967441-0.967441-1.75171-6.68035e-08-1.75171 0.967441-1.75171 1.75171-0.967441 1.75171 0Z" fill="#FF0000" transform="matrix(1.01213 0 -0 1 473.928 55.5377)"/><path d="M1.75171 0C1.75171 0.967441 0.967441 1.75171-3.99796e-08 1.75171-0.967441 1.75171-1.75171 0.967441-1.75171-3.99796e-08-1.75171-0.967441-0.967441-1.75171-6.68035e-08-1.75171 0.967441-1.75171 1.75171-0.967441 1.75171 0Z" stroke="#FF0000" stroke-width="1.19436" stroke-miterlimit="10" fill="none" transform="matrix(1.01213 0 -0 1 473.928 55.5377)"/><path d="M1.75171 0C1.75171 0.967441 0.967441 1.75171-3.99796e-08 1.75171-0.967441 1.75171-1.75171 0.967441-1.75171-3.99796e-08-1.75171-0.967441-0.967441-1.75171-6.68035e-08-1.75171 0.967441-1.75171 1.75171-0.967441 1.75171 0Z" fill="#FF0000" transform="matrix(1.01213 0 -0 1 532.039 163.79)"/><path d="M1.75171 0C1.75171 0.967441 0.967441 1.75171-3.99796e-08 1.75171-0.967441 1.75171-1.75171 0.967441-1.75171-3.99796e-08-1.75171-0.967441-0.967441-1.75171-6.68035e-08-1.75171 0.967441-1.75171 1.75171-0.967441 1.75171 0Z" stroke="#FF0000" stroke-width="1.19436" stroke-miterlimit="10" fill="none" transform="matrix(1.01213 0 -0 1 532.039 163.79)"/><path d="M1.75171 0C1.75171 0.967441 0.967441 1.75171-3.99796e-08 1.75171-0.967441 1.75171-1.75171 0.967441-1.75171-3.99796e-08-1.75171-0.967441-0.967441-1.75171-6.68035e-08-1.75171 0.967441-1.75171 1.75171-0.967441 1.75171 0Z" fill="#FF0000" transform="matrix(1.01213 0 -0 1 590.151 164.039)"/><path d="M1.75171 0C1.75171 0.967441 0.967441 1.75171-3.99796e-08 1.75171-0.967441 1.75171-1.75171 0.967441-1.75171-3.99796e-08-1.75171-0.967441-0.967441-1.75171-6.68035e-08-1.75171 0.967441-1.75171 1.75171-0.967441 1.75171 0Z" stroke="#FF0000" stroke-width="1.19436" stroke-miterlimit="10" fill="none" transform="matrix(1.01213 0 -0 1 590.151 164.039)"/><path d="M-1.79152 0 1.79152 0" stroke="#FF0000" stroke-width="1.19436" stroke-miterlimit="10" fill="none" transform="matrix(1.01213 0 -0 1 415.816 57.8214)"/><path d="M-1.79152 0 1.79152 0" stroke="#FF0000" stroke-width="1.19436" stroke-miterlimit="10" fill="none" transform="matrix(1.01213 0 -0 1 473.928 57.2699)"/><path d="M-1.79152 0 1.79152 0" stroke="#FF0000" stroke-width="1.19436" stroke-miterlimit="10" fill="none" transform="matrix(1.01213 0 -0 1 532.039 165.096)"/><path d="M-1.79152 0 1.79152 0" stroke="#FF0000" stroke-width="1.19436" stroke-miterlimit="10" fill="none" transform="matrix(1.01213 0 -0 1 590.151 164.975)"/><path d="M-1.79152 0 1.79152 0" stroke="#FF0000" stroke-width="1.19436" stroke-miterlimit="10" fill="none" transform="matrix(1.01213 0 -0 1 415.816 53.7262)"/><path d="M-1.79152 0 1.79152 0" stroke="#FF0000" stroke-width="1.19436" stroke-miterlimit="10" fill="none" transform="matrix(1.01213 0 -0 1 473.928 53.8054)"/><path d="M-1.79152 0 1.79152 0" stroke="#FF0000" stroke-width="1.19436" stroke-miterlimit="10" fill="none" transform="matrix(1.01213 0 -0 1 532.039 162.483)"/><path d="M-1.79152 0 1.79152 0" stroke="#FF0000" stroke-width="1.19436" stroke-miterlimit="10" fill="none" transform="matrix(1.01213 0 -0 1 590.151 163.104)"/><path d="M85.7934 42.725 85.7934 43.1179" stroke="#000000" stroke-width="1.19436" stroke-linejoin="round" stroke-miterlimit="10" fill="none" transform="matrix(1.01213 0 -0 1 337.699 12.9245)"/><path d="M143.209 42.6716 143.209 43.0344" stroke="#000000" stroke-width="1.19436" stroke-linejoin="round" stroke-miterlimit="10" fill="none" transform="matrix(1.01213 0 -0 1 337.699 12.9245)"/><path d="M200.624 151.083 200.624 151.339" stroke="#000000" stroke-width="1.19436" stroke-linejoin="round" stroke-miterlimit="10" fill="none" transform="matrix(1.01213 0 -0 1 337.699 12.9245)"/><path d="M258.039 150.94 258.039 151.268" stroke="#000000" stroke-width="1.19436" stroke-linejoin="round" stroke-miterlimit="10" fill="none" transform="matrix(1.01213 0 -0 1 337.699 12.9245)"/><path d="M85.7934 42.725 85.7934 42.3321" stroke="#000000" stroke-width="1.19436" stroke-linejoin="round" stroke-miterlimit="10" fill="none" transform="matrix(1.01213 0 -0 1 337.699 12.9245)"/><path d="M143.209 42.6716 143.209 42.3087" stroke="#000000" stroke-width="1.19436" stroke-linejoin="round" stroke-miterlimit="10" fill="none" transform="matrix(1.01213 0 -0 1 337.699 12.9245)"/><path d="M200.624 151.083 200.624 150.827" stroke="#000000" stroke-width="1.19436" stroke-linejoin="round" stroke-miterlimit="10" fill="none" transform="matrix(1.01213 0 -0 1 337.699 12.9245)"/><path d="M258.039 150.94 258.039 150.612" stroke="#000000" stroke-width="1.19436" stroke-linejoin="round" stroke-miterlimit="10" fill="none" transform="matrix(1.01213 0 -0 1 337.699 12.9245)"/><path d="M1.75171 0C1.75171 0.967441 0.967441 1.75171-3.99796e-08 1.75171-0.967441 1.75171-1.75171 0.967441-1.75171-3.99796e-08-1.75171-0.967441-0.967441-1.75171-6.68035e-08-1.75171 0.967441-1.75171 1.75171-0.967441 1.75171 0Z" transform="matrix(1.01213 0 -0 1 424.533 55.6495)"/><path d="M1.75171 0C1.75171 0.967441 0.967441 1.75171-3.99796e-08 1.75171-0.967441 1.75171-1.75171 0.967441-1.75171-3.99796e-08-1.75171-0.967441-0.967441-1.75171-6.68035e-08-1.75171 0.967441-1.75171 1.75171-0.967441 1.75171 0Z" stroke="#000000" stroke-width="1.19436" stroke-miterlimit="10" fill="none" transform="matrix(1.01213 0 -0 1 424.533 55.6495)"/><path d="M1.75171 0C1.75171 0.967441 0.967441 1.75171-3.99796e-08 1.75171-0.967441 1.75171-1.75171 0.967441-1.75171-3.99796e-08-1.75171-0.967441-0.967441-1.75171-6.68035e-08-1.75171 0.967441-1.75171 1.75171-0.967441 1.75171 0Z" transform="matrix(1.01213 0 -0 1 482.645 55.596)"/><path d="M1.75171 0C1.75171 0.967441 0.967441 1.75171-3.99796e-08 1.75171-0.967441 1.75171-1.75171 0.967441-1.75171-3.99796e-08-1.75171-0.967441-0.967441-1.75171-6.68035e-08-1.75171 0.967441-1.75171 1.75171-0.967441 1.75171 0Z" stroke="#000000" stroke-width="1.19436" stroke-miterlimit="10" fill="none" transform="matrix(1.01213 0 -0 1 482.645 55.596)"/><path d="M1.75171 0C1.75171 0.967441 0.967441 1.75171-3.99796e-08 1.75171-0.967441 1.75171-1.75171 0.967441-1.75171-3.99796e-08-1.75171-0.967441-0.967441-1.75171-6.68035e-08-1.75171 0.967441-1.75171 1.75171-0.967441 1.75171 0Z" transform="matrix(1.01213 0 -0 1 540.756 164.008)"/><path d="M1.75171 0C1.75171 0.967441 0.967441 1.75171-3.99796e-08 1.75171-0.967441 1.75171-1.75171 0.967441-1.75171-3.99796e-08-1.75171-0.967441-0.967441-1.75171-6.68035e-08-1.75171 0.967441-1.75171 1.75171-0.967441 1.75171 0Z" stroke="#000000" stroke-width="1.19436" stroke-miterlimit="10" fill="none" transform="matrix(1.01213 0 -0 1 540.756 164.008)"/><path d="M1.75171 0C1.75171 0.967441 0.967441 1.75171-3.99796e-08 1.75171-0.967441 1.75171-1.75171 0.967441-1.75171-3.99796e-08-1.75171-0.967441-0.967441-1.75171-6.68035e-08-1.75171 0.967441-1.75171 1.75171-0.967441 1.75171 0Z" transform="matrix(1.01213 0 -0 1 598.868 163.864)"/><path d="M1.75171 0C1.75171 0.967441 0.967441 1.75171-3.99796e-08 1.75171-0.967441 1.75171-1.75171 0.967441-1.75171-3.99796e-08-1.75171-0.967441-0.967441-1.75171-6.68035e-08-1.75171 0.967441-1.75171 1.75171-0.967441 1.75171 0Z" stroke="#000000" stroke-width="1.19436" stroke-miterlimit="10" fill="none" transform="matrix(1.01213 0 -0 1 598.868 163.864)"/><path d="M-1.79152 0 1.79152 0" stroke="#000000" stroke-width="1.19436" stroke-miterlimit="10" fill="none" transform="matrix(1.01213 0 -0 1 424.533 56.0424)"/><path d="M-1.79152 0 1.79152 0" stroke="#000000" stroke-width="1.19436" stroke-miterlimit="10" fill="none" transform="matrix(1.01213 0 -0 1 482.645 55.9589)"/><path d="M-1.79152 0 1.79152 0" stroke="#000000" stroke-width="1.19436" stroke-miterlimit="10" fill="none" transform="matrix(1.01213 0 -0 1 540.756 164.264)"/><path d="M-1.79152 0 1.79152 0" stroke="#000000" stroke-width="1.19436" stroke-miterlimit="10" fill="none" transform="matrix(1.01213 0 -0 1 598.868 164.192)"/><path d="M-1.79152 0 1.79152 0" stroke="#000000" stroke-width="1.19436" stroke-miterlimit="10" fill="none" transform="matrix(1.01213 0 -0 1 424.533 55.2565)"/><path d="M-1.79152 0 1.79152 0" stroke="#000000" stroke-width="1.19436" stroke-miterlimit="10" fill="none" transform="matrix(1.01213 0 -0 1 482.645 55.2332)"/><path d="M-1.79152 0 1.79152 0" stroke="#000000" stroke-width="1.19436" stroke-miterlimit="10" fill="none" transform="matrix(1.01213 0 -0 1 540.756 163.751)"/><path d="M-1.79152 0 1.79152 0" stroke="#000000" stroke-width="1.19436" stroke-miterlimit="10" fill="none" transform="matrix(1.01213 0 -0 1 598.868 163.536)"/><path d="M273.207 74.3482 273.207 21.9462 214.087 21.9462 214.087 74.3482Z" fill="#FFFFFF" transform="matrix(1.01213 0 -0 1 337.699 12.9245)"/><text font-family="Arial,Arial_MSFontService,sans-serif" font-weight="700" font-size="24" transform="matrix(0.453314 0 0 0.447881 575.689 46)">100</text><path d="M-1.79152 0 1.79152 0" stroke="#0000FF" stroke-width="1.19436" stroke-miterlimit="10" fill="none" transform="matrix(1.01213 0 -0 1 565.262 46.6889)"/><path d="M-1.79152 0 1.79152 0" stroke="#0000FF" stroke-width="1.19436" stroke-miterlimit="10" fill="none" transform="matrix(1.01213 0 -0 1 565.262 37.3235)"/><path d="M224.836 33.7645 224.836 24.399" stroke="#0000FF" stroke-width="1.19436" stroke-linejoin="round" stroke-miterlimit="10" fill="none" transform="matrix(1.01213 0 -0 1 337.699 12.9245)"/><path d="M1.57654 0C1.57654 0.870699 0.870699 1.57654-8.54265e-09 1.57654-0.870699 1.57654-1.57654 0.870699-1.57654-8.54265e-09-1.57654-0.870699-0.870699-1.57654 8.54265e-09-1.57654 0.870699-1.57654 1.57654-0.870699 1.57654 0Z" fill="#0000FF" transform="matrix(1.01213 0 -0 1 565.262 42.0062)"/><path d="M1.57654 0C1.57654 0.870699 0.870699 1.57654-8.54265e-09 1.57654-0.870699 1.57654-1.57654 0.870699-1.57654-8.54265e-09-1.57654-0.870699-0.870699-1.57654 8.54265e-09-1.57654 0.870699-1.57654 1.57654-0.870699 1.57654 0Z" stroke="#0000FF" stroke-width="1.19436" stroke-miterlimit="10" fill="none" transform="matrix(1.01213 0 -0 1 565.262 42.0062)"/><text font-family="Arial,Arial_MSFontService,sans-serif" font-weight="700" font-size="24" transform="matrix(0.453314 0 0 0.447881 575.689 59)">1000</text><path d="M-1.79152 0 1.79152 0" stroke="#FF00FF" stroke-width="1.19436" stroke-miterlimit="10" fill="none" transform="matrix(1.01213 0 -0 1 565.262 59.3993)"/><path d="M-1.79152 0 1.79152 0" stroke="#FF00FF" stroke-width="1.19436" stroke-miterlimit="10" fill="none" transform="matrix(1.01213 0 -0 1 565.262 50.0337)"/><path d="M224.836 46.4748 224.836 37.1093" stroke="#FF00FF" stroke-width="1.19436" stroke-linejoin="round" stroke-miterlimit="10" fill="none" transform="matrix(1.01213 0 -0 1 337.699 12.9245)"/><path d="M1.57654 0C1.57654 0.870699 0.870699 1.57654-8.54265e-09 1.57654-0.870699 1.57654-1.57654 0.870699-1.57654-8.54265e-09-1.57654-0.870699-0.870699-1.57654 8.54265e-09-1.57654 0.870699-1.57654 1.57654-0.870699 1.57654 0Z" fill="#FF00FF" transform="matrix(1.01213 0 -0 1 565.262 54.7165)"/><path d="M1.57654 0C1.57654 0.870699 0.870699 1.57654-8.54265e-09 1.57654-0.870699 1.57654-1.57654 0.870699-1.57654-8.54265e-09-1.57654-0.870699-0.870699-1.57654 8.54265e-09-1.57654 0.870699-1.57654 1.57654-0.870699 1.57654 0Z" stroke="#FF00FF" stroke-width="1.19436" stroke-miterlimit="10" fill="none" transform="matrix(1.01213 0 -0 1 565.262 54.7165)"/><text font-family="Arial,Arial_MSFontService,sans-serif" font-weight="700" font-size="24" transform="matrix(0.453314 0 0 0.447881 575.689 71)">10000</text><path d="M-1.79152 0 1.79152 0" stroke="#FF0000" stroke-width="1.19436" stroke-miterlimit="10" fill="none" transform="matrix(1.01213 0 -0 1 565.262 72.1097)"/><path d="M-1.79152 0 1.79152 0" stroke="#FF0000" stroke-width="1.19436" stroke-miterlimit="10" fill="none" transform="matrix(1.01213 0 -0 1 565.262 62.744)"/><path d="M224.836 59.1852 224.836 49.8196" stroke="#FF0000" stroke-width="1.19436" stroke-linejoin="round" stroke-miterlimit="10" fill="none" transform="matrix(1.01213 0 -0 1 337.699 12.9245)"/><path d="M1.57654 0C1.57654 0.870699 0.870699 1.57654-8.54265e-09 1.57654-0.870699 1.57654-1.57654 0.870699-1.57654-8.54265e-09-1.57654-0.870699-0.870699-1.57654 8.54265e-09-1.57654 0.870699-1.57654 1.57654-0.870699 1.57654 0Z" fill="#FF0000" transform="matrix(1.01213 0 -0 1 565.262 67.4266)"/><path d="M1.57654 0C1.57654 0.870699 0.870699 1.57654-8.54265e-09 1.57654-0.870699 1.57654-1.57654 0.870699-1.57654-8.54265e-09-1.57654-0.870699-0.870699-1.57654 8.54265e-09-1.57654 0.870699-1.57654 1.57654-0.870699 1.57654 0Z" stroke="#FF0000" stroke-width="1.19436" stroke-miterlimit="10" fill="none" transform="matrix(1.01213 0 -0 1 565.262 67.4266)"/><text font-family="Arial,Arial_MSFontService,sans-serif" font-weight="700" font-size="24" transform="matrix(0.453314 0 0 0.447881 575.689 84)">100000</text><path d="M-1.79152 0 1.79152 0" stroke="#000000" stroke-width="1.19436" stroke-miterlimit="10" fill="none" transform="matrix(1.01213 0 -0 1 565.262 84.8196)"/><path d="M-1.79152 0 1.79152 0" stroke="#000000" stroke-width="1.19436" stroke-miterlimit="10" fill="none" transform="matrix(1.01213 0 -0 1 565.262 75.4544)"/><path d="M224.836 71.8952 224.836 62.53" stroke="#000000" stroke-width="1.19436" stroke-linejoin="round" stroke-miterlimit="10" fill="none" transform="matrix(1.01213 0 -0 1 337.699 12.9245)"/><path d="M1.57654 0C1.57654 0.870699 0.870699 1.57654-8.54265e-09 1.57654-0.870699 1.57654-1.57654 0.870699-1.57654-8.54265e-09-1.57654-0.870699-0.870699-1.57654 8.54265e-09-1.57654 0.870699-1.57654 1.57654-0.870699 1.57654 0Z" transform="matrix(1.01213 0 -0 1 565.262 80.137)"/><path d="M1.57654 0C1.57654 0.870699 0.870699 1.57654-8.54265e-09 1.57654-0.870699 1.57654-1.57654 0.870699-1.57654-8.54265e-09-1.57654-0.870699-0.870699-1.57654 8.54265e-09-1.57654 0.870699-1.57654 1.57654-0.870699 1.57654 0Z" stroke="#000000" stroke-width="1.19436" stroke-miterlimit="10" fill="none" transform="matrix(1.01213 0 -0 1 565.262 80.137)"/><path d="M214.087 74.3482 214.087 21.9462 273.207 21.9462 273.207 74.3482Z" stroke="#262626" stroke-width="0.298602" stroke-miterlimit="10" fill="none" fill-rule="evenodd" transform="matrix(1.01213 0 -0 1 337.699 12.9245)"/></g></g><text font-family="Arial,Arial_MSFontService,sans-serif" font-weight="700" font-size="19" transform="translate(475.128 50)">GRHL2</text></g></svg>