<svg width="285" height="217" xmlns="http://www.w3.org/2000/svg" xmlns:xlink="http://www.w3.org/1999/xlink" overflow="hidden"><defs><clipPath id="clip0"><path d="M651 26 936 26 936 243 651 243Z" fill-rule="evenodd" clip-rule="evenodd"/></clipPath><clipPath id="clip1"><path d="M653 29 935 29 935 240 653 240Z" fill-rule="evenodd" clip-rule="evenodd"/></clipPath><clipPath id="clip2"><path d="M653 29 935 29 935 240 653 240Z" fill-rule="evenodd" clip-rule="evenodd"/></clipPath><clipPath id="clip3"><path d="M648 13 979 13 979 240 648 240Z" fill-rule="evenodd" clip-rule="evenodd"/></clipPath><clipPath id="clip4"><path d="M648 13 979 13 979 240 648 240Z" fill-rule="evenodd" clip-rule="evenodd"/></clipPath><clipPath id="clip5"><path d="M652 226 934 226 934 242 652 242Z" fill-rule="evenodd" clip-rule="evenodd"/></clipPath><clipPath id="clip6"><path d="M652 226 934 226 934 242 652 242Z" fill-rule="evenodd" clip-rule="evenodd"/></clipPath><clipPath id="clip7"><path d="M649 15 961 15 961 242 649 242Z" fill-rule="evenodd" clip-rule="evenodd"/></clipPath><clipPath id="clip8"><path d="M649 15 961 15 961 242 649 242Z" fill-rule="evenodd" clip-rule="evenodd"/></clipPath></defs><g clip-path="url(#clip0)" transform="translate(-651 -26)"><g clip-path="url(#clip1)"><g clip-path="url(#clip2)"><g clip-path="url(#clip3)"><g clip-path="url(#clip4)"><path d="M0 0 311.752 0 311.752 226.689 0 226.689Z" fill="#FFFFFF" transform="matrix(1.06003 0 -0 1 648.4 13.3108)"/></g><path d="M0 0 311.752 0 311.752 226.689 0 226.689Z" fill="#FFFFFF" transform="matrix(1.06003 0 -0 1 648.4 13.3108)"/><path d="M40.3393 184.158 267.905 184.158 267.905 17.1003 40.3393 17.1003Z" fill="#FFFFFF" transform="matrix(1.06003 0 -0 1 648.4 13.3108)"/><path d="M40.3393 184.158 267.905 184.158" stroke="#262626" stroke-width="0.292328" stroke-linecap="square" stroke-linejoin="round" stroke-miterlimit="10" fill="none" transform="matrix(1.06003 0 -0 1 648.4 13.3108)"/><path d="M40.3393 17.1003 267.905 17.1003" stroke="#262626" stroke-width="0.292328" stroke-linecap="square" stroke-linejoin="round" stroke-miterlimit="10" fill="none" transform="matrix(1.06003 0 -0 1 648.4 13.3108)"/><path d="M63.8807 184.158 63.8807 181.882" stroke="#262626" stroke-width="0.292328" stroke-linecap="square" stroke-linejoin="round" stroke-miterlimit="10" fill="none" transform="matrix(1.06003 0 -0 1 648.4 13.3108)"/><path d="M95.2691 184.158 95.2691 181.882" stroke="#262626" stroke-width="0.292328" stroke-linecap="square" stroke-linejoin="round" stroke-miterlimit="10" fill="none" transform="matrix(1.06003 0 -0 1 648.4 13.3108)"/><path d="M126.657 184.158 126.657 181.882" stroke="#262626" stroke-width="0.292328" stroke-linecap="square" stroke-linejoin="round" stroke-miterlimit="10" fill="none" transform="matrix(1.06003 0 -0 1 648.4 13.3108)"/><path d="M158.046 184.158 158.046 181.882" stroke="#262626" stroke-width="0.292328" stroke-linecap="square" stroke-linejoin="round" stroke-miterlimit="10" fill="none" transform="matrix(1.06003 0 -0 1 648.4 13.3108)"/><path d="M189.434 184.158 189.434 181.882" stroke="#262626" stroke-width="0.292328" stroke-linecap="square" stroke-linejoin="round" stroke-miterlimit="10" fill="none" transform="matrix(1.06003 0 -0 1 648.4 13.3108)"/><path d="M220.823 184.158 220.823 181.882" stroke="#262626" stroke-width="0.292328" stroke-linecap="square" stroke-linejoin="round" stroke-miterlimit="10" fill="none" transform="matrix(1.06003 0 -0 1 648.4 13.3108)"/><path d="M252.211 184.158 252.211 181.882" stroke="#262626" stroke-width="0.292328" stroke-linecap="square" stroke-linejoin="round" stroke-miterlimit="10" fill="none" transform="matrix(1.06003 0 -0 1 648.4 13.3108)"/><path d="M63.8807 17.1003 63.8807 19.376" stroke="#262626" stroke-width="0.292328" stroke-linecap="square" stroke-linejoin="round" stroke-miterlimit="10" fill="none" transform="matrix(1.06003 0 -0 1 648.4 13.3108)"/><path d="M95.2691 17.1003 95.2691 19.376" stroke="#262626" stroke-width="0.292328" stroke-linecap="square" stroke-linejoin="round" stroke-miterlimit="10" fill="none" transform="matrix(1.06003 0 -0 1 648.4 13.3108)"/><path d="M126.657 17.1003 126.657 19.376" stroke="#262626" stroke-width="0.292328" stroke-linecap="square" stroke-linejoin="round" stroke-miterlimit="10" fill="none" transform="matrix(1.06003 0 -0 1 648.4 13.3108)"/><path d="M158.046 17.1003 158.046 19.376" stroke="#262626" stroke-width="0.292328" stroke-linecap="square" stroke-linejoin="round" stroke-miterlimit="10" fill="none" transform="matrix(1.06003 0 -0 1 648.4 13.3108)"/><path d="M189.434 17.1003 189.434 19.376" stroke="#262626" stroke-width="0.292328" stroke-linecap="square" stroke-linejoin="round" stroke-miterlimit="10" fill="none" transform="matrix(1.06003 0 -0 1 648.4 13.3108)"/><path d="M220.823 17.1003 220.823 19.376" stroke="#262626" stroke-width="0.292328" stroke-linecap="square" stroke-linejoin="round" stroke-miterlimit="10" fill="none" transform="matrix(1.06003 0 -0 1 648.4 13.3108)"/><path d="M252.211 17.1003 252.211 19.376" stroke="#262626" stroke-width="0.292328" stroke-linecap="square" stroke-linejoin="round" stroke-miterlimit="10" fill="none" transform="matrix(1.06003 0 -0 1 648.4 13.3108)"/><text fill="#262626" font-family="Arial,Arial_MSFontService,sans-serif" font-weight="700" font-size="27" transform="matrix(0.328657 -0.310045 0.328657 0.310045 709.542 223)">100<tspan x="50.619" y="50.619">011</tspan><tspan x="101.238" y="101.238">001</tspan><tspan x="151.857" y="151.857">010</tspan><tspan x="202.476" y="202.476">101</tspan><tspan x="253.095" y="253.095">110</tspan><tspan x="303.714" y="303.714">000</tspan></text><text fill="#262626" font-family="Arial,Arial_MSFontService,sans-serif" font-weight="700" font-size="29" transform="matrix(0.464791 0 0 0.43847 706.499 237)">States <tspan x="95.0001" y="0">[</tspan><tspan x="105" y="0">'</tspan><tspan x="112" y="0">ZEB</tspan><tspan x="169" y="0">', '</tspan><tspan x="199" y="0">miR</tspan><tspan x="254" y="0">200</tspan><tspan x="302" y="0">', '</tspan>GRHL<tspan x="415" y="0">2</tspan>']</text><path d="M40.3393 184.158 40.3393 17.1003" stroke="#262626" stroke-width="0.292328" stroke-linecap="square" stroke-linejoin="round" stroke-miterlimit="10" fill="none" transform="matrix(1.06003 0 -0 1 648.4 13.3108)"/><path d="M267.905 184.158 267.905 17.1003" stroke="#262626" stroke-width="0.292328" stroke-linecap="square" stroke-linejoin="round" stroke-miterlimit="10" fill="none" transform="matrix(1.06003 0 -0 1 648.4 13.3108)"/><path d="M40.3393 184.158 42.6149 184.158" stroke="#262626" stroke-width="0.292328" stroke-linecap="square" stroke-linejoin="round" stroke-miterlimit="10" fill="none" transform="matrix(1.06003 0 -0 1 648.4 13.3108)"/><path d="M40.3393 149.354 42.6149 149.354" stroke="#262626" stroke-width="0.292328" stroke-linecap="square" stroke-linejoin="round" stroke-miterlimit="10" fill="none" transform="matrix(1.06003 0 -0 1 648.4 13.3108)"/><path d="M40.3393 114.55 42.6149 114.55" stroke="#262626" stroke-width="0.292328" stroke-linecap="square" stroke-linejoin="round" stroke-miterlimit="10" fill="none" transform="matrix(1.06003 0 -0 1 648.4 13.3108)"/><path d="M40.3393 79.7468 42.6149 79.7468" stroke="#262626" stroke-width="0.292328" stroke-linecap="square" stroke-linejoin="round" stroke-miterlimit="10" fill="none" transform="matrix(1.06003 0 -0 1 648.4 13.3108)"/><path d="M40.3393 44.9432 42.6149 44.9432" stroke="#262626" stroke-width="0.292328" stroke-linecap="square" stroke-linejoin="round" stroke-miterlimit="10" fill="none" transform="matrix(1.06003 0 -0 1 648.4 13.3108)"/><path d="M267.905 184.158 265.63 184.158" stroke="#262626" stroke-width="0.292328" stroke-linecap="square" stroke-linejoin="round" stroke-miterlimit="10" fill="none" transform="matrix(1.06003 0 -0 1 648.4 13.3108)"/><path d="M267.905 149.354 265.63 149.354" stroke="#262626" stroke-width="0.292328" stroke-linecap="square" stroke-linejoin="round" stroke-miterlimit="10" fill="none" transform="matrix(1.06003 0 -0 1 648.4 13.3108)"/><path d="M267.905 114.55 265.63 114.55" stroke="#262626" stroke-width="0.292328" stroke-linecap="square" stroke-linejoin="round" stroke-miterlimit="10" fill="none" transform="matrix(1.06003 0 -0 1 648.4 13.3108)"/><path d="M267.905 79.7468 265.63 79.7468" stroke="#262626" stroke-width="0.292328" stroke-linecap="square" stroke-linejoin="round" stroke-miterlimit="10" fill="none" transform="matrix(1.06003 0 -0 1 648.4 13.3108)"/><path d="M267.905 44.9432 265.63 44.9432" stroke="#262626" stroke-width="0.292328" stroke-linecap="square" stroke-linejoin="round" stroke-miterlimit="10" fill="none" transform="matrix(1.06003 0 -0 1 648.4 13.3108)"/><text fill="#262626" font-family="Arial,Arial_MSFontService,sans-serif" font-weight="700" font-size="27" transform="matrix(0.464791 0 0 0.43847 680.47 202)">0<tspan x="-23" y="-79.823">0</tspan><tspan x="-7.99999" y="-79.823">.</tspan><tspan x="0" y="-79.823">1</tspan><tspan x="-23" y="-159.646">0</tspan><tspan x="-7.99999" y="-159.646">.</tspan><tspan x="0" y="-159.646">2</tspan><tspan x="-23" y="-239.469">0</tspan><tspan x="-7.99999" y="-239.469">.</tspan><tspan x="0" y="-239.469">3</tspan><tspan x="-23" y="-319.292">0</tspan><tspan x="-7.99999" y="-319.292">.</tspan><tspan x="0" y="-319.292">4</tspan></text><text fill="#262626" font-family="Arial,Arial_MSFontService,sans-serif" font-weight="700" font-size="29" transform="matrix(2.84602e-17 -0.43847 0.464791 2.68485e-17 665.132 147)">Frequency</text><path d="M57.9952 44.189 57.9952 55.5424" stroke="#0000FF" stroke-width="1.16927" stroke-linejoin="round" stroke-miterlimit="10" fill="none" transform="matrix(1.06003 0 -0 1 648.4 13.3108)"/><path d="M89.3835 57.0858 89.3835 68.892" stroke="#0000FF" stroke-width="1.16927" stroke-linejoin="round" stroke-miterlimit="10" fill="none" transform="matrix(1.06003 0 -0 1 648.4 13.3108)"/><path d="M120.772 157.456 120.772 160.482" stroke="#0000FF" stroke-width="1.16927" stroke-linejoin="round" stroke-miterlimit="10" fill="none" transform="matrix(1.06003 0 -0 1 648.4 13.3108)"/><path d="M152.161 167.877 152.161 171.055" stroke="#0000FF" stroke-width="1.16927" stroke-linejoin="round" stroke-miterlimit="10" fill="none" transform="matrix(1.06003 0 -0 1 648.4 13.3108)"/><path d="M183.549 170.739 183.549 172.765" stroke="#0000FF" stroke-width="1.16927" stroke-linejoin="round" stroke-miterlimit="10" fill="none" transform="matrix(1.06003 0 -0 1 648.4 13.3108)"/><path d="M214.937 172.363 214.937 174.707" stroke="#0000FF" stroke-width="1.16927" stroke-linejoin="round" stroke-miterlimit="10" fill="none" transform="matrix(1.06003 0 -0 1 648.4 13.3108)"/><path d="M246.326 177.545 246.326 178.999" stroke="#0000FF" stroke-width="1.16927" stroke-linejoin="round" stroke-miterlimit="10" fill="none" transform="matrix(1.06003 0 -0 1 648.4 13.3108)"/><path d="M57.9952 44.189 57.9952 32.8359" stroke="#0000FF" stroke-width="1.16927" stroke-linejoin="round" stroke-miterlimit="10" fill="none" transform="matrix(1.06003 0 -0 1 648.4 13.3108)"/><path d="M89.3835 57.0858 89.3835 45.2795" stroke="#0000FF" stroke-width="1.16927" stroke-linejoin="round" stroke-miterlimit="10" fill="none" transform="matrix(1.06003 0 -0 1 648.4 13.3108)"/><path d="M120.772 157.456 120.772 154.429" stroke="#0000FF" stroke-width="1.16927" stroke-linejoin="round" stroke-miterlimit="10" fill="none" transform="matrix(1.06003 0 -0 1 648.4 13.3108)"/><path d="M152.161 167.877 152.161 164.7" stroke="#0000FF" stroke-width="1.16927" stroke-linejoin="round" stroke-miterlimit="10" fill="none" transform="matrix(1.06003 0 -0 1 648.4 13.3108)"/><path d="M183.549 170.739 183.549 168.712" stroke="#0000FF" stroke-width="1.16927" stroke-linejoin="round" stroke-miterlimit="10" fill="none" transform="matrix(1.06003 0 -0 1 648.4 13.3108)"/><path d="M214.937 172.363 214.937 170.019" stroke="#0000FF" stroke-width="1.16927" stroke-linejoin="round" stroke-miterlimit="10" fill="none" transform="matrix(1.06003 0 -0 1 648.4 13.3108)"/><path d="M246.326 177.545 246.326 176.091" stroke="#0000FF" stroke-width="1.16927" stroke-linejoin="round" stroke-miterlimit="10" fill="none" transform="matrix(1.06003 0 -0 1 648.4 13.3108)"/><path d="M1.36413 0C1.36413 0.753385 0.753385 1.36413-1.82317e-08 1.36413-0.753385 1.36413-1.36413 0.753385-1.36413-1.82317e-08-1.36413-0.753385-0.753385-1.36413 1.82317e-08-1.36413 0.753385-1.36413 1.36413-0.753385 1.36413 0Z" fill="#0000FF" transform="matrix(1.06003 0 -0 1 709.876 57.4999)"/><path d="M1.36413 0C1.36413 0.753385 0.753385 1.36413-1.82317e-08 1.36413-0.753385 1.36413-1.36413 0.753385-1.36413-1.82317e-08-1.36413-0.753385-0.753385-1.36413 1.82317e-08-1.36413 0.753385-1.36413 1.36413-0.753385 1.36413 0Z" fill="#0000FF" transform="matrix(1.06003 0 -0 1 743.149 70.3966)"/><path d="M1.36413 0C1.36413 0.753385 0.753385 1.36413-1.82317e-08 1.36413-0.753385 1.36413-1.36413 0.753385-1.36413-1.82317e-08-1.36413-0.753385-0.753385-1.36413 1.82317e-08-1.36413 0.753385-1.36413 1.36413-0.753385 1.36413 0Z" fill="#0000FF" transform="matrix(1.06003 0 -0 1 776.422 170.766)"/><path d="M1.36413 0C1.36413 0.753385 0.753385 1.36413-1.82317e-08 1.36413-0.753385 1.36413-1.36413 0.753385-1.36413-1.82317e-08-1.36413-0.753385-0.753385-1.36413 1.82317e-08-1.36413 0.753385-1.36413 1.36413-0.753385 1.36413 0Z" fill="#0000FF" transform="matrix(1.06003 0 -0 1 809.694 181.188)"/><path d="M1.36413 0C1.36413 0.753385 0.753385 1.36413-1.82317e-08 1.36413-0.753385 1.36413-1.36413 0.753385-1.36413-1.82317e-08-1.36413-0.753385-0.753385-1.36413 1.82317e-08-1.36413 0.753385-1.36413 1.36413-0.753385 1.36413 0Z" fill="#0000FF" transform="matrix(1.06003 0 -0 1 842.967 184.05)"/><path d="M1.36413 0C1.36413 0.753385 0.753385 1.36413-1.82317e-08 1.36413-0.753385 1.36413-1.36413 0.753385-1.36413-1.82317e-08-1.36413-0.753385-0.753385-1.36413 1.82317e-08-1.36413 0.753385-1.36413 1.36413-0.753385 1.36413 0Z" fill="#0000FF" transform="matrix(1.06003 0 -0 1 876.239 185.674)"/><path d="M1.36413 0C1.36413 0.753385 0.753385 1.36413-1.82317e-08 1.36413-0.753385 1.36413-1.36413 0.753385-1.36413-1.82317e-08-1.36413-0.753385-0.753385-1.36413 1.82317e-08-1.36413 0.753385-1.36413 1.36413-0.753385 1.36413 0Z" fill="#0000FF" transform="matrix(1.06003 0 -0 1 909.512 190.856)"/><path d="M-1.75388 0 1.75388 0" stroke="#0000FF" stroke-width="1.16927" stroke-miterlimit="10" fill="none" transform="matrix(1.06003 0 -0 1 709.876 68.8532)"/><path d="M-1.75388 0 1.75388 0" stroke="#0000FF" stroke-width="1.16927" stroke-miterlimit="10" fill="none" transform="matrix(1.06003 0 -0 1 743.149 82.2029)"/><path d="M-1.75388 0 1.75388 0" stroke="#0000FF" stroke-width="1.16927" stroke-miterlimit="10" fill="none" transform="matrix(1.06003 0 -0 1 776.422 173.793)"/><path d="M-1.75388 0 1.75388 0" stroke="#0000FF" stroke-width="1.16927" stroke-miterlimit="10" fill="none" transform="matrix(1.06003 0 -0 1 809.694 184.366)"/><path d="M-1.75388 0 1.75388 0" stroke="#0000FF" stroke-width="1.16927" stroke-miterlimit="10" fill="none" transform="matrix(1.06003 0 -0 1 842.967 186.076)"/><path d="M-1.75388 0 1.75388 0" stroke="#0000FF" stroke-width="1.16927" stroke-miterlimit="10" fill="none" transform="matrix(1.06003 0 -0 1 876.239 188.018)"/><path d="M-1.75388 0 1.75388 0" stroke="#0000FF" stroke-width="1.16927" stroke-miterlimit="10" fill="none" transform="matrix(1.06003 0 -0 1 909.512 192.309)"/><path d="M-1.75388 0 1.75388 0" stroke="#0000FF" stroke-width="1.16927" stroke-miterlimit="10" fill="none" transform="matrix(1.06003 0 -0 1 709.876 46.1468)"/><path d="M-1.75388 0 1.75388 0" stroke="#0000FF" stroke-width="1.16927" stroke-miterlimit="10" fill="none" transform="matrix(1.06003 0 -0 1 743.149 58.5904)"/><path d="M-1.75388 0 1.75388 0" stroke="#0000FF" stroke-width="1.16927" stroke-miterlimit="10" fill="none" transform="matrix(1.06003 0 -0 1 776.422 167.74)"/><path d="M-1.75388 0 1.75388 0" stroke="#0000FF" stroke-width="1.16927" stroke-miterlimit="10" fill="none" transform="matrix(1.06003 0 -0 1 809.694 178.01)"/><path d="M-1.75388 0 1.75388 0" stroke="#0000FF" stroke-width="1.16927" stroke-miterlimit="10" fill="none" transform="matrix(1.06003 0 -0 1 842.967 182.023)"/><path d="M-1.75388 0 1.75388 0" stroke="#0000FF" stroke-width="1.16927" stroke-miterlimit="10" fill="none" transform="matrix(1.06003 0 -0 1 876.239 183.329)"/><path d="M-1.75388 0 1.75388 0" stroke="#0000FF" stroke-width="1.16927" stroke-miterlimit="10" fill="none" transform="matrix(1.06003 0 -0 1 909.512 189.402)"/><path d="M61.9186 46.9404 61.9186 49.4787" stroke="#BF00BF" stroke-width="1.16927" stroke-linejoin="round" stroke-miterlimit="10" fill="none" transform="matrix(1.06003 0 -0 1 648.4 13.3108)"/><path d="M93.3074 56.0571 93.3074 57.8281" stroke="#BF00BF" stroke-width="1.16927" stroke-linejoin="round" stroke-miterlimit="10" fill="none" transform="matrix(1.06003 0 -0 1 648.4 13.3108)"/><path d="M124.696 158.548 124.696 161.321" stroke="#BF00BF" stroke-width="1.16927" stroke-linejoin="round" stroke-miterlimit="10" fill="none" transform="matrix(1.06003 0 -0 1 648.4 13.3108)"/><path d="M156.084 166.601 156.084 167.573" stroke="#BF00BF" stroke-width="1.16927" stroke-linejoin="round" stroke-miterlimit="10" fill="none" transform="matrix(1.06003 0 -0 1 648.4 13.3108)"/><path d="M187.472 166.723 187.472 169.253" stroke="#BF00BF" stroke-width="1.16927" stroke-linejoin="round" stroke-miterlimit="10" fill="none" transform="matrix(1.06003 0 -0 1 648.4 13.3108)"/><path d="M218.861 172.272 218.861 173.111" stroke="#BF00BF" stroke-width="1.16927" stroke-linejoin="round" stroke-miterlimit="10" fill="none" transform="matrix(1.06003 0 -0 1 648.4 13.3108)"/><path d="M250.249 180.716 250.249 181.381" stroke="#BF00BF" stroke-width="1.16927" stroke-linejoin="round" stroke-miterlimit="10" fill="none" transform="matrix(1.06003 0 -0 1 648.4 13.3108)"/><path d="M61.9186 46.9404 61.9186 44.4026" stroke="#BF00BF" stroke-width="1.16927" stroke-linejoin="round" stroke-miterlimit="10" fill="none" transform="matrix(1.06003 0 -0 1 648.4 13.3108)"/><path d="M93.3074 56.0571 93.3074 54.2861" stroke="#BF00BF" stroke-width="1.16927" stroke-linejoin="round" stroke-miterlimit="10" fill="none" transform="matrix(1.06003 0 -0 1 648.4 13.3108)"/><path d="M124.696 158.548 124.696 155.775" stroke="#BF00BF" stroke-width="1.16927" stroke-linejoin="round" stroke-miterlimit="10" fill="none" transform="matrix(1.06003 0 -0 1 648.4 13.3108)"/><path d="M156.084 166.601 156.084 165.63" stroke="#BF00BF" stroke-width="1.16927" stroke-linejoin="round" stroke-miterlimit="10" fill="none" transform="matrix(1.06003 0 -0 1 648.4 13.3108)"/><path d="M187.472 166.723 187.472 164.193" stroke="#BF00BF" stroke-width="1.16927" stroke-linejoin="round" stroke-miterlimit="10" fill="none" transform="matrix(1.06003 0 -0 1 648.4 13.3108)"/><path d="M218.861 172.272 218.861 171.434" stroke="#BF00BF" stroke-width="1.16927" stroke-linejoin="round" stroke-miterlimit="10" fill="none" transform="matrix(1.06003 0 -0 1 648.4 13.3108)"/><path d="M250.249 180.716 250.249 180.05" stroke="#BF00BF" stroke-width="1.16927" stroke-linejoin="round" stroke-miterlimit="10" fill="none" transform="matrix(1.06003 0 -0 1 648.4 13.3108)"/><path d="M1.36413 0C1.36413 0.753385 0.753385 1.36413-1.82317e-08 1.36413-0.753385 1.36413-1.36413 0.753385-1.36413-1.82317e-08-1.36413-0.753385-0.753385-1.36413 1.82317e-08-1.36413 0.753385-1.36413 1.36413-0.753385 1.36413 0Z" fill="#BF00BF" transform="matrix(1.06003 0 -0 1 714.035 60.2513)"/><path d="M1.36413 0C1.36413 0.753385 0.753385 1.36413-1.82317e-08 1.36413-0.753385 1.36413-1.36413 0.753385-1.36413-1.82317e-08-1.36413-0.753385-0.753385-1.36413 1.82317e-08-1.36413 0.753385-1.36413 1.36413-0.753385 1.36413 0Z" fill="#BF00BF" transform="matrix(1.06003 0 -0 1 747.308 69.368)"/><path d="M1.36413 0C1.36413 0.753385 0.753385 1.36413-1.82317e-08 1.36413-0.753385 1.36413-1.36413 0.753385-1.36413-1.82317e-08-1.36413-0.753385-0.753385-1.36413 1.82317e-08-1.36413 0.753385-1.36413 1.36413-0.753385 1.36413 0Z" fill="#BF00BF" transform="matrix(1.06003 0 -0 1 780.581 171.859)"/><path d="M1.36413 0C1.36413 0.753385 0.753385 1.36413-1.82317e-08 1.36413-0.753385 1.36413-1.36413 0.753385-1.36413-1.82317e-08-1.36413-0.753385-0.753385-1.36413 1.82317e-08-1.36413 0.753385-1.36413 1.36413-0.753385 1.36413 0Z" fill="#BF00BF" transform="matrix(1.06003 0 -0 1 813.853 179.912)"/><path d="M1.36413 0C1.36413 0.753385 0.753385 1.36413-1.82317e-08 1.36413-0.753385 1.36413-1.36413 0.753385-1.36413-1.82317e-08-1.36413-0.753385-0.753385-1.36413 1.82317e-08-1.36413 0.753385-1.36413 1.36413-0.753385 1.36413 0Z" fill="#BF00BF" transform="matrix(1.06003 0 -0 1 847.126 180.034)"/><path d="M1.36413 0C1.36413 0.753385 0.753385 1.36413-1.82317e-08 1.36413-0.753385 1.36413-1.36413 0.753385-1.36413-1.82317e-08-1.36413-0.753385-0.753385-1.36413 1.82317e-08-1.36413 0.753385-1.36413 1.36413-0.753385 1.36413 0Z" fill="#BF00BF" transform="matrix(1.06003 0 -0 1 880.399 185.583)"/><path d="M1.36413 0C1.36413 0.753385 0.753385 1.36413-1.82317e-08 1.36413-0.753385 1.36413-1.36413 0.753385-1.36413-1.82317e-08-1.36413-0.753385-0.753385-1.36413 1.82317e-08-1.36413 0.753385-1.36413 1.36413-0.753385 1.36413 0Z" fill="#BF00BF" transform="matrix(1.06003 0 -0 1 913.671 194.027)"/><path d="M-1.75388 0 1.75388 0" stroke="#BF00BF" stroke-width="1.16927" stroke-miterlimit="10" fill="none" transform="matrix(1.06003 0 -0 1 714.035 62.7896)"/><path d="M-1.75388 0 1.75388 0" stroke="#BF00BF" stroke-width="1.16927" stroke-miterlimit="10" fill="none" transform="matrix(1.06003 0 -0 1 747.308 71.1389)"/><path d="M-1.75388 0 1.75388 0" stroke="#BF00BF" stroke-width="1.16927" stroke-miterlimit="10" fill="none" transform="matrix(1.06003 0 -0 1 780.581 174.632)"/><path d="M-1.75388 0 1.75388 0" stroke="#BF00BF" stroke-width="1.16927" stroke-miterlimit="10" fill="none" transform="matrix(1.06003 0 -0 1 813.853 180.884)"/><path d="M-1.75388 0 1.75388 0" stroke="#BF00BF" stroke-width="1.16927" stroke-miterlimit="10" fill="none" transform="matrix(1.06003 0 -0 1 847.126 182.563)"/><path d="M-1.75388 0 1.75388 0" stroke="#BF00BF" stroke-width="1.16927" stroke-miterlimit="10" fill="none" transform="matrix(1.06003 0 -0 1 880.399 186.422)"/><path d="M-1.75388 0 1.75388 0" stroke="#BF00BF" stroke-width="1.16927" stroke-miterlimit="10" fill="none" transform="matrix(1.06003 0 -0 1 913.671 194.692)"/><path d="M-1.75388 0 1.75388 0" stroke="#BF00BF" stroke-width="1.16927" stroke-miterlimit="10" fill="none" transform="matrix(1.06003 0 -0 1 714.035 57.7134)"/><path d="M-1.75388 0 1.75388 0" stroke="#BF00BF" stroke-width="1.16927" stroke-miterlimit="10" fill="none" transform="matrix(1.06003 0 -0 1 747.308 67.597)"/><path d="M-1.75388 0 1.75388 0" stroke="#BF00BF" stroke-width="1.16927" stroke-miterlimit="10" fill="none" transform="matrix(1.06003 0 -0 1 780.581 169.086)"/><path d="M-1.75388 0 1.75388 0" stroke="#BF00BF" stroke-width="1.16927" stroke-miterlimit="10" fill="none" transform="matrix(1.06003 0 -0 1 813.853 178.94)"/><path d="M-1.75388 0 1.75388 0" stroke="#BF00BF" stroke-width="1.16927" stroke-miterlimit="10" fill="none" transform="matrix(1.06003 0 -0 1 847.126 177.504)"/><path d="M-1.75388 0 1.75388 0" stroke="#BF00BF" stroke-width="1.16927" stroke-miterlimit="10" fill="none" transform="matrix(1.06003 0 -0 1 880.399 184.744)"/><path d="M-1.75388 0 1.75388 0" stroke="#BF00BF" stroke-width="1.16927" stroke-miterlimit="10" fill="none" transform="matrix(1.06003 0 -0 1 913.671 193.361)"/><path d="M65.8425 45.6053 65.8425 45.9416" stroke="#FF0000" stroke-width="1.16927" stroke-linejoin="round" stroke-miterlimit="10" fill="none" transform="matrix(1.06003 0 -0 1 648.4 13.3108)"/><path d="M97.2308 56.5412 97.2308 57.1612" stroke="#FF0000" stroke-width="1.16927" stroke-linejoin="round" stroke-miterlimit="10" fill="none" transform="matrix(1.06003 0 -0 1 648.4 13.3108)"/><path d="M128.619 159.884 128.619 160.317" stroke="#FF0000" stroke-width="1.16927" stroke-linejoin="round" stroke-miterlimit="10" fill="none" transform="matrix(1.06003 0 -0 1 648.4 13.3108)"/><path d="M160.007 166.036 160.007 166.261" stroke="#FF0000" stroke-width="1.16927" stroke-linejoin="round" stroke-miterlimit="10" fill="none" transform="matrix(1.06003 0 -0 1 648.4 13.3108)"/><path d="M191.396 167.409 191.396 167.767" stroke="#FF0000" stroke-width="1.16927" stroke-linejoin="round" stroke-miterlimit="10" fill="none" transform="matrix(1.06003 0 -0 1 648.4 13.3108)"/><path d="M222.785 173.134 222.785 173.267" stroke="#FF0000" stroke-width="1.16927" stroke-linejoin="round" stroke-miterlimit="10" fill="none" transform="matrix(1.06003 0 -0 1 648.4 13.3108)"/><path d="M254.173 180.55 254.173 180.84" stroke="#FF0000" stroke-width="1.16927" stroke-linejoin="round" stroke-miterlimit="10" fill="none" transform="matrix(1.06003 0 -0 1 648.4 13.3108)"/><path d="M65.8425 45.6053 65.8425 45.2686" stroke="#FF0000" stroke-width="1.16927" stroke-linejoin="round" stroke-miterlimit="10" fill="none" transform="matrix(1.06003 0 -0 1 648.4 13.3108)"/><path d="M97.2308 56.5412 97.2308 55.9216" stroke="#FF0000" stroke-width="1.16927" stroke-linejoin="round" stroke-miterlimit="10" fill="none" transform="matrix(1.06003 0 -0 1 648.4 13.3108)"/><path d="M128.619 159.884 128.619 159.451" stroke="#FF0000" stroke-width="1.16927" stroke-linejoin="round" stroke-miterlimit="10" fill="none" transform="matrix(1.06003 0 -0 1 648.4 13.3108)"/><path d="M160.007 166.036 160.007 165.81" stroke="#FF0000" stroke-width="1.16927" stroke-linejoin="round" stroke-miterlimit="10" fill="none" transform="matrix(1.06003 0 -0 1 648.4 13.3108)"/><path d="M191.396 167.409 191.396 167.051" stroke="#FF0000" stroke-width="1.16927" stroke-linejoin="round" stroke-miterlimit="10" fill="none" transform="matrix(1.06003 0 -0 1 648.4 13.3108)"/><path d="M222.785 173.134 222.785 173.001" stroke="#FF0000" stroke-width="1.16927" stroke-linejoin="round" stroke-miterlimit="10" fill="none" transform="matrix(1.06003 0 -0 1 648.4 13.3108)"/><path d="M254.173 180.55 254.173 180.259" stroke="#FF0000" stroke-width="1.16927" stroke-linejoin="round" stroke-miterlimit="10" fill="none" transform="matrix(1.06003 0 -0 1 648.4 13.3108)"/><path d="M1.36413 0C1.36413 0.753385 0.753385 1.36413-1.82317e-08 1.36413-0.753385 1.36413-1.36413 0.753385-1.36413-1.82317e-08-1.36413-0.753385-0.753385-1.36413 1.82317e-08-1.36413 0.753385-1.36413 1.36413-0.753385 1.36413 0Z" fill="#FF0000" transform="matrix(1.06003 0 -0 1 718.195 58.9161)"/><path d="M1.36413 0C1.36413 0.753385 0.753385 1.36413-1.82317e-08 1.36413-0.753385 1.36413-1.36413 0.753385-1.36413-1.82317e-08-1.36413-0.753385-0.753385-1.36413 1.82317e-08-1.36413 0.753385-1.36413 1.36413-0.753385 1.36413 0Z" fill="#FF0000" transform="matrix(1.06003 0 -0 1 751.467 69.852)"/><path d="M1.36413 0C1.36413 0.753385 0.753385 1.36413-1.82317e-08 1.36413-0.753385 1.36413-1.36413 0.753385-1.36413-1.82317e-08-1.36413-0.753385-0.753385-1.36413 1.82317e-08-1.36413 0.753385-1.36413 1.36413-0.753385 1.36413 0Z" fill="#FF0000" transform="matrix(1.06003 0 -0 1 784.74 173.195)"/><path d="M1.36413 0C1.36413 0.753385 0.753385 1.36413-1.82317e-08 1.36413-0.753385 1.36413-1.36413 0.753385-1.36413-1.82317e-08-1.36413-0.753385-0.753385-1.36413 1.82317e-08-1.36413 0.753385-1.36413 1.36413-0.753385 1.36413 0Z" fill="#FF0000" transform="matrix(1.06003 0 -0 1 818.012 179.347)"/><path d="M1.36413 0C1.36413 0.753385 0.753385 1.36413-1.82317e-08 1.36413-0.753385 1.36413-1.36413 0.753385-1.36413-1.82317e-08-1.36413-0.753385-0.753385-1.36413 1.82317e-08-1.36413 0.753385-1.36413 1.36413-0.753385 1.36413 0Z" fill="#FF0000" transform="matrix(1.06003 0 -0 1 851.285 180.72)"/><path d="M1.36413 0C1.36413 0.753385 0.753385 1.36413-1.82317e-08 1.36413-0.753385 1.36413-1.36413 0.753385-1.36413-1.82317e-08-1.36413-0.753385-0.753385-1.36413 1.82317e-08-1.36413 0.753385-1.36413 1.36413-0.753385 1.36413 0Z" fill="#FF0000" transform="matrix(1.06003 0 -0 1 884.558 186.445)"/><path d="M1.36413 0C1.36413 0.753385 0.753385 1.36413-1.82317e-08 1.36413-0.753385 1.36413-1.36413 0.753385-1.36413-1.82317e-08-1.36413-0.753385-0.753385-1.36413 1.82317e-08-1.36413 0.753385-1.36413 1.36413-0.753385 1.36413 0Z" fill="#FF0000" transform="matrix(1.06003 0 -0 1 917.83 193.861)"/><path d="M-1.75388 0 1.75388 0" stroke="#FF0000" stroke-width="1.16927" stroke-miterlimit="10" fill="none" transform="matrix(1.06003 0 -0 1 718.195 59.2524)"/><path d="M-1.75388 0 1.75388 0" stroke="#FF0000" stroke-width="1.16927" stroke-miterlimit="10" fill="none" transform="matrix(1.06003 0 -0 1 751.467 70.472)"/><path d="M-1.75388 0 1.75388 0" stroke="#FF0000" stroke-width="1.16927" stroke-miterlimit="10" fill="none" transform="matrix(1.06003 0 -0 1 784.74 173.627)"/><path d="M-1.75388 0 1.75388 0" stroke="#FF0000" stroke-width="1.16927" stroke-miterlimit="10" fill="none" transform="matrix(1.06003 0 -0 1 818.012 179.572)"/><path d="M-1.75388 0 1.75388 0" stroke="#FF0000" stroke-width="1.16927" stroke-miterlimit="10" fill="none" transform="matrix(1.06003 0 -0 1 851.285 181.077)"/><path d="M-1.75388 0 1.75388 0" stroke="#FF0000" stroke-width="1.16927" stroke-miterlimit="10" fill="none" transform="matrix(1.06003 0 -0 1 884.558 186.578)"/><path d="M-1.75388 0 1.75388 0" stroke="#FF0000" stroke-width="1.16927" stroke-miterlimit="10" fill="none" transform="matrix(1.06003 0 -0 1 917.83 194.151)"/><path d="M-1.75388 0 1.75388 0" stroke="#FF0000" stroke-width="1.16927" stroke-miterlimit="10" fill="none" transform="matrix(1.06003 0 -0 1 718.195 58.5794)"/><path d="M-1.75388 0 1.75388 0" stroke="#FF0000" stroke-width="1.16927" stroke-miterlimit="10" fill="none" transform="matrix(1.06003 0 -0 1 751.467 69.2325)"/><path d="M-1.75388 0 1.75388 0" stroke="#FF0000" stroke-width="1.16927" stroke-miterlimit="10" fill="none" transform="matrix(1.06003 0 -0 1 784.74 172.761)"/><path d="M-1.75388 0 1.75388 0" stroke="#FF0000" stroke-width="1.16927" stroke-miterlimit="10" fill="none" transform="matrix(1.06003 0 -0 1 818.012 179.121)"/><path d="M-1.75388 0 1.75388 0" stroke="#FF0000" stroke-width="1.16927" stroke-miterlimit="10" fill="none" transform="matrix(1.06003 0 -0 1 851.285 180.362)"/><path d="M-1.75388 0 1.75388 0" stroke="#FF0000" stroke-width="1.16927" stroke-miterlimit="10" fill="none" transform="matrix(1.06003 0 -0 1 884.558 186.312)"/><path d="M-1.75388 0 1.75388 0" stroke="#FF0000" stroke-width="1.16927" stroke-miterlimit="10" fill="none" transform="matrix(1.06003 0 -0 1 917.83 193.57)"/><path d="M69.7659 46.0946 69.7659 46.1236" stroke="#000000" stroke-width="1.16927" stroke-linejoin="round" stroke-miterlimit="10" fill="none" transform="matrix(1.06003 0 -0 1 648.4 13.3108)"/><path d="M101.154 56.7258 101.154 57.0564" stroke="#000000" stroke-width="1.16927" stroke-linejoin="round" stroke-miterlimit="10" fill="none" transform="matrix(1.06003 0 -0 1 648.4 13.3108)"/><path d="M132.543 159.604 132.543 159.936" stroke="#000000" stroke-width="1.16927" stroke-linejoin="round" stroke-miterlimit="10" fill="none" transform="matrix(1.06003 0 -0 1 648.4 13.3108)"/><path d="M163.931 166.074 163.931 166.146" stroke="#000000" stroke-width="1.16927" stroke-linejoin="round" stroke-miterlimit="10" fill="none" transform="matrix(1.06003 0 -0 1 648.4 13.3108)"/><path d="M195.32 166.807 195.32 167.032" stroke="#000000" stroke-width="1.16927" stroke-linejoin="round" stroke-miterlimit="10" fill="none" transform="matrix(1.06003 0 -0 1 648.4 13.3108)"/><path d="M226.708 173.052 226.708 173.239" stroke="#000000" stroke-width="1.16927" stroke-linejoin="round" stroke-miterlimit="10" fill="none" transform="matrix(1.06003 0 -0 1 648.4 13.3108)"/><path d="M258.096 180.62 258.096 180.659" stroke="#000000" stroke-width="1.16927" stroke-linejoin="round" stroke-miterlimit="10" fill="none" transform="matrix(1.06003 0 -0 1 648.4 13.3108)"/><path d="M69.7659 46.0946 69.7659 46.0648" stroke="#000000" stroke-width="1.16927" stroke-linejoin="round" stroke-miterlimit="10" fill="none" transform="matrix(1.06003 0 -0 1 648.4 13.3108)"/><path d="M101.154 56.7258 101.154 56.3947" stroke="#000000" stroke-width="1.16927" stroke-linejoin="round" stroke-miterlimit="10" fill="none" transform="matrix(1.06003 0 -0 1 648.4 13.3108)"/><path d="M132.543 159.604 132.543 159.271" stroke="#000000" stroke-width="1.16927" stroke-linejoin="round" stroke-miterlimit="10" fill="none" transform="matrix(1.06003 0 -0 1 648.4 13.3108)"/><path d="M163.931 166.074 163.931 166.002" stroke="#000000" stroke-width="1.16927" stroke-linejoin="round" stroke-miterlimit="10" fill="none" transform="matrix(1.06003 0 -0 1 648.4 13.3108)"/><path d="M195.32 166.807 195.32 166.582" stroke="#000000" stroke-width="1.16927" stroke-linejoin="round" stroke-miterlimit="10" fill="none" transform="matrix(1.06003 0 -0 1 648.4 13.3108)"/><path d="M226.708 173.052 226.708 172.866" stroke="#000000" stroke-width="1.16927" stroke-linejoin="round" stroke-miterlimit="10" fill="none" transform="matrix(1.06003 0 -0 1 648.4 13.3108)"/><path d="M258.096 180.62 258.096 180.581" stroke="#000000" stroke-width="1.16927" stroke-linejoin="round" stroke-miterlimit="10" fill="none" transform="matrix(1.06003 0 -0 1 648.4 13.3108)"/><path d="M1.36413 0C1.36413 0.753385 0.753385 1.36413-1.82317e-08 1.36413-0.753385 1.36413-1.36413 0.753385-1.36413-1.82317e-08-1.36413-0.753385-0.753385-1.36413 1.82317e-08-1.36413 0.753385-1.36413 1.36413-0.753385 1.36413 0Z" transform="matrix(1.06003 0 -0 1 722.354 59.4055)"/><path d="M1.36413 0C1.36413 0.753385 0.753385 1.36413-1.82317e-08 1.36413-0.753385 1.36413-1.36413 0.753385-1.36413-1.82317e-08-1.36413-0.753385-0.753385-1.36413 1.82317e-08-1.36413 0.753385-1.36413 1.36413-0.753385 1.36413 0Z" transform="matrix(1.06003 0 -0 1 755.626 70.0366)"/><path d="M1.36413 0C1.36413 0.753385 0.753385 1.36413-1.82317e-08 1.36413-0.753385 1.36413-1.36413 0.753385-1.36413-1.82317e-08-1.36413-0.753385-0.753385-1.36413 1.82317e-08-1.36413 0.753385-1.36413 1.36413-0.753385 1.36413 0Z" transform="matrix(1.06003 0 -0 1 788.899 172.914)"/><path d="M1.36413 0C1.36413 0.753385 0.753385 1.36413-1.82317e-08 1.36413-0.753385 1.36413-1.36413 0.753385-1.36413-1.82317e-08-1.36413-0.753385-0.753385-1.36413 1.82317e-08-1.36413 0.753385-1.36413 1.36413-0.753385 1.36413 0Z" transform="matrix(1.06003 0 -0 1 822.172 179.385)"/><path d="M1.36413 0C1.36413 0.753385 0.753385 1.36413-1.82317e-08 1.36413-0.753385 1.36413-1.36413 0.753385-1.36413-1.82317e-08-1.36413-0.753385-0.753385-1.36413 1.82317e-08-1.36413 0.753385-1.36413 1.36413-0.753385 1.36413 0Z" transform="matrix(1.06003 0 -0 1 855.444 180.118)"/><path d="M1.36413 0C1.36413 0.753385 0.753385 1.36413-1.82317e-08 1.36413-0.753385 1.36413-1.36413 0.753385-1.36413-1.82317e-08-1.36413-0.753385-0.753385-1.36413 1.82317e-08-1.36413 0.753385-1.36413 1.36413-0.753385 1.36413 0Z" transform="matrix(1.06003 0 -0 1 888.717 186.363)"/><path d="M1.36413 0C1.36413 0.753385 0.753385 1.36413-1.82317e-08 1.36413-0.753385 1.36413-1.36413 0.753385-1.36413-1.82317e-08-1.36413-0.753385-0.753385-1.36413 1.82317e-08-1.36413 0.753385-1.36413 1.36413-0.753385 1.36413 0Z" transform="matrix(1.06003 0 -0 1 921.989 193.93)"/><path d="M-1.75388 0 1.75388 0" stroke="#000000" stroke-width="1.16927" stroke-miterlimit="10" fill="none" transform="matrix(1.06003 0 -0 1 722.354 59.4344)"/><path d="M-1.75388 0 1.75388 0" stroke="#000000" stroke-width="1.16927" stroke-miterlimit="10" fill="none" transform="matrix(1.06003 0 -0 1 755.626 70.3672)"/><path d="M-1.75388 0 1.75388 0" stroke="#000000" stroke-width="1.16927" stroke-miterlimit="10" fill="none" transform="matrix(1.06003 0 -0 1 788.899 173.247)"/><path d="M-1.75388 0 1.75388 0" stroke="#000000" stroke-width="1.16927" stroke-miterlimit="10" fill="none" transform="matrix(1.06003 0 -0 1 822.172 179.457)"/><path d="M-1.75388 0 1.75388 0" stroke="#000000" stroke-width="1.16927" stroke-miterlimit="10" fill="none" transform="matrix(1.06003 0 -0 1 855.444 180.343)"/><path d="M-1.75388 0 1.75388 0" stroke="#000000" stroke-width="1.16927" stroke-miterlimit="10" fill="none" transform="matrix(1.06003 0 -0 1 888.717 186.55)"/><path d="M-1.75388 0 1.75388 0" stroke="#000000" stroke-width="1.16927" stroke-miterlimit="10" fill="none" transform="matrix(1.06003 0 -0 1 921.989 193.969)"/><path d="M-1.75388 0 1.75388 0" stroke="#000000" stroke-width="1.16927" stroke-miterlimit="10" fill="none" transform="matrix(1.06003 0 -0 1 722.354 59.3757)"/><path d="M-1.75388 0 1.75388 0" stroke="#000000" stroke-width="1.16927" stroke-miterlimit="10" fill="none" transform="matrix(1.06003 0 -0 1 755.626 69.7056)"/><path d="M-1.75388 0 1.75388 0" stroke="#000000" stroke-width="1.16927" stroke-miterlimit="10" fill="none" transform="matrix(1.06003 0 -0 1 788.899 172.582)"/><path d="M-1.75388 0 1.75388 0" stroke="#000000" stroke-width="1.16927" stroke-miterlimit="10" fill="none" transform="matrix(1.06003 0 -0 1 822.172 179.313)"/><path d="M-1.75388 0 1.75388 0" stroke="#000000" stroke-width="1.16927" stroke-miterlimit="10" fill="none" transform="matrix(1.06003 0 -0 1 855.444 179.893)"/><path d="M-1.75388 0 1.75388 0" stroke="#000000" stroke-width="1.16927" stroke-miterlimit="10" fill="none" transform="matrix(1.06003 0 -0 1 888.717 186.176)"/><path d="M-1.75388 0 1.75388 0" stroke="#000000" stroke-width="1.16927" stroke-miterlimit="10" fill="none" transform="matrix(1.06003 0 -0 1 921.989 193.891)"/><path d="M263.082 73.2245 263.082 21.9235 205.204 21.9235 205.204 73.2245Z" fill="#FFFFFF" transform="matrix(1.06003 0 -0 1 648.4 13.3108)"/><text font-family="Arial,Arial_MSFontService,sans-serif" font-weight="700" font-size="24" transform="matrix(0.464791 0 0 0.43847 887.767 46)">100</text><path d="M-1.75388 0 1.75388 0" stroke="#0000FF" stroke-width="1.16927" stroke-miterlimit="10" fill="none" transform="matrix(1.06003 0 -0 1 877.077 46.8044)"/><path d="M-1.75388 0 1.75388 0" stroke="#0000FF" stroke-width="1.16927" stroke-miterlimit="10" fill="none" transform="matrix(1.06003 0 -0 1 877.077 37.6357)"/><path d="M215.727 33.4935 215.727 24.3248" stroke="#0000FF" stroke-width="1.16927" stroke-linejoin="round" stroke-miterlimit="10" fill="none" transform="matrix(1.06003 0 -0 1 648.4 13.3108)"/><path d="M1.36413 0C1.36413 0.753385 0.753385 1.36413-1.82317e-08 1.36413-0.753385 1.36413-1.36413 0.753385-1.36413-1.82317e-08-1.36413-0.753385-0.753385-1.36413 1.82317e-08-1.36413 0.753385-1.36413 1.36413-0.753385 1.36413 0Z" fill="#0000FF" transform="matrix(1.06003 0 -0 1 877.077 42.22)"/><text font-family="Arial,Arial_MSFontService,sans-serif" font-weight="700" font-size="24" transform="matrix(0.464791 0 0 0.43847 887.767 59)">1000</text><path d="M-1.75388 0 1.75388 0" stroke="#BF00BF" stroke-width="1.16927" stroke-miterlimit="10" fill="none" transform="matrix(1.06003 0 -0 1 877.077 59.2476)"/><path d="M-1.75388 0 1.75388 0" stroke="#BF00BF" stroke-width="1.16927" stroke-miterlimit="10" fill="none" transform="matrix(1.06003 0 -0 1 877.077 50.0789)"/><path d="M215.727 45.9368 215.727 36.7681" stroke="#BF00BF" stroke-width="1.16927" stroke-linejoin="round" stroke-miterlimit="10" fill="none" transform="matrix(1.06003 0 -0 1 648.4 13.3108)"/><path d="M1.36413 0C1.36413 0.753385 0.753385 1.36413-1.82317e-08 1.36413-0.753385 1.36413-1.36413 0.753385-1.36413-1.82317e-08-1.36413-0.753385-0.753385-1.36413 1.82317e-08-1.36413 0.753385-1.36413 1.36413-0.753385 1.36413 0Z" fill="#BF00BF" transform="matrix(1.06003 0 -0 1 877.077 54.6632)"/><text font-family="Arial,Arial_MSFontService,sans-serif" font-weight="700" font-size="24" transform="matrix(0.464791 0 0 0.43847 887.767 71)">10000</text><path d="M-1.75388 0 1.75388 0" stroke="#FF0000" stroke-width="1.16927" stroke-miterlimit="10" fill="none" transform="matrix(1.06003 0 -0 1 877.077 71.691)"/><path d="M-1.75388 0 1.75388 0" stroke="#FF0000" stroke-width="1.16927" stroke-miterlimit="10" fill="none" transform="matrix(1.06003 0 -0 1 877.077 62.5221)"/><path d="M215.727 58.3801 215.727 49.2113" stroke="#FF0000" stroke-width="1.16927" stroke-linejoin="round" stroke-miterlimit="10" fill="none" transform="matrix(1.06003 0 -0 1 648.4 13.3108)"/><path d="M1.36413 0C1.36413 0.753385 0.753385 1.36413-1.82317e-08 1.36413-0.753385 1.36413-1.36413 0.753385-1.36413-1.82317e-08-1.36413-0.753385-0.753385-1.36413 1.82317e-08-1.36413 0.753385-1.36413 1.36413-0.753385 1.36413 0Z" fill="#FF0000" transform="matrix(1.06003 0 -0 1 877.077 67.1063)"/><text font-family="Arial,Arial_MSFontService,sans-serif" font-weight="700" font-size="24" transform="matrix(0.464791 0 0 0.43847 887.767 83)">100000</text><path d="M-1.75388 0 1.75388 0" stroke="#000000" stroke-width="1.16927" stroke-miterlimit="10" fill="none" transform="matrix(1.06003 0 -0 1 877.077 84.1339)"/><path d="M-1.75388 0 1.75388 0" stroke="#000000" stroke-width="1.16927" stroke-miterlimit="10" fill="none" transform="matrix(1.06003 0 -0 1 877.077 74.9655)"/><path d="M215.727 70.823 215.727 61.6546" stroke="#000000" stroke-width="1.16927" stroke-linejoin="round" stroke-miterlimit="10" fill="none" transform="matrix(1.06003 0 -0 1 648.4 13.3108)"/><path d="M1.36413 0C1.36413 0.753385 0.753385 1.36413-1.82317e-08 1.36413-0.753385 1.36413-1.36413 0.753385-1.36413-1.82317e-08-1.36413-0.753385-0.753385-1.36413 1.82317e-08-1.36413 0.753385-1.36413 1.36413-0.753385 1.36413 0Z" transform="matrix(1.06003 0 -0 1 877.077 79.5497)"/><path d="M205.204 73.2245 205.204 21.9235 263.082 21.9235 263.082 73.2245Z" stroke="#262626" stroke-width="0.292328" stroke-miterlimit="10" fill="none" fill-rule="evenodd" transform="matrix(1.06003 0 -0 1 648.4 13.3108)"/></g></g></g><path d="M0 0 0.000104987 173.117" stroke="#FF0000" stroke-miterlimit="8" stroke-dasharray="3 1" fill="none" fill-rule="evenodd" transform="matrix(1 0 0 -1 828.5 201.617)"/><text font-family="Arial,Arial_MSFontService,sans-serif" font-weight="700" font-size="19" transform="translate(793.772 50)">GRHL2</text><g clip-path="url(#clip5)"><g clip-path="url(#clip6)"><g clip-path="url(#clip7)"><g clip-path="url(#clip8)"><path d="M0 0 306.903 0 306.903 226.822 0 226.822Z" fill="#FFFFFF" transform="matrix(1.01326 0 -0 1 649.699 15.1761)"/></g><path d="M0 0 306.903 0 306.903 226.822 0 226.822Z" fill="#FFFFFF" transform="matrix(1.01326 0 -0 1 649.699 15.1761)"/><path d="M39.8168 183.426 277.823 183.426 277.823 17.0004 39.8168 17.0004Z" fill="#FFFFFF" transform="matrix(1.01326 0 -0 1 649.699 15.1761)"/><path d="M39.8168 183.426 277.823 183.426" stroke="#262626" stroke-width="0.298268" stroke-linecap="square" stroke-linejoin="round" stroke-miterlimit="10" fill="none" transform="matrix(1.01326 0 -0 1 649.699 15.1761)"/><path d="M39.8168 17.0004 277.823 17.0004" stroke="#262626" stroke-width="0.298268" stroke-linecap="square" stroke-linejoin="round" stroke-miterlimit="10" fill="none" transform="matrix(1.01326 0 -0 1 649.699 15.1761)"/><path d="M77.0948 183.426 77.0948 181.046" stroke="#262626" stroke-width="0.298268" stroke-linecap="square" stroke-linejoin="round" stroke-miterlimit="10" fill="none" transform="matrix(1.01326 0 -0 1 649.699 15.1761)"/><path d="M134.446 183.426 134.446 181.046" stroke="#262626" stroke-width="0.298268" stroke-linecap="square" stroke-linejoin="round" stroke-miterlimit="10" fill="none" transform="matrix(1.01326 0 -0 1 649.699 15.1761)"/><path d="M191.797 183.426 191.797 181.046" stroke="#262626" stroke-width="0.298268" stroke-linecap="square" stroke-linejoin="round" stroke-miterlimit="10" fill="none" transform="matrix(1.01326 0 -0 1 649.699 15.1761)"/><path d="M249.148 183.426 249.148 181.046" stroke="#262626" stroke-width="0.298268" stroke-linecap="square" stroke-linejoin="round" stroke-miterlimit="10" fill="none" transform="matrix(1.01326 0 -0 1 649.699 15.1761)"/><path d="M77.0948 17.0004 77.0948 19.3805" stroke="#262626" stroke-width="0.298268" stroke-linecap="square" stroke-linejoin="round" stroke-miterlimit="10" fill="none" transform="matrix(1.01326 0 -0 1 649.699 15.1761)"/><path d="M134.446 17.0004 134.446 19.3805" stroke="#262626" stroke-width="0.298268" stroke-linecap="square" stroke-linejoin="round" stroke-miterlimit="10" fill="none" transform="matrix(1.01326 0 -0 1 649.699 15.1761)"/><path d="M191.797 17.0004 191.797 19.3805" stroke="#262626" stroke-width="0.298268" stroke-linecap="square" stroke-linejoin="round" stroke-miterlimit="10" fill="none" transform="matrix(1.01326 0 -0 1 649.699 15.1761)"/><path d="M249.148 17.0004 249.148 19.3805" stroke="#262626" stroke-width="0.298268" stroke-linecap="square" stroke-linejoin="round" stroke-miterlimit="10" fill="none" transform="matrix(1.01326 0 -0 1 649.699 15.1761)"/><text fill="#262626" font-family="Arial,Arial_MSFontService,sans-serif" font-weight="700" font-size="27" transform="matrix(0.320542 -0.316346 0.320542 0.316346 721.405 224)">011<tspan x="90.6461" y="90.6461">100</tspan><tspan x="181.292" y="181.292">001</tspan><tspan x="271.938" y="271.938">110</tspan></text><text fill="#262626" font-family="Arial,Arial_MSFontService,sans-serif" font-weight="700" font-size="29" transform="matrix(0.453314 0 0 0.44738 685.057 239)">Steady states <tspan x="195" y="0">[</tspan>'<tspan x="212" y="0">ZEB</tspan><tspan x="269" y="0">', '</tspan>miR<tspan x="354" y="0">200</tspan><tspan x="402" y="0">', '</tspan>GRHL<tspan x="515" y="0">2</tspan><tspan x="531" y="0">'</tspan><tspan x="538" y="0">]</tspan></text><path d="M39.8168 183.426 39.8168 17.0004" stroke="#262626" stroke-width="0.298268" stroke-linecap="square" stroke-linejoin="round" stroke-miterlimit="10" fill="none" transform="matrix(1.01326 0 -0 1 649.699 15.1761)"/><path d="M277.823 183.426 277.823 17.0004" stroke="#262626" stroke-width="0.298268" stroke-linecap="square" stroke-linejoin="round" stroke-miterlimit="10" fill="none" transform="matrix(1.01326 0 -0 1 649.699 15.1761)"/><path d="M39.8168 183.426 42.1969 183.426" stroke="#262626" stroke-width="0.298268" stroke-linecap="square" stroke-linejoin="round" stroke-miterlimit="10" fill="none" transform="matrix(1.01326 0 -0 1 649.699 15.1761)"/><path d="M39.8168 148.754 42.1969 148.754" stroke="#262626" stroke-width="0.298268" stroke-linecap="square" stroke-linejoin="round" stroke-miterlimit="10" fill="none" transform="matrix(1.01326 0 -0 1 649.699 15.1761)"/><path d="M39.8168 114.082 42.1969 114.082" stroke="#262626" stroke-width="0.298268" stroke-linecap="square" stroke-linejoin="round" stroke-miterlimit="10" fill="none" transform="matrix(1.01326 0 -0 1 649.699 15.1761)"/><path d="M39.8168 79.41 42.1969 79.41" stroke="#262626" stroke-width="0.298268" stroke-linecap="square" stroke-linejoin="round" stroke-miterlimit="10" fill="none" transform="matrix(1.01326 0 -0 1 649.699 15.1761)"/><path d="M39.8168 44.738 42.1969 44.738" stroke="#262626" stroke-width="0.298268" stroke-linecap="square" stroke-linejoin="round" stroke-miterlimit="10" fill="none" transform="matrix(1.01326 0 -0 1 649.699 15.1761)"/><path d="M277.823 183.426 275.443 183.426" stroke="#262626" stroke-width="0.298268" stroke-linecap="square" stroke-linejoin="round" stroke-miterlimit="10" fill="none" transform="matrix(1.01326 0 -0 1 649.699 15.1761)"/><path d="M277.823 148.754 275.443 148.754" stroke="#262626" stroke-width="0.298268" stroke-linecap="square" stroke-linejoin="round" stroke-miterlimit="10" fill="none" transform="matrix(1.01326 0 -0 1 649.699 15.1761)"/><path d="M277.823 114.082 275.443 114.082" stroke="#262626" stroke-width="0.298268" stroke-linecap="square" stroke-linejoin="round" stroke-miterlimit="10" fill="none" transform="matrix(1.01326 0 -0 1 649.699 15.1761)"/><path d="M277.823 79.41 275.443 79.41" stroke="#262626" stroke-width="0.298268" stroke-linecap="square" stroke-linejoin="round" stroke-miterlimit="10" fill="none" transform="matrix(1.01326 0 -0 1 649.699 15.1761)"/><path d="M277.823 44.738 275.443 44.738" stroke="#262626" stroke-width="0.298268" stroke-linecap="square" stroke-linejoin="round" stroke-miterlimit="10" fill="none" transform="matrix(1.01326 0 -0 1 649.699 15.1761)"/><text fill="#262626" font-family="Arial,Arial_MSFontService,sans-serif" font-weight="700" font-size="27" transform="matrix(0.453314 0 0 0.44738 679.617 203)">0<tspan x="-23" y="-78.2333">0</tspan><tspan x="-7.9999" y="-78.2333">.</tspan><tspan x="0" y="-78.2333">1</tspan><tspan x="-23" y="-154.231">0</tspan><tspan x="-7.9999" y="-154.231">.</tspan><tspan x="0" y="-154.231">2</tspan><tspan x="-23" y="-232.465">0</tspan><tspan x="-7.9999" y="-232.465">.</tspan><tspan x="0" y="-232.465">3</tspan><tspan x="-23" y="-310.698">0</tspan><tspan x="-7.9999" y="-310.698">.</tspan><tspan x="0" y="-310.698">4</tspan></text><text fill="#262626" font-family="Arial,Arial_MSFontService,sans-serif" font-weight="700" font-size="29" transform="matrix(2.77575e-17 -0.44738 0.453314 2.73941e-17 664.658 149)">Frequency</text><path d="M59.8899 36.9711 59.8899 52.415" stroke="#0000FF" stroke-width="1.19303" stroke-linejoin="round" stroke-miterlimit="10" fill="none" transform="matrix(1.01326 0 -0 1 649.699 15.1761)"/><path d="M117.24 46.583 117.24 61.6879" stroke="#0000FF" stroke-width="1.19303" stroke-linejoin="round" stroke-miterlimit="10" fill="none" transform="matrix(1.01326 0 -0 1 649.699 15.1761)"/><path d="M174.591 150.942 174.591 158.949" stroke="#0000FF" stroke-width="1.19303" stroke-linejoin="round" stroke-miterlimit="10" fill="none" transform="matrix(1.01326 0 -0 1 649.699 15.1761)"/><path d="M231.942 155.062 231.942 168.69" stroke="#0000FF" stroke-width="1.19303" stroke-linejoin="round" stroke-miterlimit="10" fill="none" transform="matrix(1.01326 0 -0 1 649.699 15.1761)"/><path d="M59.8899 36.9711 59.8899 21.527" stroke="#0000FF" stroke-width="1.19303" stroke-linejoin="round" stroke-miterlimit="10" fill="none" transform="matrix(1.01326 0 -0 1 649.699 15.1761)"/><path d="M117.24 46.583 117.24 31.4786" stroke="#0000FF" stroke-width="1.19303" stroke-linejoin="round" stroke-miterlimit="10" fill="none" transform="matrix(1.01326 0 -0 1 649.699 15.1761)"/><path d="M174.591 150.942 174.591 142.936" stroke="#0000FF" stroke-width="1.19303" stroke-linejoin="round" stroke-miterlimit="10" fill="none" transform="matrix(1.01326 0 -0 1 649.699 15.1761)"/><path d="M231.942 155.062 231.942 141.434" stroke="#0000FF" stroke-width="1.19303" stroke-linejoin="round" stroke-miterlimit="10" fill="none" transform="matrix(1.01326 0 -0 1 649.699 15.1761)"/><path d="M1.74975 0C1.74975 0.966359 0.966359 1.74975-3.99349e-08 1.74975-0.966359 1.74975-1.74975 0.966359-1.74975-3.99349e-08-1.74975-0.966359-0.966359-1.74975-6.67288e-08-1.74975 0.966359-1.74975 1.74975-0.966359 1.74975 0Z" fill="#0000FF" transform="matrix(1.01326 0 -0 1 710.383 52.1472)"/><path d="M1.74975 0C1.74975 0.966359 0.966359 1.74975-3.99349e-08 1.74975-0.966359 1.74975-1.74975 0.966359-1.74975-3.99349e-08-1.74975-0.966359-0.966359-1.74975-6.67288e-08-1.74975 0.966359-1.74975 1.74975-0.966359 1.74975 0Z" stroke="#0000FF" stroke-width="1.19303" stroke-miterlimit="10" fill="none" transform="matrix(1.01326 0 -0 1 710.383 52.1472)"/><path d="M1.74975 0C1.74975 0.966359 0.966359 1.74975-3.99349e-08 1.74975-0.966359 1.74975-1.74975 0.966359-1.74975-3.99349e-08-1.74975-0.966359-0.966359-1.74975-6.67288e-08-1.74975 0.966359-1.74975 1.74975-0.966359 1.74975 0Z" fill="#0000FF" transform="matrix(1.01326 0 -0 1 768.494 61.7591)"/><path d="M1.74975 0C1.74975 0.966359 0.966359 1.74975-3.99349e-08 1.74975-0.966359 1.74975-1.74975 0.966359-1.74975-3.99349e-08-1.74975-0.966359-0.966359-1.74975-6.67288e-08-1.74975 0.966359-1.74975 1.74975-0.966359 1.74975 0Z" stroke="#0000FF" stroke-width="1.19303" stroke-miterlimit="10" fill="none" transform="matrix(1.01326 0 -0 1 768.494 61.7591)"/><path d="M1.74975 0C1.74975 0.966359 0.966359 1.74975-3.99349e-08 1.74975-0.966359 1.74975-1.74975 0.966359-1.74975-3.99349e-08-1.74975-0.966359-0.966359-1.74975-6.67288e-08-1.74975 0.966359-1.74975 1.74975-0.966359 1.74975 0Z" fill="#0000FF" transform="matrix(1.01326 0 -0 1 826.606 166.118)"/><path d="M1.74975 0C1.74975 0.966359 0.966359 1.74975-3.99349e-08 1.74975-0.966359 1.74975-1.74975 0.966359-1.74975-3.99349e-08-1.74975-0.966359-0.966359-1.74975-6.67288e-08-1.74975 0.966359-1.74975 1.74975-0.966359 1.74975 0Z" stroke="#0000FF" stroke-width="1.19303" stroke-miterlimit="10" fill="none" transform="matrix(1.01326 0 -0 1 826.606 166.118)"/><path d="M1.74975 0C1.74975 0.966359 0.966359 1.74975-3.99349e-08 1.74975-0.966359 1.74975-1.74975 0.966359-1.74975-3.99349e-08-1.74975-0.966359-0.966359-1.74975-6.67288e-08-1.74975 0.966359-1.74975 1.74975-0.966359 1.74975 0Z" fill="#0000FF" transform="matrix(1.01326 0 -0 1 884.718 170.238)"/><path d="M1.74975 0C1.74975 0.966359 0.966359 1.74975-3.99349e-08 1.74975-0.966359 1.74975-1.74975 0.966359-1.74975-3.99349e-08-1.74975-0.966359-0.966359-1.74975-6.67288e-08-1.74975 0.966359-1.74975 1.74975-0.966359 1.74975 0Z" stroke="#0000FF" stroke-width="1.19303" stroke-miterlimit="10" fill="none" transform="matrix(1.01326 0 -0 1 884.718 170.238)"/><path d="M-1.78952 0 1.78952 0" stroke="#0000FF" stroke-width="1.19303" stroke-miterlimit="10" fill="none" transform="matrix(1.01326 0 -0 1 710.383 67.5911)"/><path d="M-1.78952 0 1.78952 0" stroke="#0000FF" stroke-width="1.19303" stroke-miterlimit="10" fill="none" transform="matrix(1.01326 0 -0 1 768.494 76.864)"/><path d="M-1.78952 0 1.78952 0" stroke="#0000FF" stroke-width="1.19303" stroke-miterlimit="10" fill="none" transform="matrix(1.01326 0 -0 1 826.606 174.125)"/><path d="M-1.78952 0 1.78952 0" stroke="#0000FF" stroke-width="1.19303" stroke-miterlimit="10" fill="none" transform="matrix(1.01326 0 -0 1 884.718 183.866)"/><path d="M-1.78952 0 1.78952 0" stroke="#0000FF" stroke-width="1.19303" stroke-miterlimit="10" fill="none" transform="matrix(1.01326 0 -0 1 710.383 36.7031)"/><path d="M-1.78952 0 1.78952 0" stroke="#0000FF" stroke-width="1.19303" stroke-miterlimit="10" fill="none" transform="matrix(1.01326 0 -0 1 768.494 46.6546)"/><path d="M-1.78952 0 1.78952 0" stroke="#0000FF" stroke-width="1.19303" stroke-miterlimit="10" fill="none" transform="matrix(1.01326 0 -0 1 826.606 158.112)"/><path d="M-1.78952 0 1.78952 0" stroke="#0000FF" stroke-width="1.19303" stroke-miterlimit="10" fill="none" transform="matrix(1.01326 0 -0 1 884.718 156.61)"/><path d="M68.4921 45.5478 68.4921 51.0461" stroke="#FF00FF" stroke-width="1.19303" stroke-linejoin="round" stroke-miterlimit="10" fill="none" transform="matrix(1.01326 0 -0 1 649.699 15.1761)"/><path d="M125.843 42.2571 125.843 48.2249" stroke="#FF00FF" stroke-width="1.19303" stroke-linejoin="round" stroke-miterlimit="10" fill="none" transform="matrix(1.01326 0 -0 1 649.699 15.1761)"/><path d="M183.194 148.801 183.194 152.604" stroke="#FF00FF" stroke-width="1.19303" stroke-linejoin="round" stroke-miterlimit="10" fill="none" transform="matrix(1.01326 0 -0 1 649.699 15.1761)"/><path d="M240.545 150.637 240.545 152.878" stroke="#FF00FF" stroke-width="1.19303" stroke-linejoin="round" stroke-miterlimit="10" fill="none" transform="matrix(1.01326 0 -0 1 649.699 15.1761)"/><path d="M68.4921 45.5478 68.4921 40.0491" stroke="#FF00FF" stroke-width="1.19303" stroke-linejoin="round" stroke-miterlimit="10" fill="none" transform="matrix(1.01326 0 -0 1 649.699 15.1761)"/><path d="M125.843 42.2571 125.843 36.2893" stroke="#FF00FF" stroke-width="1.19303" stroke-linejoin="round" stroke-miterlimit="10" fill="none" transform="matrix(1.01326 0 -0 1 649.699 15.1761)"/><path d="M183.194 148.801 183.194 144.999" stroke="#FF00FF" stroke-width="1.19303" stroke-linejoin="round" stroke-miterlimit="10" fill="none" transform="matrix(1.01326 0 -0 1 649.699 15.1761)"/><path d="M240.545 150.637 240.545 148.397" stroke="#FF00FF" stroke-width="1.19303" stroke-linejoin="round" stroke-miterlimit="10" fill="none" transform="matrix(1.01326 0 -0 1 649.699 15.1761)"/><path d="M1.74975 0C1.74975 0.966359 0.966359 1.74975-3.99349e-08 1.74975-0.966359 1.74975-1.74975 0.966359-1.74975-3.99349e-08-1.74975-0.966359-0.966359-1.74975-6.67288e-08-1.74975 0.966359-1.74975 1.74975-0.966359 1.74975 0Z" fill="#FF00FF" transform="matrix(1.01326 0 -0 1 719.099 60.7238)"/><path d="M1.74975 0C1.74975 0.966359 0.966359 1.74975-3.99349e-08 1.74975-0.966359 1.74975-1.74975 0.966359-1.74975-3.99349e-08-1.74975-0.966359-0.966359-1.74975-6.67288e-08-1.74975 0.966359-1.74975 1.74975-0.966359 1.74975 0Z" stroke="#FF00FF" stroke-width="1.19303" stroke-miterlimit="10" fill="none" transform="matrix(1.01326 0 -0 1 719.099 60.7238)"/><path d="M1.74975 0C1.74975 0.966359 0.966359 1.74975-3.99349e-08 1.74975-0.966359 1.74975-1.74975 0.966359-1.74975-3.99349e-08-1.74975-0.966359-0.966359-1.74975-6.67288e-08-1.74975 0.966359-1.74975 1.74975-0.966359 1.74975 0Z" fill="#FF00FF" transform="matrix(1.01326 0 -0 1 777.211 57.4332)"/><path d="M1.74975 0C1.74975 0.966359 0.966359 1.74975-3.99349e-08 1.74975-0.966359 1.74975-1.74975 0.966359-1.74975-3.99349e-08-1.74975-0.966359-0.966359-1.74975-6.67288e-08-1.74975 0.966359-1.74975 1.74975-0.966359 1.74975 0Z" stroke="#FF00FF" stroke-width="1.19303" stroke-miterlimit="10" fill="none" transform="matrix(1.01326 0 -0 1 777.211 57.4332)"/><path d="M1.74975 0C1.74975 0.966359 0.966359 1.74975-3.99349e-08 1.74975-0.966359 1.74975-1.74975 0.966359-1.74975-3.99349e-08-1.74975-0.966359-0.966359-1.74975-6.67288e-08-1.74975 0.966359-1.74975 1.74975-0.966359 1.74975 0Z" fill="#FF00FF" transform="matrix(1.01326 0 -0 1 835.323 163.977)"/><path d="M1.74975 0C1.74975 0.966359 0.966359 1.74975-3.99349e-08 1.74975-0.966359 1.74975-1.74975 0.966359-1.74975-3.99349e-08-1.74975-0.966359-0.966359-1.74975-6.67288e-08-1.74975 0.966359-1.74975 1.74975-0.966359 1.74975 0Z" stroke="#FF00FF" stroke-width="1.19303" stroke-miterlimit="10" fill="none" transform="matrix(1.01326 0 -0 1 835.323 163.977)"/><path d="M1.74975 0C1.74975 0.966359 0.966359 1.74975-3.99349e-08 1.74975-0.966359 1.74975-1.74975 0.966359-1.74975-3.99349e-08-1.74975-0.966359-0.966359-1.74975-6.67288e-08-1.74975 0.966359-1.74975 1.74975-0.966359 1.74975 0Z" fill="#FF00FF" transform="matrix(1.01326 0 -0 1 893.434 165.813)"/><path d="M1.74975 0C1.74975 0.966359 0.966359 1.74975-3.99349e-08 1.74975-0.966359 1.74975-1.74975 0.966359-1.74975-3.99349e-08-1.74975-0.966359-0.966359-1.74975-6.67288e-08-1.74975 0.966359-1.74975 1.74975-0.966359 1.74975 0Z" stroke="#FF00FF" stroke-width="1.19303" stroke-miterlimit="10" fill="none" transform="matrix(1.01326 0 -0 1 893.434 165.813)"/><path d="M-1.78952 0 1.78952 0" stroke="#FF00FF" stroke-width="1.19303" stroke-miterlimit="10" fill="none" transform="matrix(1.01326 0 -0 1 719.099 66.2221)"/><path d="M-1.78952 0 1.78952 0" stroke="#FF00FF" stroke-width="1.19303" stroke-miterlimit="10" fill="none" transform="matrix(1.01326 0 -0 1 777.211 63.401)"/><path d="M-1.78952 0 1.78952 0" stroke="#FF00FF" stroke-width="1.19303" stroke-miterlimit="10" fill="none" transform="matrix(1.01326 0 -0 1 835.323 167.78)"/><path d="M-1.78952 0 1.78952 0" stroke="#FF00FF" stroke-width="1.19303" stroke-miterlimit="10" fill="none" transform="matrix(1.01326 0 -0 1 893.434 168.054)"/><path d="M-1.78952 0 1.78952 0" stroke="#FF00FF" stroke-width="1.19303" stroke-miterlimit="10" fill="none" transform="matrix(1.01326 0 -0 1 719.099 55.2252)"/><path d="M-1.78952 0 1.78952 0" stroke="#FF00FF" stroke-width="1.19303" stroke-miterlimit="10" fill="none" transform="matrix(1.01326 0 -0 1 777.211 51.4654)"/><path d="M-1.78952 0 1.78952 0" stroke="#FF00FF" stroke-width="1.19303" stroke-miterlimit="10" fill="none" transform="matrix(1.01326 0 -0 1 835.323 160.176)"/><path d="M-1.78952 0 1.78952 0" stroke="#FF00FF" stroke-width="1.19303" stroke-miterlimit="10" fill="none" transform="matrix(1.01326 0 -0 1 893.434 163.573)"/><path d="M77.0948 42.8013 77.0948 44.8467" stroke="#FF0000" stroke-width="1.19303" stroke-linejoin="round" stroke-miterlimit="10" fill="none" transform="matrix(1.01326 0 -0 1 649.699 15.1761)"/><path d="M134.446 42.5656 134.446 44.2959" stroke="#FF0000" stroke-width="1.19303" stroke-linejoin="round" stroke-miterlimit="10" fill="none" transform="matrix(1.01326 0 -0 1 649.699 15.1761)"/><path d="M191.797 150.696 191.797 152.001" stroke="#FF0000" stroke-width="1.19303" stroke-linejoin="round" stroke-miterlimit="10" fill="none" transform="matrix(1.01326 0 -0 1 649.699 15.1761)"/><path d="M249.148 150.946 249.148 151.881" stroke="#FF0000" stroke-width="1.19303" stroke-linejoin="round" stroke-miterlimit="10" fill="none" transform="matrix(1.01326 0 -0 1 649.699 15.1761)"/><path d="M77.0948 42.8013 77.0948 40.7561" stroke="#FF0000" stroke-width="1.19303" stroke-linejoin="round" stroke-miterlimit="10" fill="none" transform="matrix(1.01326 0 -0 1 649.699 15.1761)"/><path d="M134.446 42.5656 134.446 40.8353" stroke="#FF0000" stroke-width="1.19303" stroke-linejoin="round" stroke-miterlimit="10" fill="none" transform="matrix(1.01326 0 -0 1 649.699 15.1761)"/><path d="M191.797 150.696 191.797 149.392" stroke="#FF0000" stroke-width="1.19303" stroke-linejoin="round" stroke-miterlimit="10" fill="none" transform="matrix(1.01326 0 -0 1 649.699 15.1761)"/><path d="M249.148 150.946 249.148 150.011" stroke="#FF0000" stroke-width="1.19303" stroke-linejoin="round" stroke-miterlimit="10" fill="none" transform="matrix(1.01326 0 -0 1 649.699 15.1761)"/><path d="M1.74975 0C1.74975 0.966359 0.966359 1.74975-3.99349e-08 1.74975-0.966359 1.74975-1.74975 0.966359-1.74975-3.99349e-08-1.74975-0.966359-0.966359-1.74975-6.67288e-08-1.74975 0.966359-1.74975 1.74975-0.966359 1.74975 0Z" fill="#FF0000" transform="matrix(1.01326 0 -0 1 727.816 57.9774)"/><path d="M1.74975 0C1.74975 0.966359 0.966359 1.74975-3.99349e-08 1.74975-0.966359 1.74975-1.74975 0.966359-1.74975-3.99349e-08-1.74975-0.966359-0.966359-1.74975-6.67288e-08-1.74975 0.966359-1.74975 1.74975-0.966359 1.74975 0Z" stroke="#FF0000" stroke-width="1.19303" stroke-miterlimit="10" fill="none" transform="matrix(1.01326 0 -0 1 727.816 57.9774)"/><path d="M1.74975 0C1.74975 0.966359 0.966359 1.74975-3.99349e-08 1.74975-0.966359 1.74975-1.74975 0.966359-1.74975-3.99349e-08-1.74975-0.966359-0.966359-1.74975-6.67288e-08-1.74975 0.966359-1.74975 1.74975-0.966359 1.74975 0Z" fill="#FF0000" transform="matrix(1.01326 0 -0 1 785.928 57.7416)"/><path d="M1.74975 0C1.74975 0.966359 0.966359 1.74975-3.99349e-08 1.74975-0.966359 1.74975-1.74975 0.966359-1.74975-3.99349e-08-1.74975-0.966359-0.966359-1.74975-6.67288e-08-1.74975 0.966359-1.74975 1.74975-0.966359 1.74975 0Z" stroke="#FF0000" stroke-width="1.19303" stroke-miterlimit="10" fill="none" transform="matrix(1.01326 0 -0 1 785.928 57.7416)"/><path d="M1.74975 0C1.74975 0.966359 0.966359 1.74975-3.99349e-08 1.74975-0.966359 1.74975-1.74975 0.966359-1.74975-3.99349e-08-1.74975-0.966359-0.966359-1.74975-6.67288e-08-1.74975 0.966359-1.74975 1.74975-0.966359 1.74975 0Z" fill="#FF0000" transform="matrix(1.01326 0 -0 1 844.039 165.872)"/><path d="M1.74975 0C1.74975 0.966359 0.966359 1.74975-3.99349e-08 1.74975-0.966359 1.74975-1.74975 0.966359-1.74975-3.99349e-08-1.74975-0.966359-0.966359-1.74975-6.67288e-08-1.74975 0.966359-1.74975 1.74975-0.966359 1.74975 0Z" stroke="#FF0000" stroke-width="1.19303" stroke-miterlimit="10" fill="none" transform="matrix(1.01326 0 -0 1 844.039 165.872)"/><path d="M1.74975 0C1.74975 0.966359 0.966359 1.74975-3.99349e-08 1.74975-0.966359 1.74975-1.74975 0.966359-1.74975-3.99349e-08-1.74975-0.966359-0.966359-1.74975-6.67288e-08-1.74975 0.966359-1.74975 1.74975-0.966359 1.74975 0Z" fill="#FF0000" transform="matrix(1.01326 0 -0 1 902.151 166.122)"/><path d="M1.74975 0C1.74975 0.966359 0.966359 1.74975-3.99349e-08 1.74975-0.966359 1.74975-1.74975 0.966359-1.74975-3.99349e-08-1.74975-0.966359-0.966359-1.74975-6.67288e-08-1.74975 0.966359-1.74975 1.74975-0.966359 1.74975 0Z" stroke="#FF0000" stroke-width="1.19303" stroke-miterlimit="10" fill="none" transform="matrix(1.01326 0 -0 1 902.151 166.122)"/><path d="M-1.78952 0 1.78952 0" stroke="#FF0000" stroke-width="1.19303" stroke-miterlimit="10" fill="none" transform="matrix(1.01326 0 -0 1 727.816 60.0228)"/><path d="M-1.78952 0 1.78952 0" stroke="#FF0000" stroke-width="1.19303" stroke-miterlimit="10" fill="none" transform="matrix(1.01326 0 -0 1 785.928 59.472)"/><path d="M-1.78952 0 1.78952 0" stroke="#FF0000" stroke-width="1.19303" stroke-miterlimit="10" fill="none" transform="matrix(1.01326 0 -0 1 844.039 167.177)"/><path d="M-1.78952 0 1.78952 0" stroke="#FF0000" stroke-width="1.19303" stroke-miterlimit="10" fill="none" transform="matrix(1.01326 0 -0 1 902.151 167.057)"/><path d="M-1.78952 0 1.78952 0" stroke="#FF0000" stroke-width="1.19303" stroke-miterlimit="10" fill="none" transform="matrix(1.01326 0 -0 1 727.816 55.9322)"/><path d="M-1.78952 0 1.78952 0" stroke="#FF0000" stroke-width="1.19303" stroke-miterlimit="10" fill="none" transform="matrix(1.01326 0 -0 1 785.928 56.0114)"/><path d="M-1.78952 0 1.78952 0" stroke="#FF0000" stroke-width="1.19303" stroke-miterlimit="10" fill="none" transform="matrix(1.01326 0 -0 1 844.039 164.568)"/><path d="M-1.78952 0 1.78952 0" stroke="#FF0000" stroke-width="1.19303" stroke-miterlimit="10" fill="none" transform="matrix(1.01326 0 -0 1 902.151 165.188)"/><path d="M85.6974 42.6772 85.6974 43.0697" stroke="#000000" stroke-width="1.19303" stroke-linejoin="round" stroke-miterlimit="10" fill="none" transform="matrix(1.01326 0 -0 1 649.699 15.1761)"/><path d="M143.048 42.6239 143.048 42.9863" stroke="#000000" stroke-width="1.19303" stroke-linejoin="round" stroke-miterlimit="10" fill="none" transform="matrix(1.01326 0 -0 1 649.699 15.1761)"/><path d="M200.399 150.914 200.399 151.17" stroke="#000000" stroke-width="1.19303" stroke-linejoin="round" stroke-miterlimit="10" fill="none" transform="matrix(1.01326 0 -0 1 649.699 15.1761)"/><path d="M257.75 150.771 257.75 151.099" stroke="#000000" stroke-width="1.19303" stroke-linejoin="round" stroke-miterlimit="10" fill="none" transform="matrix(1.01326 0 -0 1 649.699 15.1761)"/><path d="M85.6974 42.6772 85.6974 42.2847" stroke="#000000" stroke-width="1.19303" stroke-linejoin="round" stroke-miterlimit="10" fill="none" transform="matrix(1.01326 0 -0 1 649.699 15.1761)"/><path d="M143.048 42.6239 143.048 42.2614" stroke="#000000" stroke-width="1.19303" stroke-linejoin="round" stroke-miterlimit="10" fill="none" transform="matrix(1.01326 0 -0 1 649.699 15.1761)"/><path d="M200.399 150.914 200.399 150.658" stroke="#000000" stroke-width="1.19303" stroke-linejoin="round" stroke-miterlimit="10" fill="none" transform="matrix(1.01326 0 -0 1 649.699 15.1761)"/><path d="M257.75 150.771 257.75 150.444" stroke="#000000" stroke-width="1.19303" stroke-linejoin="round" stroke-miterlimit="10" fill="none" transform="matrix(1.01326 0 -0 1 649.699 15.1761)"/><path d="M1.74975 0C1.74975 0.966359 0.966359 1.74975-3.99349e-08 1.74975-0.966359 1.74975-1.74975 0.966359-1.74975-3.99349e-08-1.74975-0.966359-0.966359-1.74975-6.67288e-08-1.74975 0.966359-1.74975 1.74975-0.966359 1.74975 0Z" transform="matrix(1.01326 0 -0 1 736.533 57.8533)"/><path d="M1.74975 0C1.74975 0.966359 0.966359 1.74975-3.99349e-08 1.74975-0.966359 1.74975-1.74975 0.966359-1.74975-3.99349e-08-1.74975-0.966359-0.966359-1.74975-6.67288e-08-1.74975 0.966359-1.74975 1.74975-0.966359 1.74975 0Z" stroke="#000000" stroke-width="1.19303" stroke-miterlimit="10" fill="none" transform="matrix(1.01326 0 -0 1 736.533 57.8533)"/><path d="M1.74975 0C1.74975 0.966359 0.966359 1.74975-3.99349e-08 1.74975-0.966359 1.74975-1.74975 0.966359-1.74975-3.99349e-08-1.74975-0.966359-0.966359-1.74975-6.67288e-08-1.74975 0.966359-1.74975 1.74975-0.966359 1.74975 0Z" transform="matrix(1.01326 0 -0 1 794.645 57.7999)"/><path d="M1.74975 0C1.74975 0.966359 0.966359 1.74975-3.99349e-08 1.74975-0.966359 1.74975-1.74975 0.966359-1.74975-3.99349e-08-1.74975-0.966359-0.966359-1.74975-6.67288e-08-1.74975 0.966359-1.74975 1.74975-0.966359 1.74975 0Z" stroke="#000000" stroke-width="1.19303" stroke-miterlimit="10" fill="none" transform="matrix(1.01326 0 -0 1 794.645 57.7999)"/><path d="M1.74975 0C1.74975 0.966359 0.966359 1.74975-3.99349e-08 1.74975-0.966359 1.74975-1.74975 0.966359-1.74975-3.99349e-08-1.74975-0.966359-0.966359-1.74975-6.67288e-08-1.74975 0.966359-1.74975 1.74975-0.966359 1.74975 0Z" transform="matrix(1.01326 0 -0 1 852.756 166.09)"/><path d="M1.74975 0C1.74975 0.966359 0.966359 1.74975-3.99349e-08 1.74975-0.966359 1.74975-1.74975 0.966359-1.74975-3.99349e-08-1.74975-0.966359-0.966359-1.74975-6.67288e-08-1.74975 0.966359-1.74975 1.74975-0.966359 1.74975 0Z" stroke="#000000" stroke-width="1.19303" stroke-miterlimit="10" fill="none" transform="matrix(1.01326 0 -0 1 852.756 166.09)"/><path d="M1.74975 0C1.74975 0.966359 0.966359 1.74975-3.99349e-08 1.74975-0.966359 1.74975-1.74975 0.966359-1.74975-3.99349e-08-1.74975-0.966359-0.966359-1.74975-6.67288e-08-1.74975 0.966359-1.74975 1.74975-0.966359 1.74975 0Z" transform="matrix(1.01326 0 -0 1 910.868 165.947)"/><path d="M1.74975 0C1.74975 0.966359 0.966359 1.74975-3.99349e-08 1.74975-0.966359 1.74975-1.74975 0.966359-1.74975-3.99349e-08-1.74975-0.966359-0.966359-1.74975-6.67288e-08-1.74975 0.966359-1.74975 1.74975-0.966359 1.74975 0Z" stroke="#000000" stroke-width="1.19303" stroke-miterlimit="10" fill="none" transform="matrix(1.01326 0 -0 1 910.868 165.947)"/><path d="M-1.78952 0 1.78952 0" stroke="#000000" stroke-width="1.19303" stroke-miterlimit="10" fill="none" transform="matrix(1.01326 0 -0 1 736.533 58.2458)"/><path d="M-1.78952 0 1.78952 0" stroke="#000000" stroke-width="1.19303" stroke-miterlimit="10" fill="none" transform="matrix(1.01326 0 -0 1 794.645 58.1624)"/><path d="M-1.78952 0 1.78952 0" stroke="#000000" stroke-width="1.19303" stroke-miterlimit="10" fill="none" transform="matrix(1.01326 0 -0 1 852.756 166.346)"/><path d="M-1.78952 0 1.78952 0" stroke="#000000" stroke-width="1.19303" stroke-miterlimit="10" fill="none" transform="matrix(1.01326 0 -0 1 910.868 166.275)"/><path d="M-1.78952 0 1.78952 0" stroke="#000000" stroke-width="1.19303" stroke-miterlimit="10" fill="none" transform="matrix(1.01326 0 -0 1 736.533 57.4608)"/><path d="M-1.78952 0 1.78952 0" stroke="#000000" stroke-width="1.19303" stroke-miterlimit="10" fill="none" transform="matrix(1.01326 0 -0 1 794.645 57.4375)"/><path d="M-1.78952 0 1.78952 0" stroke="#000000" stroke-width="1.19303" stroke-miterlimit="10" fill="none" transform="matrix(1.01326 0 -0 1 852.756 165.834)"/><path d="M-1.78952 0 1.78952 0" stroke="#000000" stroke-width="1.19303" stroke-miterlimit="10" fill="none" transform="matrix(1.01326 0 -0 1 910.868 165.62)"/><path d="M272.902 74.2651 272.902 21.9216 213.848 21.9216 213.848 74.2651Z" fill="#FFFFFF" transform="matrix(1.01326 0 -0 1 649.699 15.1761)"/><text font-family="Arial,Arial_MSFontService,sans-serif" font-weight="700" font-size="24" transform="matrix(0.453314 0 0 0.44738 887.689 48)">100</text><path d="M-1.78952 0 1.78952 0" stroke="#0000FF" stroke-width="1.19303" stroke-miterlimit="10" fill="none" transform="matrix(1.01326 0 -0 1 877.262 48.9028)"/><path d="M-1.78952 0 1.78952 0" stroke="#0000FF" stroke-width="1.19303" stroke-miterlimit="10" fill="none" transform="matrix(1.01326 0 -0 1 877.262 39.5478)"/><path d="M224.585 33.7267 224.585 24.3717" stroke="#0000FF" stroke-width="1.19303" stroke-linejoin="round" stroke-miterlimit="10" fill="none" transform="matrix(1.01326 0 -0 1 649.699 15.1761)"/><path d="M1.57478 0C1.57478 0.869726 0.869726 1.57478-8.5331e-09 1.57478-0.869726 1.57478-1.57478 0.869726-1.57478-8.5331e-09-1.57478-0.869726-0.869726-1.57478 8.5331e-09-1.57478 0.869726-1.57478 1.57478-0.869726 1.57478 0Z" fill="#0000FF" transform="matrix(1.01326 0 -0 1 877.262 44.2253)"/><path d="M1.57478 0C1.57478 0.869726 0.869726 1.57478-8.5331e-09 1.57478-0.869726 1.57478-1.57478 0.869726-1.57478-8.5331e-09-1.57478-0.869726-0.869726-1.57478 8.5331e-09-1.57478 0.869726-1.57478 1.57478-0.869726 1.57478 0Z" stroke="#0000FF" stroke-width="1.19303" stroke-miterlimit="10" fill="none" transform="matrix(1.01326 0 -0 1 877.262 44.2253)"/><text font-family="Arial,Arial_MSFontService,sans-serif" font-weight="700" font-size="24" transform="matrix(0.453314 0 0 0.44738 887.689 61)">1000</text><path d="M-1.78952 0 1.78952 0" stroke="#FF00FF" stroke-width="1.19303" stroke-miterlimit="10" fill="none" transform="matrix(1.01326 0 -0 1 877.262 61.5989)"/><path d="M-1.78952 0 1.78952 0" stroke="#FF00FF" stroke-width="1.19303" stroke-miterlimit="10" fill="none" transform="matrix(1.01326 0 -0 1 877.262 52.2439)"/><path d="M224.585 46.4228 224.585 37.0678" stroke="#FF00FF" stroke-width="1.19303" stroke-linejoin="round" stroke-miterlimit="10" fill="none" transform="matrix(1.01326 0 -0 1 649.699 15.1761)"/><path d="M1.57478 0C1.57478 0.869726 0.869726 1.57478-8.5331e-09 1.57478-0.869726 1.57478-1.57478 0.869726-1.57478-8.5331e-09-1.57478-0.869726-0.869726-1.57478 8.5331e-09-1.57478 0.869726-1.57478 1.57478-0.869726 1.57478 0Z" fill="#FF00FF" transform="matrix(1.01326 0 -0 1 877.262 56.9214)"/><path d="M1.57478 0C1.57478 0.869726 0.869726 1.57478-8.5331e-09 1.57478-0.869726 1.57478-1.57478 0.869726-1.57478-8.5331e-09-1.57478-0.869726-0.869726-1.57478 8.5331e-09-1.57478 0.869726-1.57478 1.57478-0.869726 1.57478 0Z" stroke="#FF00FF" stroke-width="1.19303" stroke-miterlimit="10" fill="none" transform="matrix(1.01326 0 -0 1 877.262 56.9214)"/><text font-family="Arial,Arial_MSFontService,sans-serif" font-weight="700" font-size="24" transform="matrix(0.453314 0 0 0.44738 887.689 74)">10000</text><path d="M-1.78952 0 1.78952 0" stroke="#FF0000" stroke-width="1.19303" stroke-miterlimit="10" fill="none" transform="matrix(1.01326 0 -0 1 877.262 74.2951)"/><path d="M-1.78952 0 1.78952 0" stroke="#FF0000" stroke-width="1.19303" stroke-miterlimit="10" fill="none" transform="matrix(1.01326 0 -0 1 877.262 64.9399)"/><path d="M224.585 59.119 224.585 49.7639" stroke="#FF0000" stroke-width="1.19303" stroke-linejoin="round" stroke-miterlimit="10" fill="none" transform="matrix(1.01326 0 -0 1 649.699 15.1761)"/><path d="M1.57478 0C1.57478 0.869726 0.869726 1.57478-8.5331e-09 1.57478-0.869726 1.57478-1.57478 0.869726-1.57478-8.5331e-09-1.57478-0.869726-0.869726-1.57478 8.5331e-09-1.57478 0.869726-1.57478 1.57478-0.869726 1.57478 0Z" fill="#FF0000" transform="matrix(1.01326 0 -0 1 877.262 69.6173)"/><path d="M1.57478 0C1.57478 0.869726 0.869726 1.57478-8.5331e-09 1.57478-0.869726 1.57478-1.57478 0.869726-1.57478-8.5331e-09-1.57478-0.869726-0.869726-1.57478 8.5331e-09-1.57478 0.869726-1.57478 1.57478-0.869726 1.57478 0Z" stroke="#FF0000" stroke-width="1.19303" stroke-miterlimit="10" fill="none" transform="matrix(1.01326 0 -0 1 877.262 69.6173)"/><text font-family="Arial,Arial_MSFontService,sans-serif" font-weight="700" font-size="24" transform="matrix(0.453314 0 0 0.44738 887.689 86)">100000</text><path d="M-1.78952 0 1.78952 0" stroke="#000000" stroke-width="1.19303" stroke-miterlimit="10" fill="none" transform="matrix(1.01326 0 -0 1 877.262 86.9909)"/><path d="M-1.78952 0 1.78952 0" stroke="#000000" stroke-width="1.19303" stroke-miterlimit="10" fill="none" transform="matrix(1.01326 0 -0 1 877.262 77.6361)"/><path d="M224.585 71.8148 224.585 62.4601" stroke="#000000" stroke-width="1.19303" stroke-linejoin="round" stroke-miterlimit="10" fill="none" transform="matrix(1.01326 0 -0 1 649.699 15.1761)"/><path d="M1.57478 0C1.57478 0.869726 0.869726 1.57478-8.5331e-09 1.57478-0.869726 1.57478-1.57478 0.869726-1.57478-8.5331e-09-1.57478-0.869726-0.869726-1.57478 8.5331e-09-1.57478 0.869726-1.57478 1.57478-0.869726 1.57478 0Z" transform="matrix(1.01326 0 -0 1 877.262 82.3135)"/><path d="M1.57478 0C1.57478 0.869726 0.869726 1.57478-8.5331e-09 1.57478-0.869726 1.57478-1.57478 0.869726-1.57478-8.5331e-09-1.57478-0.869726-0.869726-1.57478 8.5331e-09-1.57478 0.869726-1.57478 1.57478-0.869726 1.57478 0Z" stroke="#000000" stroke-width="1.19303" stroke-miterlimit="10" fill="none" transform="matrix(1.01326 0 -0 1 877.262 82.3135)"/><path d="M213.848 74.2651 213.848 21.9216 272.902 21.9216 272.902 74.2651Z" stroke="#262626" stroke-width="0.298268" stroke-miterlimit="10" fill="none" fill-rule="evenodd" transform="matrix(1.01326 0 -0 1 649.699 15.1761)"/></g></g></g></g></svg>