<?xml version="1.0" encoding="utf-8" standalone="no"?>
<!DOCTYPE svg PUBLIC "-//W3C//DTD SVG 1.1//EN"
  "http://www.w3.org/Graphics/SVG/1.1/DTD/svg11.dtd">
<!-- Created with matplotlib (https://matplotlib.org/) -->
<svg height="216pt" version="1.1" viewBox="0 0 288 216" width="288pt" xmlns="http://www.w3.org/2000/svg" xmlns:xlink="http://www.w3.org/1999/xlink">
 <defs>
  <style type="text/css">
*{stroke-linecap:butt;stroke-linejoin:round;}
  </style>
 </defs>
 <g id="figure_1">
  <g id="patch_1">
   <path d="M 0 216 
L 288 216 
L 288 0 
L 0 0 
z
" style="fill:#ffffff;"/>
  </g>
  <g id="axes_1">
   <g id="patch_2">
    <path d="M 52.04 169.72 
L 268.949864 169.72 
L 268.949864 24 
L 52.04 24 
z
" style="fill:#ffffff;"/>
   </g>
   <g id="PathCollection_1">
    <defs>
     <path d="M 0 3 
C 0.795609 3 1.55874 2.683901 2.12132 2.12132 
C 2.683901 1.55874 3 0.795609 3 0 
C 3 -0.795609 2.683901 -1.55874 2.12132 -2.12132 
C 1.55874 -2.683901 0.795609 -3 0 -3 
C -0.795609 -3 -1.55874 -2.683901 -2.12132 -2.12132 
C -2.683901 -1.55874 -3 -0.795609 -3 0 
C -3 0.795609 -2.683901 1.55874 -2.12132 2.12132 
C -1.55874 2.683901 -0.795609 3 0 3 
z
" id="m2ee0343a43" style="stroke:#1f77b4;"/>
    </defs>
    <g clip-path="url(#p5fbdcc0fbf)">
     <use style="fill:#1f77b4;stroke:#1f77b4;" x="128.705247" xlink:href="#m2ee0343a43" y="89.354527"/>
     <use style="fill:#1f77b4;stroke:#1f77b4;" x="66.057285" xlink:href="#m2ee0343a43" y="159.228095"/>
     <use style="fill:#1f77b4;stroke:#1f77b4;" x="117.773659" xlink:href="#m2ee0343a43" y="72.821004"/>
     <use style="fill:#1f77b4;stroke:#1f77b4;" x="162.06222" xlink:href="#m2ee0343a43" y="75.013899"/>
     <use style="fill:#1f77b4;stroke:#1f77b4;" x="157.273264" xlink:href="#m2ee0343a43" y="44.462082"/>
     <use style="fill:#1f77b4;stroke:#1f77b4;" x="124.46094" xlink:href="#m2ee0343a43" y="106.841282"/>
     <use style="fill:#1f77b4;stroke:#1f77b4;" x="221.335656" xlink:href="#m2ee0343a43" y="60.913048"/>
     <use style="fill:#1f77b4;stroke:#1f77b4;" x="130.707957" xlink:href="#m2ee0343a43" y="74.938359"/>
     <use style="fill:#1f77b4;stroke:#1f77b4;" x="138.607718" xlink:href="#m2ee0343a43" y="57.968717"/>
     <use style="fill:#1f77b4;stroke:#1f77b4;" x="88.976253" xlink:href="#m2ee0343a43" y="127.420423"/>
     <use style="fill:#1f77b4;stroke:#1f77b4;" x="87.19921" xlink:href="#m2ee0343a43" y="143.0667"/>
     <use style="fill:#1f77b4;stroke:#1f77b4;" x="210.775513" xlink:href="#m2ee0343a43" y="63.974036"/>
     <use style="fill:#1f77b4;stroke:#1f77b4;" x="106.805604" xlink:href="#m2ee0343a43" y="98.103146"/>
     <use style="fill:#1f77b4;stroke:#1f77b4;" x="176.382441" xlink:href="#m2ee0343a43" y="39.578658"/>
     <use style="fill:#1f77b4;stroke:#1f77b4;" x="188.511071" xlink:href="#m2ee0343a43" y="41.018028"/>
     <use style="fill:#1f77b4;stroke:#1f77b4;" x="205.458096" xlink:href="#m2ee0343a43" y="54.612025"/>
     <use style="fill:#1f77b4;stroke:#1f77b4;" x="126.438963" xlink:href="#m2ee0343a43" y="101.339723"/>
     <use style="fill:#1f77b4;stroke:#1f77b4;" x="189.097417" xlink:href="#m2ee0343a43" y="68.851535"/>
     <use style="fill:#1f77b4;stroke:#1f77b4;" x="128.004591" xlink:href="#m2ee0343a43" y="93.325276"/>
     <use style="fill:#1f77b4;stroke:#1f77b4;" x="183.140568" xlink:href="#m2ee0343a43" y="43.397955"/>
     <use style="fill:#1f77b4;stroke:#1f77b4;" x="131.930861" xlink:href="#m2ee0343a43" y="91.891208"/>
     <use style="fill:#1f77b4;stroke:#1f77b4;" x="107.182774" xlink:href="#m2ee0343a43" y="82.856944"/>
     <use style="fill:#1f77b4;stroke:#1f77b4;" x="251.604502" xlink:href="#m2ee0343a43" y="36.145442"/>
     <use style="fill:#1f77b4;stroke:#1f77b4;" x="173.270162" xlink:href="#m2ee0343a43" y="61.548947"/>
     <use style="fill:#1f77b4;stroke:#1f77b4;" x="142.118685" xlink:href="#m2ee0343a43" y="78.834203"/>
     <use style="fill:#1f77b4;stroke:#1f77b4;" x="149.518593" xlink:href="#m2ee0343a43" y="88.277108"/>
     <use style="fill:#1f77b4;stroke:#1f77b4;" x="109.769871" xlink:href="#m2ee0343a43" y="115.377671"/>
     <use style="fill:#1f77b4;stroke:#1f77b4;" x="161.864025" xlink:href="#m2ee0343a43" y="83.923703"/>
     <use style="fill:#1f77b4;stroke:#1f77b4;" x="231.104594" xlink:href="#m2ee0343a43" y="51.470888"/>
     <use style="fill:#1f77b4;stroke:#1f77b4;" x="194.104314" xlink:href="#m2ee0343a43" y="68.796675"/>
     <use style="fill:#1f77b4;stroke:#1f77b4;" x="255.152897" xlink:href="#m2ee0343a43" y="35.074056"/>
     <use style="fill:#1f77b4;stroke:#1f77b4;" x="65.836966" xlink:href="#m2ee0343a43" y="159.880154"/>
     <use style="fill:#1f77b4;stroke:#1f77b4;" x="136.274697" xlink:href="#m2ee0343a43" y="86.305965"/>
     <use style="fill:#1f77b4;stroke:#1f77b4;" x="106.648841" xlink:href="#m2ee0343a43" y="100.375572"/>
     <use style="fill:#1f77b4;stroke:#1f77b4;" x="170.727899" xlink:href="#m2ee0343a43" y="53.539325"/>
     <use style="fill:#1f77b4;stroke:#1f77b4;" x="122.74333" xlink:href="#m2ee0343a43" y="88.808033"/>
     <use style="fill:#1f77b4;stroke:#1f77b4;" x="175.588777" xlink:href="#m2ee0343a43" y="64.81755"/>
     <use style="fill:#1f77b4;stroke:#1f77b4;" x="136.584425" xlink:href="#m2ee0343a43" y="66.769354"/>
     <use style="fill:#1f77b4;stroke:#1f77b4;" x="228.319815" xlink:href="#m2ee0343a43" y="39.901759"/>
     <use style="fill:#1f77b4;stroke:#1f77b4;" x="101.398555" xlink:href="#m2ee0343a43" y="108.555548"/>
     <use style="fill:#1f77b4;stroke:#1f77b4;" x="99.670327" xlink:href="#m2ee0343a43" y="121.546283"/>
     <use style="fill:#1f77b4;stroke:#1f77b4;" x="191.780755" xlink:href="#m2ee0343a43" y="70.960144"/>
     <use style="fill:#1f77b4;stroke:#1f77b4;" x="248.026018" xlink:href="#m2ee0343a43" y="44.024697"/>
     <use style="fill:#1f77b4;stroke:#1f77b4;" x="122.343647" xlink:href="#m2ee0343a43" y="96.389823"/>
     <use style="fill:#1f77b4;stroke:#1f77b4;" x="108.19585" xlink:href="#m2ee0343a43" y="128.246387"/>
     <use style="fill:#1f77b4;stroke:#1f77b4;" x="85.393559" xlink:href="#m2ee0343a43" y="144.112562"/>
     <use style="fill:#1f77b4;stroke:#1f77b4;" x="107.79383" xlink:href="#m2ee0343a43" y="120.058391"/>
     <use style="fill:#1f77b4;stroke:#1f77b4;" x="176.958733" xlink:href="#m2ee0343a43" y="81.797723"/>
     <use style="fill:#1f77b4;stroke:#1f77b4;" x="95.950286" xlink:href="#m2ee0343a43" y="123.621049"/>
     <use style="fill:#1f77b4;stroke:#1f77b4;" x="81.886976" xlink:href="#m2ee0343a43" y="139.040455"/>
     <use style="fill:#1f77b4;stroke:#1f77b4;" x="117.355572" xlink:href="#m2ee0343a43" y="103.903704"/>
     <use style="fill:#1f77b4;stroke:#1f77b4;" x="243.326631" xlink:href="#m2ee0343a43" y="40.524694"/>
     <use style="fill:#1f77b4;stroke:#1f77b4;" x="174.260007" xlink:href="#m2ee0343a43" y="43.946217"/>
     <use style="fill:#1f77b4;stroke:#1f77b4;" x="127.880994" xlink:href="#m2ee0343a43" y="92.010622"/>
     <use style="fill:#1f77b4;stroke:#1f77b4;" x="158.66012" xlink:href="#m2ee0343a43" y="96.190311"/>
     <use style="fill:#1f77b4;stroke:#1f77b4;" x="169.911803" xlink:href="#m2ee0343a43" y="54.752665"/>
     <use style="fill:#1f77b4;stroke:#1f77b4;" x="168.322041" xlink:href="#m2ee0343a43" y="84.211571"/>
     <use style="fill:#1f77b4;stroke:#1f77b4;" x="131.915584" xlink:href="#m2ee0343a43" y="74.228596"/>
     <use style="fill:#1f77b4;stroke:#1f77b4;" x="97.733024" xlink:href="#m2ee0343a43" y="131.004378"/>
     <use style="fill:#1f77b4;stroke:#1f77b4;" x="124.169253" xlink:href="#m2ee0343a43" y="90.907497"/>
     <use style="fill:#1f77b4;stroke:#1f77b4;" x="175.432956" xlink:href="#m2ee0343a43" y="33.839846"/>
     <use style="fill:#1f77b4;stroke:#1f77b4;" x="146.354834" xlink:href="#m2ee0343a43" y="75.071465"/>
     <use style="fill:#1f77b4;stroke:#1f77b4;" x="165.655279" xlink:href="#m2ee0343a43" y="85.823261"/>
     <use style="fill:#1f77b4;stroke:#1f77b4;" x="95.402726" xlink:href="#m2ee0343a43" y="138.228231"/>
     <use style="fill:#1f77b4;stroke:#1f77b4;" x="88.891229" xlink:href="#m2ee0343a43" y="132.160543"/>
     <use style="fill:#1f77b4;stroke:#1f77b4;" x="134.643519" xlink:href="#m2ee0343a43" y="114.992846"/>
     <use style="fill:#1f77b4;stroke:#1f77b4;" x="222.210601" xlink:href="#m2ee0343a43" y="60.831161"/>
     <use style="fill:#1f77b4;stroke:#1f77b4;" x="140.376242" xlink:href="#m2ee0343a43" y="57.790959"/>
     <use style="fill:#1f77b4;stroke:#1f77b4;" x="127.00531" xlink:href="#m2ee0343a43" y="98.335384"/>
     <use style="fill:#1f77b4;stroke:#1f77b4;" x="95.411933" xlink:href="#m2ee0343a43" y="137.72859"/>
     <use style="fill:#1f77b4;stroke:#1f77b4;" x="152.687534" xlink:href="#m2ee0343a43" y="61.065331"/>
     <use style="fill:#1f77b4;stroke:#1f77b4;" x="121.408401" xlink:href="#m2ee0343a43" y="66.643779"/>
     <use style="fill:#1f77b4;stroke:#1f77b4;" x="228.961838" xlink:href="#m2ee0343a43" y="53.167251"/>
     <use style="fill:#1f77b4;stroke:#1f77b4;" x="137.694847" xlink:href="#m2ee0343a43" y="99.07838"/>
     <use style="fill:#1f77b4;stroke:#1f77b4;" x="66.660153" xlink:href="#m2ee0343a43" y="158.577608"/>
     <use style="fill:#1f77b4;stroke:#1f77b4;" x="97.58548" xlink:href="#m2ee0343a43" y="95.470685"/>
     <use style="fill:#1f77b4;stroke:#1f77b4;" x="125.578914" xlink:href="#m2ee0343a43" y="92.452444"/>
     <use style="fill:#1f77b4;stroke:#1f77b4;" x="161.768563" xlink:href="#m2ee0343a43" y="83.823741"/>
     <use style="fill:#1f77b4;stroke:#1f77b4;" x="187.284747" xlink:href="#m2ee0343a43" y="75.705397"/>
     <use style="fill:#1f77b4;stroke:#1f77b4;" x="175.767848" xlink:href="#m2ee0343a43" y="41.347678"/>
     <use style="fill:#1f77b4;stroke:#1f77b4;" x="131.224296" xlink:href="#m2ee0343a43" y="113.883849"/>
     <use style="fill:#1f77b4;stroke:#1f77b4;" x="114.698408" xlink:href="#m2ee0343a43" y="104.528708"/>
     <use style="fill:#1f77b4;stroke:#1f77b4;" x="96.930314" xlink:href="#m2ee0343a43" y="135.156351"/>
     <use style="fill:#1f77b4;stroke:#1f77b4;" x="151.505178" xlink:href="#m2ee0343a43" y="52.634437"/>
     <use style="fill:#1f77b4;stroke:#1f77b4;" x="135.956595" xlink:href="#m2ee0343a43" y="99.832212"/>
     <use style="fill:#1f77b4;stroke:#1f77b4;" x="130.208837" xlink:href="#m2ee0343a43" y="86.740913"/>
     <use style="fill:#1f77b4;stroke:#1f77b4;" x="138.103058" xlink:href="#m2ee0343a43" y="76.972858"/>
     <use style="fill:#1f77b4;stroke:#1f77b4;" x="124.467991" xlink:href="#m2ee0343a43" y="62.30546"/>
     <use style="fill:#1f77b4;stroke:#1f77b4;" x="108.985431" xlink:href="#m2ee0343a43" y="80.591639"/>
     <use style="fill:#1f77b4;stroke:#1f77b4;" x="104.980016" xlink:href="#m2ee0343a43" y="98.174819"/>
     <use style="fill:#1f77b4;stroke:#1f77b4;" x="132.720553" xlink:href="#m2ee0343a43" y="91.888458"/>
     <use style="fill:#1f77b4;stroke:#1f77b4;" x="87.643663" xlink:href="#m2ee0343a43" y="141.966183"/>
     <use style="fill:#1f77b4;stroke:#1f77b4;" x="126.927818" xlink:href="#m2ee0343a43" y="98.070673"/>
     <use style="fill:#1f77b4;stroke:#1f77b4;" x="149.950407" xlink:href="#m2ee0343a43" y="73.814635"/>
     <use style="fill:#1f77b4;stroke:#1f77b4;" x="112.727778" xlink:href="#m2ee0343a43" y="109.903734"/>
     <use style="fill:#1f77b4;stroke:#1f77b4;" x="110.769364" xlink:href="#m2ee0343a43" y="121.530896"/>
     <use style="fill:#1f77b4;stroke:#1f77b4;" x="108.688151" xlink:href="#m2ee0343a43" y="123.281937"/>
     <use style="fill:#1f77b4;stroke:#1f77b4;" x="94.932185" xlink:href="#m2ee0343a43" y="113.219395"/>
     <use style="fill:#1f77b4;stroke:#1f77b4;" x="176.13136" xlink:href="#m2ee0343a43" y="63.987811"/>
     <use style="fill:#1f77b4;stroke:#1f77b4;" x="157.639436" xlink:href="#m2ee0343a43" y="85.866631"/>
     <use style="fill:#1f77b4;stroke:#1f77b4;" x="100.238055" xlink:href="#m2ee0343a43" y="118.163923"/>
     <use style="fill:#1f77b4;stroke:#1f77b4;" x="97.752014" xlink:href="#m2ee0343a43" y="130.999699"/>
     <use style="fill:#1f77b4;stroke:#1f77b4;" x="119.248875" xlink:href="#m2ee0343a43" y="65.801504"/>
     <use style="fill:#1f77b4;stroke:#1f77b4;" x="178.792308" xlink:href="#m2ee0343a43" y="80.756852"/>
     <use style="fill:#1f77b4;stroke:#1f77b4;" x="203.912268" xlink:href="#m2ee0343a43" y="55.065306"/>
     <use style="fill:#1f77b4;stroke:#1f77b4;" x="147.594321" xlink:href="#m2ee0343a43" y="54.926497"/>
     <use style="fill:#1f77b4;stroke:#1f77b4;" x="159.693036" xlink:href="#m2ee0343a43" y="95.625959"/>
     <use style="fill:#1f77b4;stroke:#1f77b4;" x="173.915009" xlink:href="#m2ee0343a43" y="60.550104"/>
     <use style="fill:#1f77b4;stroke:#1f77b4;" x="172.192739" xlink:href="#m2ee0343a43" y="73.81226"/>
     <use style="fill:#1f77b4;stroke:#1f77b4;" x="186.693019" xlink:href="#m2ee0343a43" y="43.63106"/>
     <use style="fill:#1f77b4;stroke:#1f77b4;" x="106.620871" xlink:href="#m2ee0343a43" y="129.336462"/>
     <use style="fill:#1f77b4;stroke:#1f77b4;" x="97.182904" xlink:href="#m2ee0343a43" y="96.65569"/>
     <use style="fill:#1f77b4;stroke:#1f77b4;" x="212.551296" xlink:href="#m2ee0343a43" y="53.381233"/>
    </g>
   </g>
   <g id="matplotlib.axis_1">
    <g id="xtick_1">
     <g id="line2d_1">
      <defs>
       <path d="M 0 0 
L 0 3.5 
" id="mbbc739ef55" style="stroke:#000000;stroke-width:0.8;"/>
      </defs>
      <g>
       <use style="stroke:#000000;stroke-width:0.8;" x="65.836966" xlink:href="#mbbc739ef55" y="169.72"/>
      </g>
     </g>
     <g id="text_1">
      <!-- 0.0 -->
      <defs>
       <path d="M 31.78125 66.40625 
Q 24.171875 66.40625 20.328125 58.90625 
Q 16.5 51.421875 16.5 36.375 
Q 16.5 21.390625 20.328125 13.890625 
Q 24.171875 6.390625 31.78125 6.390625 
Q 39.453125 6.390625 43.28125 13.890625 
Q 47.125 21.390625 47.125 36.375 
Q 47.125 51.421875 43.28125 58.90625 
Q 39.453125 66.40625 31.78125 66.40625 
z
M 31.78125 74.21875 
Q 44.046875 74.21875 50.515625 64.515625 
Q 56.984375 54.828125 56.984375 36.375 
Q 56.984375 17.96875 50.515625 8.265625 
Q 44.046875 -1.421875 31.78125 -1.421875 
Q 19.53125 -1.421875 13.0625 8.265625 
Q 6.59375 17.96875 6.59375 36.375 
Q 6.59375 54.828125 13.0625 64.515625 
Q 19.53125 74.21875 31.78125 74.21875 
z
" id="DejaVuSans-48"/>
       <path d="M 10.6875 12.40625 
L 21 12.40625 
L 21 0 
L 10.6875 0 
z
" id="DejaVuSans-46"/>
      </defs>
      <g transform="translate(57.885404 184.318438)scale(0.1 -0.1)">
       <use xlink:href="#DejaVuSans-48"/>
       <use x="63.623047" xlink:href="#DejaVuSans-46"/>
       <use x="95.410156" xlink:href="#DejaVuSans-48"/>
      </g>
     </g>
    </g>
    <g id="xtick_2">
     <g id="line2d_2">
      <g>
       <use style="stroke:#000000;stroke-width:0.8;" x="106.523712" xlink:href="#mbbc739ef55" y="169.72"/>
      </g>
     </g>
     <g id="text_2">
      <!-- 0.1 -->
      <defs>
       <path d="M 12.40625 8.296875 
L 28.515625 8.296875 
L 28.515625 63.921875 
L 10.984375 60.40625 
L 10.984375 69.390625 
L 28.421875 72.90625 
L 38.28125 72.90625 
L 38.28125 8.296875 
L 54.390625 8.296875 
L 54.390625 0 
L 12.40625 0 
z
" id="DejaVuSans-49"/>
      </defs>
      <g transform="translate(98.57215 184.318438)scale(0.1 -0.1)">
       <use xlink:href="#DejaVuSans-48"/>
       <use x="63.623047" xlink:href="#DejaVuSans-46"/>
       <use x="95.410156" xlink:href="#DejaVuSans-49"/>
      </g>
     </g>
    </g>
    <g id="xtick_3">
     <g id="line2d_3">
      <g>
       <use style="stroke:#000000;stroke-width:0.8;" x="147.210458" xlink:href="#mbbc739ef55" y="169.72"/>
      </g>
     </g>
     <g id="text_3">
      <!-- 0.2 -->
      <defs>
       <path d="M 19.1875 8.296875 
L 53.609375 8.296875 
L 53.609375 0 
L 7.328125 0 
L 7.328125 8.296875 
Q 12.9375 14.109375 22.625 23.890625 
Q 32.328125 33.6875 34.8125 36.53125 
Q 39.546875 41.84375 41.421875 45.53125 
Q 43.3125 49.21875 43.3125 52.78125 
Q 43.3125 58.59375 39.234375 62.25 
Q 35.15625 65.921875 28.609375 65.921875 
Q 23.96875 65.921875 18.8125 64.3125 
Q 13.671875 62.703125 7.8125 59.421875 
L 7.8125 69.390625 
Q 13.765625 71.78125 18.9375 73 
Q 24.125 74.21875 28.421875 74.21875 
Q 39.75 74.21875 46.484375 68.546875 
Q 53.21875 62.890625 53.21875 53.421875 
Q 53.21875 48.921875 51.53125 44.890625 
Q 49.859375 40.875 45.40625 35.40625 
Q 44.1875 33.984375 37.640625 27.21875 
Q 31.109375 20.453125 19.1875 8.296875 
z
" id="DejaVuSans-50"/>
      </defs>
      <g transform="translate(139.258896 184.318438)scale(0.1 -0.1)">
       <use xlink:href="#DejaVuSans-48"/>
       <use x="63.623047" xlink:href="#DejaVuSans-46"/>
       <use x="95.410156" xlink:href="#DejaVuSans-50"/>
      </g>
     </g>
    </g>
    <g id="xtick_4">
     <g id="line2d_4">
      <g>
       <use style="stroke:#000000;stroke-width:0.8;" x="187.897204" xlink:href="#mbbc739ef55" y="169.72"/>
      </g>
     </g>
     <g id="text_4">
      <!-- 0.3 -->
      <defs>
       <path d="M 40.578125 39.3125 
Q 47.65625 37.796875 51.625 33 
Q 55.609375 28.21875 55.609375 21.1875 
Q 55.609375 10.40625 48.1875 4.484375 
Q 40.765625 -1.421875 27.09375 -1.421875 
Q 22.515625 -1.421875 17.65625 -0.515625 
Q 12.796875 0.390625 7.625 2.203125 
L 7.625 11.71875 
Q 11.71875 9.328125 16.59375 8.109375 
Q 21.484375 6.890625 26.8125 6.890625 
Q 36.078125 6.890625 40.9375 10.546875 
Q 45.796875 14.203125 45.796875 21.1875 
Q 45.796875 27.640625 41.28125 31.265625 
Q 36.765625 34.90625 28.71875 34.90625 
L 20.21875 34.90625 
L 20.21875 43.015625 
L 29.109375 43.015625 
Q 36.375 43.015625 40.234375 45.921875 
Q 44.09375 48.828125 44.09375 54.296875 
Q 44.09375 59.90625 40.109375 62.90625 
Q 36.140625 65.921875 28.71875 65.921875 
Q 24.65625 65.921875 20.015625 65.03125 
Q 15.375 64.15625 9.8125 62.3125 
L 9.8125 71.09375 
Q 15.4375 72.65625 20.34375 73.4375 
Q 25.25 74.21875 29.59375 74.21875 
Q 40.828125 74.21875 47.359375 69.109375 
Q 53.90625 64.015625 53.90625 55.328125 
Q 53.90625 49.265625 50.4375 45.09375 
Q 46.96875 40.921875 40.578125 39.3125 
z
" id="DejaVuSans-51"/>
      </defs>
      <g transform="translate(179.945642 184.318438)scale(0.1 -0.1)">
       <use xlink:href="#DejaVuSans-48"/>
       <use x="63.623047" xlink:href="#DejaVuSans-46"/>
       <use x="95.410156" xlink:href="#DejaVuSans-51"/>
      </g>
     </g>
    </g>
    <g id="xtick_5">
     <g id="line2d_5">
      <g>
       <use style="stroke:#000000;stroke-width:0.8;" x="228.58395" xlink:href="#mbbc739ef55" y="169.72"/>
      </g>
     </g>
     <g id="text_5">
      <!-- 0.4 -->
      <defs>
       <path d="M 37.796875 64.3125 
L 12.890625 25.390625 
L 37.796875 25.390625 
z
M 35.203125 72.90625 
L 47.609375 72.90625 
L 47.609375 25.390625 
L 58.015625 25.390625 
L 58.015625 17.1875 
L 47.609375 17.1875 
L 47.609375 0 
L 37.796875 0 
L 37.796875 17.1875 
L 4.890625 17.1875 
L 4.890625 26.703125 
z
" id="DejaVuSans-52"/>
      </defs>
      <g transform="translate(220.632388 184.318438)scale(0.1 -0.1)">
       <use xlink:href="#DejaVuSans-48"/>
       <use x="63.623047" xlink:href="#DejaVuSans-46"/>
       <use x="95.410156" xlink:href="#DejaVuSans-52"/>
      </g>
     </g>
    </g>
    <g id="xtick_6">
     <g id="line2d_6">
      <g>
       <use style="stroke:#000000;stroke-width:0.8;" x="269.270696" xlink:href="#mbbc739ef55" y="169.72"/>
      </g>
     </g>
     <g id="text_6">
      <!-- 0.5 -->
      <defs>
       <path d="M 10.796875 72.90625 
L 49.515625 72.90625 
L 49.515625 64.59375 
L 19.828125 64.59375 
L 19.828125 46.734375 
Q 21.96875 47.46875 24.109375 47.828125 
Q 26.265625 48.1875 28.421875 48.1875 
Q 40.625 48.1875 47.75 41.5 
Q 54.890625 34.8125 54.890625 23.390625 
Q 54.890625 11.625 47.5625 5.09375 
Q 40.234375 -1.421875 26.90625 -1.421875 
Q 22.3125 -1.421875 17.546875 -0.640625 
Q 12.796875 0.140625 7.71875 1.703125 
L 7.71875 11.625 
Q 12.109375 9.234375 16.796875 8.0625 
Q 21.484375 6.890625 26.703125 6.890625 
Q 35.15625 6.890625 40.078125 11.328125 
Q 45.015625 15.765625 45.015625 23.390625 
Q 45.015625 31 40.078125 35.4375 
Q 35.15625 39.890625 26.703125 39.890625 
Q 22.75 39.890625 18.8125 39.015625 
Q 14.890625 38.140625 10.796875 36.28125 
z
" id="DejaVuSans-53"/>
      </defs>
      <g transform="translate(261.319134 184.318438)scale(0.1 -0.1)">
       <use xlink:href="#DejaVuSans-48"/>
       <use x="63.623047" xlink:href="#DejaVuSans-46"/>
       <use x="95.410156" xlink:href="#DejaVuSans-53"/>
      </g>
     </g>
    </g>
    <g id="text_7">
     <!-- JSD1 from WT -->
     <defs>
      <path d="M 9.8125 72.90625 
L 19.671875 72.90625 
L 19.671875 5.078125 
Q 19.671875 -8.109375 14.671875 -14.0625 
Q 9.671875 -20.015625 -1.421875 -20.015625 
L -5.171875 -20.015625 
L -5.171875 -11.71875 
L -2.09375 -11.71875 
Q 4.4375 -11.71875 7.125 -8.046875 
Q 9.8125 -4.390625 9.8125 5.078125 
z
" id="DejaVuSans-74"/>
      <path d="M 53.515625 70.515625 
L 53.515625 60.890625 
Q 47.90625 63.578125 42.921875 64.890625 
Q 37.9375 66.21875 33.296875 66.21875 
Q 25.25 66.21875 20.875 63.09375 
Q 16.5 59.96875 16.5 54.203125 
Q 16.5 49.359375 19.40625 46.890625 
Q 22.3125 44.4375 30.421875 42.921875 
L 36.375 41.703125 
Q 47.40625 39.59375 52.65625 34.296875 
Q 57.90625 29 57.90625 20.125 
Q 57.90625 9.515625 50.796875 4.046875 
Q 43.703125 -1.421875 29.984375 -1.421875 
Q 24.8125 -1.421875 18.96875 -0.25 
Q 13.140625 0.921875 6.890625 3.21875 
L 6.890625 13.375 
Q 12.890625 10.015625 18.65625 8.296875 
Q 24.421875 6.59375 29.984375 6.59375 
Q 38.421875 6.59375 43.015625 9.90625 
Q 47.609375 13.234375 47.609375 19.390625 
Q 47.609375 24.75 44.3125 27.78125 
Q 41.015625 30.8125 33.5 32.328125 
L 27.484375 33.5 
Q 16.453125 35.6875 11.515625 40.375 
Q 6.59375 45.0625 6.59375 53.421875 
Q 6.59375 63.09375 13.40625 68.65625 
Q 20.21875 74.21875 32.171875 74.21875 
Q 37.3125 74.21875 42.625 73.28125 
Q 47.953125 72.359375 53.515625 70.515625 
z
" id="DejaVuSans-83"/>
      <path d="M 19.671875 64.796875 
L 19.671875 8.109375 
L 31.59375 8.109375 
Q 46.6875 8.109375 53.6875 14.9375 
Q 60.6875 21.78125 60.6875 36.53125 
Q 60.6875 51.171875 53.6875 57.984375 
Q 46.6875 64.796875 31.59375 64.796875 
z
M 9.8125 72.90625 
L 30.078125 72.90625 
Q 51.265625 72.90625 61.171875 64.09375 
Q 71.09375 55.28125 71.09375 36.53125 
Q 71.09375 17.671875 61.125 8.828125 
Q 51.171875 0 30.078125 0 
L 9.8125 0 
z
" id="DejaVuSans-68"/>
      <path id="DejaVuSans-32"/>
      <path d="M 37.109375 75.984375 
L 37.109375 68.5 
L 28.515625 68.5 
Q 23.6875 68.5 21.796875 66.546875 
Q 19.921875 64.59375 19.921875 59.515625 
L 19.921875 54.6875 
L 34.71875 54.6875 
L 34.71875 47.703125 
L 19.921875 47.703125 
L 19.921875 0 
L 10.890625 0 
L 10.890625 47.703125 
L 2.296875 47.703125 
L 2.296875 54.6875 
L 10.890625 54.6875 
L 10.890625 58.5 
Q 10.890625 67.625 15.140625 71.796875 
Q 19.390625 75.984375 28.609375 75.984375 
z
" id="DejaVuSans-102"/>
      <path d="M 41.109375 46.296875 
Q 39.59375 47.171875 37.8125 47.578125 
Q 36.03125 48 33.890625 48 
Q 26.265625 48 22.1875 43.046875 
Q 18.109375 38.09375 18.109375 28.8125 
L 18.109375 0 
L 9.078125 0 
L 9.078125 54.6875 
L 18.109375 54.6875 
L 18.109375 46.1875 
Q 20.953125 51.171875 25.484375 53.578125 
Q 30.03125 56 36.53125 56 
Q 37.453125 56 38.578125 55.875 
Q 39.703125 55.765625 41.0625 55.515625 
z
" id="DejaVuSans-114"/>
      <path d="M 30.609375 48.390625 
Q 23.390625 48.390625 19.1875 42.75 
Q 14.984375 37.109375 14.984375 27.296875 
Q 14.984375 17.484375 19.15625 11.84375 
Q 23.34375 6.203125 30.609375 6.203125 
Q 37.796875 6.203125 41.984375 11.859375 
Q 46.1875 17.53125 46.1875 27.296875 
Q 46.1875 37.015625 41.984375 42.703125 
Q 37.796875 48.390625 30.609375 48.390625 
z
M 30.609375 56 
Q 42.328125 56 49.015625 48.375 
Q 55.71875 40.765625 55.71875 27.296875 
Q 55.71875 13.875 49.015625 6.21875 
Q 42.328125 -1.421875 30.609375 -1.421875 
Q 18.84375 -1.421875 12.171875 6.21875 
Q 5.515625 13.875 5.515625 27.296875 
Q 5.515625 40.765625 12.171875 48.375 
Q 18.84375 56 30.609375 56 
z
" id="DejaVuSans-111"/>
      <path d="M 52 44.1875 
Q 55.375 50.25 60.0625 53.125 
Q 64.75 56 71.09375 56 
Q 79.640625 56 84.28125 50.015625 
Q 88.921875 44.046875 88.921875 33.015625 
L 88.921875 0 
L 79.890625 0 
L 79.890625 32.71875 
Q 79.890625 40.578125 77.09375 44.375 
Q 74.3125 48.1875 68.609375 48.1875 
Q 61.625 48.1875 57.5625 43.546875 
Q 53.515625 38.921875 53.515625 30.90625 
L 53.515625 0 
L 44.484375 0 
L 44.484375 32.71875 
Q 44.484375 40.625 41.703125 44.40625 
Q 38.921875 48.1875 33.109375 48.1875 
Q 26.21875 48.1875 22.15625 43.53125 
Q 18.109375 38.875 18.109375 30.90625 
L 18.109375 0 
L 9.078125 0 
L 9.078125 54.6875 
L 18.109375 54.6875 
L 18.109375 46.1875 
Q 21.1875 51.21875 25.484375 53.609375 
Q 29.78125 56 35.6875 56 
Q 41.65625 56 45.828125 52.96875 
Q 50 49.953125 52 44.1875 
z
" id="DejaVuSans-109"/>
      <path d="M 3.328125 72.90625 
L 13.28125 72.90625 
L 28.609375 11.28125 
L 43.890625 72.90625 
L 54.984375 72.90625 
L 70.3125 11.28125 
L 85.59375 72.90625 
L 95.609375 72.90625 
L 77.296875 0 
L 64.890625 0 
L 49.515625 63.28125 
L 33.984375 0 
L 21.578125 0 
z
" id="DejaVuSans-87"/>
      <path d="M -0.296875 72.90625 
L 61.375 72.90625 
L 61.375 64.59375 
L 35.5 64.59375 
L 35.5 0 
L 25.59375 0 
L 25.59375 64.59375 
L -0.296875 64.59375 
z
" id="DejaVuSans-84"/>
     </defs>
     <g transform="translate(108.594932 201.795781)scale(0.15 -0.15)">
      <use xlink:href="#DejaVuSans-74"/>
      <use x="29.492188" xlink:href="#DejaVuSans-83"/>
      <use x="92.96875" xlink:href="#DejaVuSans-68"/>
      <use x="169.970703" xlink:href="#DejaVuSans-49"/>
      <use x="233.59375" xlink:href="#DejaVuSans-32"/>
      <use x="265.380859" xlink:href="#DejaVuSans-102"/>
      <use x="300.585938" xlink:href="#DejaVuSans-114"/>
      <use x="341.667969" xlink:href="#DejaVuSans-111"/>
      <use x="402.849609" xlink:href="#DejaVuSans-109"/>
      <use x="500.261719" xlink:href="#DejaVuSans-32"/>
      <use x="532.048828" xlink:href="#DejaVuSans-87"/>
      <use x="630.925781" xlink:href="#DejaVuSans-84"/>
     </g>
    </g>
   </g>
   <g id="matplotlib.axis_2">
    <g id="ytick_1">
     <g id="line2d_7">
      <defs>
       <path d="M 0 0 
L -3.5 0 
" id="mb0911a9537" style="stroke:#000000;stroke-width:0.8;"/>
      </defs>
      <g>
       <use style="stroke:#000000;stroke-width:0.8;" x="52.04" xlink:href="#mb0911a9537" y="159.880154"/>
      </g>
     </g>
     <g id="text_8">
      <!-- 0.0 -->
      <g transform="translate(29.136875 163.679372)scale(0.1 -0.1)">
       <use xlink:href="#DejaVuSans-48"/>
       <use x="63.623047" xlink:href="#DejaVuSans-46"/>
       <use x="95.410156" xlink:href="#DejaVuSans-48"/>
      </g>
     </g>
    </g>
    <g id="ytick_2">
     <g id="line2d_8">
      <g>
       <use style="stroke:#000000;stroke-width:0.8;" x="52.04" xlink:href="#mb0911a9537" y="135.115336"/>
      </g>
     </g>
     <g id="text_9">
      <!-- 0.1 -->
      <g transform="translate(29.136875 138.914555)scale(0.1 -0.1)">
       <use xlink:href="#DejaVuSans-48"/>
       <use x="63.623047" xlink:href="#DejaVuSans-46"/>
       <use x="95.410156" xlink:href="#DejaVuSans-49"/>
      </g>
     </g>
    </g>
    <g id="ytick_3">
     <g id="line2d_9">
      <g>
       <use style="stroke:#000000;stroke-width:0.8;" x="52.04" xlink:href="#mb0911a9537" y="110.350518"/>
      </g>
     </g>
     <g id="text_10">
      <!-- 0.2 -->
      <g transform="translate(29.136875 114.149737)scale(0.1 -0.1)">
       <use xlink:href="#DejaVuSans-48"/>
       <use x="63.623047" xlink:href="#DejaVuSans-46"/>
       <use x="95.410156" xlink:href="#DejaVuSans-50"/>
      </g>
     </g>
    </g>
    <g id="ytick_4">
     <g id="line2d_10">
      <g>
       <use style="stroke:#000000;stroke-width:0.8;" x="52.04" xlink:href="#mb0911a9537" y="85.5857"/>
      </g>
     </g>
     <g id="text_11">
      <!-- 0.3 -->
      <g transform="translate(29.136875 89.384919)scale(0.1 -0.1)">
       <use xlink:href="#DejaVuSans-48"/>
       <use x="63.623047" xlink:href="#DejaVuSans-46"/>
       <use x="95.410156" xlink:href="#DejaVuSans-51"/>
      </g>
     </g>
    </g>
    <g id="ytick_5">
     <g id="line2d_11">
      <g>
       <use style="stroke:#000000;stroke-width:0.8;" x="52.04" xlink:href="#mb0911a9537" y="60.820882"/>
      </g>
     </g>
     <g id="text_12">
      <!-- 0.4 -->
      <g transform="translate(29.136875 64.620101)scale(0.1 -0.1)">
       <use xlink:href="#DejaVuSans-48"/>
       <use x="63.623047" xlink:href="#DejaVuSans-46"/>
       <use x="95.410156" xlink:href="#DejaVuSans-52"/>
      </g>
     </g>
    </g>
    <g id="ytick_6">
     <g id="line2d_12">
      <g>
       <use style="stroke:#000000;stroke-width:0.8;" x="52.04" xlink:href="#mb0911a9537" y="36.056065"/>
      </g>
     </g>
     <g id="text_13">
      <!-- 0.5 -->
      <g transform="translate(29.136875 39.855283)scale(0.1 -0.1)">
       <use xlink:href="#DejaVuSans-48"/>
       <use x="63.623047" xlink:href="#DejaVuSans-46"/>
       <use x="95.410156" xlink:href="#DejaVuSans-53"/>
      </g>
     </g>
    </g>
    <g id="text_14">
     <!-- JSD2 from WT -->
     <g transform="translate(22.017344 148.76)rotate(-90)scale(0.15 -0.15)">
      <use xlink:href="#DejaVuSans-74"/>
      <use x="29.492188" xlink:href="#DejaVuSans-83"/>
      <use x="92.96875" xlink:href="#DejaVuSans-68"/>
      <use x="169.970703" xlink:href="#DejaVuSans-50"/>
      <use x="233.59375" xlink:href="#DejaVuSans-32"/>
      <use x="265.380859" xlink:href="#DejaVuSans-102"/>
      <use x="300.585938" xlink:href="#DejaVuSans-114"/>
      <use x="341.667969" xlink:href="#DejaVuSans-111"/>
      <use x="402.849609" xlink:href="#DejaVuSans-109"/>
      <use x="500.261719" xlink:href="#DejaVuSans-32"/>
      <use x="532.048828" xlink:href="#DejaVuSans-87"/>
      <use x="630.925781" xlink:href="#DejaVuSans-84"/>
     </g>
    </g>
   </g>
   <g id="patch_3">
    <path d="M 52.04 169.72 
L 52.04 24 
" style="fill:none;stroke:#000000;stroke-linecap:square;stroke-linejoin:miter;stroke-width:0.8;"/>
   </g>
   <g id="patch_4">
    <path d="M 268.949864 169.72 
L 268.949864 24 
" style="fill:none;stroke:#000000;stroke-linecap:square;stroke-linejoin:miter;stroke-width:0.8;"/>
   </g>
   <g id="patch_5">
    <path d="M 52.04 169.72 
L 268.949864 169.72 
" style="fill:none;stroke:#000000;stroke-linecap:square;stroke-linejoin:miter;stroke-width:0.8;"/>
   </g>
   <g id="patch_6">
    <path d="M 52.04 24 
L 268.949864 24 
" style="fill:none;stroke:#000000;stroke-linecap:square;stroke-linejoin:miter;stroke-width:0.8;"/>
   </g>
   <g id="text_15">
    <!-- JSD1 &amp; JSD2: 0.8605 -->
    <defs>
     <path d="M 24.3125 39.203125 
Q 19.875 35.25 17.796875 31.3125 
Q 15.71875 27.390625 15.71875 23.09375 
Q 15.71875 15.96875 20.890625 11.234375 
Q 26.078125 6.5 33.890625 6.5 
Q 38.53125 6.5 42.578125 8.03125 
Q 46.625 9.578125 50.203125 12.703125 
z
M 31.203125 44.671875 
L 56 19.28125 
Q 58.890625 23.640625 60.5 28.59375 
Q 62.109375 33.546875 62.40625 39.109375 
L 71.484375 39.109375 
Q 70.90625 32.671875 68.359375 26.359375 
Q 65.828125 20.0625 61.28125 13.921875 
L 74.90625 0 
L 62.59375 0 
L 55.609375 7.171875 
Q 50.53125 2.828125 44.96875 0.703125 
Q 39.40625 -1.421875 33.015625 -1.421875 
Q 21.234375 -1.421875 13.765625 5.296875 
Q 6.296875 12.015625 6.296875 22.515625 
Q 6.296875 28.765625 9.5625 34.25 
Q 12.84375 39.75 19.390625 44.578125 
Q 17.046875 47.65625 15.8125 50.703125 
Q 14.59375 53.765625 14.59375 56.6875 
Q 14.59375 64.59375 20.015625 69.40625 
Q 25.4375 74.21875 34.421875 74.21875 
Q 38.484375 74.21875 42.5 73.34375 
Q 46.53125 72.46875 50.6875 70.703125 
L 50.6875 61.8125 
Q 46.4375 64.109375 42.578125 65.296875 
Q 38.71875 66.5 35.40625 66.5 
Q 30.28125 66.5 27.078125 63.78125 
Q 23.875 61.078125 23.875 56.78125 
Q 23.875 54.296875 25.3125 51.78125 
Q 26.765625 49.265625 31.203125 44.671875 
z
" id="DejaVuSans-38"/>
     <path d="M 11.71875 12.40625 
L 22.015625 12.40625 
L 22.015625 0 
L 11.71875 0 
z
M 11.71875 51.703125 
L 22.015625 51.703125 
L 22.015625 39.3125 
L 11.71875 39.3125 
z
" id="DejaVuSans-58"/>
     <path d="M 31.78125 34.625 
Q 24.75 34.625 20.71875 30.859375 
Q 16.703125 27.09375 16.703125 20.515625 
Q 16.703125 13.921875 20.71875 10.15625 
Q 24.75 6.390625 31.78125 6.390625 
Q 38.8125 6.390625 42.859375 10.171875 
Q 46.921875 13.96875 46.921875 20.515625 
Q 46.921875 27.09375 42.890625 30.859375 
Q 38.875 34.625 31.78125 34.625 
z
M 21.921875 38.8125 
Q 15.578125 40.375 12.03125 44.71875 
Q 8.5 49.078125 8.5 55.328125 
Q 8.5 64.0625 14.71875 69.140625 
Q 20.953125 74.21875 31.78125 74.21875 
Q 42.671875 74.21875 48.875 69.140625 
Q 55.078125 64.0625 55.078125 55.328125 
Q 55.078125 49.078125 51.53125 44.71875 
Q 48 40.375 41.703125 38.8125 
Q 48.828125 37.15625 52.796875 32.3125 
Q 56.78125 27.484375 56.78125 20.515625 
Q 56.78125 9.90625 50.3125 4.234375 
Q 43.84375 -1.421875 31.78125 -1.421875 
Q 19.734375 -1.421875 13.25 4.234375 
Q 6.78125 9.90625 6.78125 20.515625 
Q 6.78125 27.484375 10.78125 32.3125 
Q 14.796875 37.15625 21.921875 38.8125 
z
M 18.3125 54.390625 
Q 18.3125 48.734375 21.84375 45.5625 
Q 25.390625 42.390625 31.78125 42.390625 
Q 38.140625 42.390625 41.71875 45.5625 
Q 45.3125 48.734375 45.3125 54.390625 
Q 45.3125 60.0625 41.71875 63.234375 
Q 38.140625 66.40625 31.78125 66.40625 
Q 25.390625 66.40625 21.84375 63.234375 
Q 18.3125 60.0625 18.3125 54.390625 
z
" id="DejaVuSans-56"/>
     <path d="M 33.015625 40.375 
Q 26.375 40.375 22.484375 35.828125 
Q 18.609375 31.296875 18.609375 23.390625 
Q 18.609375 15.53125 22.484375 10.953125 
Q 26.375 6.390625 33.015625 6.390625 
Q 39.65625 6.390625 43.53125 10.953125 
Q 47.40625 15.53125 47.40625 23.390625 
Q 47.40625 31.296875 43.53125 35.828125 
Q 39.65625 40.375 33.015625 40.375 
z
M 52.59375 71.296875 
L 52.59375 62.3125 
Q 48.875 64.0625 45.09375 64.984375 
Q 41.3125 65.921875 37.59375 65.921875 
Q 27.828125 65.921875 22.671875 59.328125 
Q 17.53125 52.734375 16.796875 39.40625 
Q 19.671875 43.65625 24.015625 45.921875 
Q 28.375 48.1875 33.59375 48.1875 
Q 44.578125 48.1875 50.953125 41.515625 
Q 57.328125 34.859375 57.328125 23.390625 
Q 57.328125 12.15625 50.6875 5.359375 
Q 44.046875 -1.421875 33.015625 -1.421875 
Q 20.359375 -1.421875 13.671875 8.265625 
Q 6.984375 17.96875 6.984375 36.375 
Q 6.984375 53.65625 15.1875 63.9375 
Q 23.390625 74.21875 37.203125 74.21875 
Q 40.921875 74.21875 44.703125 73.484375 
Q 48.484375 72.75 52.59375 71.296875 
z
" id="DejaVuSans-54"/>
    </defs>
    <g transform="translate(117.839475 18)scale(0.0833 -0.0833)">
     <use xlink:href="#DejaVuSans-74"/>
     <use x="29.492188" xlink:href="#DejaVuSans-83"/>
     <use x="92.96875" xlink:href="#DejaVuSans-68"/>
     <use x="169.970703" xlink:href="#DejaVuSans-49"/>
     <use x="233.59375" xlink:href="#DejaVuSans-32"/>
     <use x="265.380859" xlink:href="#DejaVuSans-38"/>
     <use x="343.359375" xlink:href="#DejaVuSans-32"/>
     <use x="375.146484" xlink:href="#DejaVuSans-74"/>
     <use x="404.638672" xlink:href="#DejaVuSans-83"/>
     <use x="468.115234" xlink:href="#DejaVuSans-68"/>
     <use x="545.117188" xlink:href="#DejaVuSans-50"/>
     <use x="608.740234" xlink:href="#DejaVuSans-58"/>
     <use x="642.431641" xlink:href="#DejaVuSans-32"/>
     <use x="674.21875" xlink:href="#DejaVuSans-48"/>
     <use x="737.841797" xlink:href="#DejaVuSans-46"/>
     <use x="769.628906" xlink:href="#DejaVuSans-56"/>
     <use x="833.251953" xlink:href="#DejaVuSans-54"/>
     <use x="896.875" xlink:href="#DejaVuSans-48"/>
     <use x="960.498047" xlink:href="#DejaVuSans-53"/>
    </g>
   </g>
  </g>
 </g>
 <defs>
  <clipPath id="p5fbdcc0fbf">
   <rect height="145.72" width="216.909864" x="52.04" y="24"/>
  </clipPath>
 </defs>
</svg>
