<?xml version="1.0" encoding="utf-8" standalone="no"?>
<!DOCTYPE svg PUBLIC "-//W3C//DTD SVG 1.1//EN"
  "http://www.w3.org/Graphics/SVG/1.1/DTD/svg11.dtd">
<!-- Created with matplotlib (https://matplotlib.org/) -->
<svg height="216pt" version="1.1" viewBox="0 0 288 216" width="288pt" xmlns="http://www.w3.org/2000/svg" xmlns:xlink="http://www.w3.org/1999/xlink">
 <defs>
  <style type="text/css">
*{stroke-linecap:butt;stroke-linejoin:round;}
  </style>
 </defs>
 <g id="figure_1">
  <g id="patch_1">
   <path d="M 0 216 
L 288 216 
L 288 0 
L 0 0 
z
" style="fill:#ffffff;"/>
  </g>
  <g id="axes_1">
   <g id="patch_2">
    <path d="M 48.44 173.32 
L 274.68 173.32 
L 274.68 13.32 
L 48.44 13.32 
z
" style="fill:#ffffff;"/>
   </g>
   <g id="matplotlib.axis_1">
    <g id="xtick_1">
     <g id="line2d_1">
      <defs>
       <path d="M 0 0 
L 0 3.5 
" id="m6a2c1a7af2" style="stroke:#000000;stroke-width:0.8;"/>
      </defs>
      <g>
       <use style="stroke:#000000;stroke-width:0.8;" x="58.722782" xlink:href="#m6a2c1a7af2" y="173.32"/>
      </g>
     </g>
     <g id="text_1">
      <!-- 0.0 -->
      <defs>
       <path d="M 31.78125 66.40625 
Q 24.171875 66.40625 20.328125 58.90625 
Q 16.5 51.421875 16.5 36.375 
Q 16.5 21.390625 20.328125 13.890625 
Q 24.171875 6.390625 31.78125 6.390625 
Q 39.453125 6.390625 43.28125 13.890625 
Q 47.125 21.390625 47.125 36.375 
Q 47.125 51.421875 43.28125 58.90625 
Q 39.453125 66.40625 31.78125 66.40625 
z
M 31.78125 74.21875 
Q 44.046875 74.21875 50.515625 64.515625 
Q 56.984375 54.828125 56.984375 36.375 
Q 56.984375 17.96875 50.515625 8.265625 
Q 44.046875 -1.421875 31.78125 -1.421875 
Q 19.53125 -1.421875 13.0625 8.265625 
Q 6.59375 17.96875 6.59375 36.375 
Q 6.59375 54.828125 13.0625 64.515625 
Q 19.53125 74.21875 31.78125 74.21875 
z
" id="DejaVuSans-48"/>
       <path d="M 10.6875 12.40625 
L 21 12.40625 
L 21 0 
L 10.6875 0 
z
" id="DejaVuSans-46"/>
      </defs>
      <g transform="translate(50.771219 187.918437)scale(0.1 -0.1)">
       <use xlink:href="#DejaVuSans-48"/>
       <use x="63.623047" xlink:href="#DejaVuSans-46"/>
       <use x="95.410156" xlink:href="#DejaVuSans-48"/>
      </g>
     </g>
    </g>
    <g id="xtick_2">
     <g id="line2d_2">
      <g>
       <use style="stroke:#000000;stroke-width:0.8;" x="99.857498" xlink:href="#m6a2c1a7af2" y="173.32"/>
      </g>
     </g>
     <g id="text_2">
      <!-- 0.2 -->
      <defs>
       <path d="M 19.1875 8.296875 
L 53.609375 8.296875 
L 53.609375 0 
L 7.328125 0 
L 7.328125 8.296875 
Q 12.9375 14.109375 22.625 23.890625 
Q 32.328125 33.6875 34.8125 36.53125 
Q 39.546875 41.84375 41.421875 45.53125 
Q 43.3125 49.21875 43.3125 52.78125 
Q 43.3125 58.59375 39.234375 62.25 
Q 35.15625 65.921875 28.609375 65.921875 
Q 23.96875 65.921875 18.8125 64.3125 
Q 13.671875 62.703125 7.8125 59.421875 
L 7.8125 69.390625 
Q 13.765625 71.78125 18.9375 73 
Q 24.125 74.21875 28.421875 74.21875 
Q 39.75 74.21875 46.484375 68.546875 
Q 53.21875 62.890625 53.21875 53.421875 
Q 53.21875 48.921875 51.53125 44.890625 
Q 49.859375 40.875 45.40625 35.40625 
Q 44.1875 33.984375 37.640625 27.21875 
Q 31.109375 20.453125 19.1875 8.296875 
z
" id="DejaVuSans-50"/>
      </defs>
      <g transform="translate(91.905936 187.918437)scale(0.1 -0.1)">
       <use xlink:href="#DejaVuSans-48"/>
       <use x="63.623047" xlink:href="#DejaVuSans-46"/>
       <use x="95.410156" xlink:href="#DejaVuSans-50"/>
      </g>
     </g>
    </g>
    <g id="xtick_3">
     <g id="line2d_3">
      <g>
       <use style="stroke:#000000;stroke-width:0.8;" x="140.992214" xlink:href="#m6a2c1a7af2" y="173.32"/>
      </g>
     </g>
     <g id="text_3">
      <!-- 0.4 -->
      <defs>
       <path d="M 37.796875 64.3125 
L 12.890625 25.390625 
L 37.796875 25.390625 
z
M 35.203125 72.90625 
L 47.609375 72.90625 
L 47.609375 25.390625 
L 58.015625 25.390625 
L 58.015625 17.1875 
L 47.609375 17.1875 
L 47.609375 0 
L 37.796875 0 
L 37.796875 17.1875 
L 4.890625 17.1875 
L 4.890625 26.703125 
z
" id="DejaVuSans-52"/>
      </defs>
      <g transform="translate(133.040652 187.918437)scale(0.1 -0.1)">
       <use xlink:href="#DejaVuSans-48"/>
       <use x="63.623047" xlink:href="#DejaVuSans-46"/>
       <use x="95.410156" xlink:href="#DejaVuSans-52"/>
      </g>
     </g>
    </g>
    <g id="xtick_4">
     <g id="line2d_4">
      <g>
       <use style="stroke:#000000;stroke-width:0.8;" x="182.126931" xlink:href="#m6a2c1a7af2" y="173.32"/>
      </g>
     </g>
     <g id="text_4">
      <!-- 0.6 -->
      <defs>
       <path d="M 33.015625 40.375 
Q 26.375 40.375 22.484375 35.828125 
Q 18.609375 31.296875 18.609375 23.390625 
Q 18.609375 15.53125 22.484375 10.953125 
Q 26.375 6.390625 33.015625 6.390625 
Q 39.65625 6.390625 43.53125 10.953125 
Q 47.40625 15.53125 47.40625 23.390625 
Q 47.40625 31.296875 43.53125 35.828125 
Q 39.65625 40.375 33.015625 40.375 
z
M 52.59375 71.296875 
L 52.59375 62.3125 
Q 48.875 64.0625 45.09375 64.984375 
Q 41.3125 65.921875 37.59375 65.921875 
Q 27.828125 65.921875 22.671875 59.328125 
Q 17.53125 52.734375 16.796875 39.40625 
Q 19.671875 43.65625 24.015625 45.921875 
Q 28.375 48.1875 33.59375 48.1875 
Q 44.578125 48.1875 50.953125 41.515625 
Q 57.328125 34.859375 57.328125 23.390625 
Q 57.328125 12.15625 50.6875 5.359375 
Q 44.046875 -1.421875 33.015625 -1.421875 
Q 20.359375 -1.421875 13.671875 8.265625 
Q 6.984375 17.96875 6.984375 36.375 
Q 6.984375 53.65625 15.1875 63.9375 
Q 23.390625 74.21875 37.203125 74.21875 
Q 40.921875 74.21875 44.703125 73.484375 
Q 48.484375 72.75 52.59375 71.296875 
z
" id="DejaVuSans-54"/>
      </defs>
      <g transform="translate(174.175368 187.918437)scale(0.1 -0.1)">
       <use xlink:href="#DejaVuSans-48"/>
       <use x="63.623047" xlink:href="#DejaVuSans-46"/>
       <use x="95.410156" xlink:href="#DejaVuSans-54"/>
      </g>
     </g>
    </g>
    <g id="xtick_5">
     <g id="line2d_5">
      <g>
       <use style="stroke:#000000;stroke-width:0.8;" x="223.261647" xlink:href="#m6a2c1a7af2" y="173.32"/>
      </g>
     </g>
     <g id="text_5">
      <!-- 0.8 -->
      <defs>
       <path d="M 31.78125 34.625 
Q 24.75 34.625 20.71875 30.859375 
Q 16.703125 27.09375 16.703125 20.515625 
Q 16.703125 13.921875 20.71875 10.15625 
Q 24.75 6.390625 31.78125 6.390625 
Q 38.8125 6.390625 42.859375 10.171875 
Q 46.921875 13.96875 46.921875 20.515625 
Q 46.921875 27.09375 42.890625 30.859375 
Q 38.875 34.625 31.78125 34.625 
z
M 21.921875 38.8125 
Q 15.578125 40.375 12.03125 44.71875 
Q 8.5 49.078125 8.5 55.328125 
Q 8.5 64.0625 14.71875 69.140625 
Q 20.953125 74.21875 31.78125 74.21875 
Q 42.671875 74.21875 48.875 69.140625 
Q 55.078125 64.0625 55.078125 55.328125 
Q 55.078125 49.078125 51.53125 44.71875 
Q 48 40.375 41.703125 38.8125 
Q 48.828125 37.15625 52.796875 32.3125 
Q 56.78125 27.484375 56.78125 20.515625 
Q 56.78125 9.90625 50.3125 4.234375 
Q 43.84375 -1.421875 31.78125 -1.421875 
Q 19.734375 -1.421875 13.25 4.234375 
Q 6.78125 9.90625 6.78125 20.515625 
Q 6.78125 27.484375 10.78125 32.3125 
Q 14.796875 37.15625 21.921875 38.8125 
z
M 18.3125 54.390625 
Q 18.3125 48.734375 21.84375 45.5625 
Q 25.390625 42.390625 31.78125 42.390625 
Q 38.140625 42.390625 41.71875 45.5625 
Q 45.3125 48.734375 45.3125 54.390625 
Q 45.3125 60.0625 41.71875 63.234375 
Q 38.140625 66.40625 31.78125 66.40625 
Q 25.390625 66.40625 21.84375 63.234375 
Q 18.3125 60.0625 18.3125 54.390625 
z
" id="DejaVuSans-56"/>
      </defs>
      <g transform="translate(215.310085 187.918437)scale(0.1 -0.1)">
       <use xlink:href="#DejaVuSans-48"/>
       <use x="63.623047" xlink:href="#DejaVuSans-46"/>
       <use x="95.410156" xlink:href="#DejaVuSans-56"/>
      </g>
     </g>
    </g>
    <g id="xtick_6">
     <g id="line2d_6">
      <g>
       <use style="stroke:#000000;stroke-width:0.8;" x="264.396364" xlink:href="#m6a2c1a7af2" y="173.32"/>
      </g>
     </g>
     <g id="text_6">
      <!-- 1.0 -->
      <defs>
       <path d="M 12.40625 8.296875 
L 28.515625 8.296875 
L 28.515625 63.921875 
L 10.984375 60.40625 
L 10.984375 69.390625 
L 28.421875 72.90625 
L 38.28125 72.90625 
L 38.28125 8.296875 
L 54.390625 8.296875 
L 54.390625 0 
L 12.40625 0 
z
" id="DejaVuSans-49"/>
      </defs>
      <g transform="translate(256.444801 187.918437)scale(0.1 -0.1)">
       <use xlink:href="#DejaVuSans-49"/>
       <use x="63.623047" xlink:href="#DejaVuSans-46"/>
       <use x="95.410156" xlink:href="#DejaVuSans-48"/>
      </g>
     </g>
    </g>
    <g id="text_7">
     <!-- Boolean JSD from WT -->
     <defs>
      <path d="M 19.671875 34.8125 
L 19.671875 8.109375 
L 35.5 8.109375 
Q 43.453125 8.109375 47.28125 11.40625 
Q 51.125 14.703125 51.125 21.484375 
Q 51.125 28.328125 47.28125 31.5625 
Q 43.453125 34.8125 35.5 34.8125 
z
M 19.671875 64.796875 
L 19.671875 42.828125 
L 34.28125 42.828125 
Q 41.5 42.828125 45.03125 45.53125 
Q 48.578125 48.25 48.578125 53.8125 
Q 48.578125 59.328125 45.03125 62.0625 
Q 41.5 64.796875 34.28125 64.796875 
z
M 9.8125 72.90625 
L 35.015625 72.90625 
Q 46.296875 72.90625 52.390625 68.21875 
Q 58.5 63.53125 58.5 54.890625 
Q 58.5 48.1875 55.375 44.234375 
Q 52.25 40.28125 46.1875 39.3125 
Q 53.46875 37.75 57.5 32.78125 
Q 61.53125 27.828125 61.53125 20.40625 
Q 61.53125 10.640625 54.890625 5.3125 
Q 48.25 0 35.984375 0 
L 9.8125 0 
z
" id="DejaVuSans-66"/>
      <path d="M 30.609375 48.390625 
Q 23.390625 48.390625 19.1875 42.75 
Q 14.984375 37.109375 14.984375 27.296875 
Q 14.984375 17.484375 19.15625 11.84375 
Q 23.34375 6.203125 30.609375 6.203125 
Q 37.796875 6.203125 41.984375 11.859375 
Q 46.1875 17.53125 46.1875 27.296875 
Q 46.1875 37.015625 41.984375 42.703125 
Q 37.796875 48.390625 30.609375 48.390625 
z
M 30.609375 56 
Q 42.328125 56 49.015625 48.375 
Q 55.71875 40.765625 55.71875 27.296875 
Q 55.71875 13.875 49.015625 6.21875 
Q 42.328125 -1.421875 30.609375 -1.421875 
Q 18.84375 -1.421875 12.171875 6.21875 
Q 5.515625 13.875 5.515625 27.296875 
Q 5.515625 40.765625 12.171875 48.375 
Q 18.84375 56 30.609375 56 
z
" id="DejaVuSans-111"/>
      <path d="M 9.421875 75.984375 
L 18.40625 75.984375 
L 18.40625 0 
L 9.421875 0 
z
" id="DejaVuSans-108"/>
      <path d="M 56.203125 29.59375 
L 56.203125 25.203125 
L 14.890625 25.203125 
Q 15.484375 15.921875 20.484375 11.0625 
Q 25.484375 6.203125 34.421875 6.203125 
Q 39.59375 6.203125 44.453125 7.46875 
Q 49.3125 8.734375 54.109375 11.28125 
L 54.109375 2.78125 
Q 49.265625 0.734375 44.1875 -0.34375 
Q 39.109375 -1.421875 33.890625 -1.421875 
Q 20.796875 -1.421875 13.15625 6.1875 
Q 5.515625 13.8125 5.515625 26.8125 
Q 5.515625 40.234375 12.765625 48.109375 
Q 20.015625 56 32.328125 56 
Q 43.359375 56 49.78125 48.890625 
Q 56.203125 41.796875 56.203125 29.59375 
z
M 47.21875 32.234375 
Q 47.125 39.59375 43.09375 43.984375 
Q 39.0625 48.390625 32.421875 48.390625 
Q 24.90625 48.390625 20.390625 44.140625 
Q 15.875 39.890625 15.1875 32.171875 
z
" id="DejaVuSans-101"/>
      <path d="M 34.28125 27.484375 
Q 23.390625 27.484375 19.1875 25 
Q 14.984375 22.515625 14.984375 16.5 
Q 14.984375 11.71875 18.140625 8.90625 
Q 21.296875 6.109375 26.703125 6.109375 
Q 34.1875 6.109375 38.703125 11.40625 
Q 43.21875 16.703125 43.21875 25.484375 
L 43.21875 27.484375 
z
M 52.203125 31.203125 
L 52.203125 0 
L 43.21875 0 
L 43.21875 8.296875 
Q 40.140625 3.328125 35.546875 0.953125 
Q 30.953125 -1.421875 24.3125 -1.421875 
Q 15.921875 -1.421875 10.953125 3.296875 
Q 6 8.015625 6 15.921875 
Q 6 25.140625 12.171875 29.828125 
Q 18.359375 34.515625 30.609375 34.515625 
L 43.21875 34.515625 
L 43.21875 35.40625 
Q 43.21875 41.609375 39.140625 45 
Q 35.0625 48.390625 27.6875 48.390625 
Q 23 48.390625 18.546875 47.265625 
Q 14.109375 46.140625 10.015625 43.890625 
L 10.015625 52.203125 
Q 14.9375 54.109375 19.578125 55.046875 
Q 24.21875 56 28.609375 56 
Q 40.484375 56 46.34375 49.84375 
Q 52.203125 43.703125 52.203125 31.203125 
z
" id="DejaVuSans-97"/>
      <path d="M 54.890625 33.015625 
L 54.890625 0 
L 45.90625 0 
L 45.90625 32.71875 
Q 45.90625 40.484375 42.875 44.328125 
Q 39.84375 48.1875 33.796875 48.1875 
Q 26.515625 48.1875 22.3125 43.546875 
Q 18.109375 38.921875 18.109375 30.90625 
L 18.109375 0 
L 9.078125 0 
L 9.078125 54.6875 
L 18.109375 54.6875 
L 18.109375 46.1875 
Q 21.34375 51.125 25.703125 53.5625 
Q 30.078125 56 35.796875 56 
Q 45.21875 56 50.046875 50.171875 
Q 54.890625 44.34375 54.890625 33.015625 
z
" id="DejaVuSans-110"/>
      <path id="DejaVuSans-32"/>
      <path d="M 9.8125 72.90625 
L 19.671875 72.90625 
L 19.671875 5.078125 
Q 19.671875 -8.109375 14.671875 -14.0625 
Q 9.671875 -20.015625 -1.421875 -20.015625 
L -5.171875 -20.015625 
L -5.171875 -11.71875 
L -2.09375 -11.71875 
Q 4.4375 -11.71875 7.125 -8.046875 
Q 9.8125 -4.390625 9.8125 5.078125 
z
" id="DejaVuSans-74"/>
      <path d="M 53.515625 70.515625 
L 53.515625 60.890625 
Q 47.90625 63.578125 42.921875 64.890625 
Q 37.9375 66.21875 33.296875 66.21875 
Q 25.25 66.21875 20.875 63.09375 
Q 16.5 59.96875 16.5 54.203125 
Q 16.5 49.359375 19.40625 46.890625 
Q 22.3125 44.4375 30.421875 42.921875 
L 36.375 41.703125 
Q 47.40625 39.59375 52.65625 34.296875 
Q 57.90625 29 57.90625 20.125 
Q 57.90625 9.515625 50.796875 4.046875 
Q 43.703125 -1.421875 29.984375 -1.421875 
Q 24.8125 -1.421875 18.96875 -0.25 
Q 13.140625 0.921875 6.890625 3.21875 
L 6.890625 13.375 
Q 12.890625 10.015625 18.65625 8.296875 
Q 24.421875 6.59375 29.984375 6.59375 
Q 38.421875 6.59375 43.015625 9.90625 
Q 47.609375 13.234375 47.609375 19.390625 
Q 47.609375 24.75 44.3125 27.78125 
Q 41.015625 30.8125 33.5 32.328125 
L 27.484375 33.5 
Q 16.453125 35.6875 11.515625 40.375 
Q 6.59375 45.0625 6.59375 53.421875 
Q 6.59375 63.09375 13.40625 68.65625 
Q 20.21875 74.21875 32.171875 74.21875 
Q 37.3125 74.21875 42.625 73.28125 
Q 47.953125 72.359375 53.515625 70.515625 
z
" id="DejaVuSans-83"/>
      <path d="M 19.671875 64.796875 
L 19.671875 8.109375 
L 31.59375 8.109375 
Q 46.6875 8.109375 53.6875 14.9375 
Q 60.6875 21.78125 60.6875 36.53125 
Q 60.6875 51.171875 53.6875 57.984375 
Q 46.6875 64.796875 31.59375 64.796875 
z
M 9.8125 72.90625 
L 30.078125 72.90625 
Q 51.265625 72.90625 61.171875 64.09375 
Q 71.09375 55.28125 71.09375 36.53125 
Q 71.09375 17.671875 61.125 8.828125 
Q 51.171875 0 30.078125 0 
L 9.8125 0 
z
" id="DejaVuSans-68"/>
      <path d="M 37.109375 75.984375 
L 37.109375 68.5 
L 28.515625 68.5 
Q 23.6875 68.5 21.796875 66.546875 
Q 19.921875 64.59375 19.921875 59.515625 
L 19.921875 54.6875 
L 34.71875 54.6875 
L 34.71875 47.703125 
L 19.921875 47.703125 
L 19.921875 0 
L 10.890625 0 
L 10.890625 47.703125 
L 2.296875 47.703125 
L 2.296875 54.6875 
L 10.890625 54.6875 
L 10.890625 58.5 
Q 10.890625 67.625 15.140625 71.796875 
Q 19.390625 75.984375 28.609375 75.984375 
z
" id="DejaVuSans-102"/>
      <path d="M 41.109375 46.296875 
Q 39.59375 47.171875 37.8125 47.578125 
Q 36.03125 48 33.890625 48 
Q 26.265625 48 22.1875 43.046875 
Q 18.109375 38.09375 18.109375 28.8125 
L 18.109375 0 
L 9.078125 0 
L 9.078125 54.6875 
L 18.109375 54.6875 
L 18.109375 46.1875 
Q 20.953125 51.171875 25.484375 53.578125 
Q 30.03125 56 36.53125 56 
Q 37.453125 56 38.578125 55.875 
Q 39.703125 55.765625 41.0625 55.515625 
z
" id="DejaVuSans-114"/>
      <path d="M 52 44.1875 
Q 55.375 50.25 60.0625 53.125 
Q 64.75 56 71.09375 56 
Q 79.640625 56 84.28125 50.015625 
Q 88.921875 44.046875 88.921875 33.015625 
L 88.921875 0 
L 79.890625 0 
L 79.890625 32.71875 
Q 79.890625 40.578125 77.09375 44.375 
Q 74.3125 48.1875 68.609375 48.1875 
Q 61.625 48.1875 57.5625 43.546875 
Q 53.515625 38.921875 53.515625 30.90625 
L 53.515625 0 
L 44.484375 0 
L 44.484375 32.71875 
Q 44.484375 40.625 41.703125 44.40625 
Q 38.921875 48.1875 33.109375 48.1875 
Q 26.21875 48.1875 22.15625 43.53125 
Q 18.109375 38.875 18.109375 30.90625 
L 18.109375 0 
L 9.078125 0 
L 9.078125 54.6875 
L 18.109375 54.6875 
L 18.109375 46.1875 
Q 21.1875 51.21875 25.484375 53.609375 
Q 29.78125 56 35.6875 56 
Q 41.65625 56 45.828125 52.96875 
Q 50 49.953125 52 44.1875 
z
" id="DejaVuSans-109"/>
      <path d="M 3.328125 72.90625 
L 13.28125 72.90625 
L 28.609375 11.28125 
L 43.890625 72.90625 
L 54.984375 72.90625 
L 70.3125 11.28125 
L 85.59375 72.90625 
L 95.609375 72.90625 
L 77.296875 0 
L 64.890625 0 
L 49.515625 63.28125 
L 33.984375 0 
L 21.578125 0 
z
" id="DejaVuSans-87"/>
      <path d="M -0.296875 72.90625 
L 61.375 72.90625 
L 61.375 64.59375 
L 35.5 64.59375 
L 35.5 0 
L 25.59375 0 
L 25.59375 64.59375 
L -0.296875 64.59375 
z
" id="DejaVuSans-84"/>
     </defs>
     <g transform="translate(97.653437 203.11625)scale(0.12 -0.12)">
      <use xlink:href="#DejaVuSans-66"/>
      <use x="68.603516" xlink:href="#DejaVuSans-111"/>
      <use x="129.785156" xlink:href="#DejaVuSans-111"/>
      <use x="190.966797" xlink:href="#DejaVuSans-108"/>
      <use x="218.75" xlink:href="#DejaVuSans-101"/>
      <use x="280.273438" xlink:href="#DejaVuSans-97"/>
      <use x="341.552734" xlink:href="#DejaVuSans-110"/>
      <use x="404.931641" xlink:href="#DejaVuSans-32"/>
      <use x="436.71875" xlink:href="#DejaVuSans-74"/>
      <use x="466.210938" xlink:href="#DejaVuSans-83"/>
      <use x="529.6875" xlink:href="#DejaVuSans-68"/>
      <use x="606.689453" xlink:href="#DejaVuSans-32"/>
      <use x="638.476562" xlink:href="#DejaVuSans-102"/>
      <use x="673.681641" xlink:href="#DejaVuSans-114"/>
      <use x="714.763672" xlink:href="#DejaVuSans-111"/>
      <use x="775.945312" xlink:href="#DejaVuSans-109"/>
      <use x="873.357422" xlink:href="#DejaVuSans-32"/>
      <use x="905.144531" xlink:href="#DejaVuSans-87"/>
      <use x="1004.021484" xlink:href="#DejaVuSans-84"/>
     </g>
    </g>
   </g>
   <g id="matplotlib.axis_2">
    <g id="ytick_1">
     <g id="line2d_7">
      <defs>
       <path d="M 0 0 
L -3.5 0 
" id="ma2e0ab69db" style="stroke:#000000;stroke-width:0.8;"/>
      </defs>
      <g>
       <use style="stroke:#000000;stroke-width:0.8;" x="48.44" xlink:href="#ma2e0ab69db" y="166.047273"/>
      </g>
     </g>
     <g id="text_8">
      <!-- 0.0 -->
      <g transform="translate(25.536875 169.846491)scale(0.1 -0.1)">
       <use xlink:href="#DejaVuSans-48"/>
       <use x="63.623047" xlink:href="#DejaVuSans-46"/>
       <use x="95.410156" xlink:href="#DejaVuSans-48"/>
      </g>
     </g>
    </g>
    <g id="ytick_2">
     <g id="line2d_8">
      <g>
       <use style="stroke:#000000;stroke-width:0.8;" x="48.44" xlink:href="#ma2e0ab69db" y="131.546665"/>
      </g>
     </g>
     <g id="text_9">
      <!-- 0.2 -->
      <g transform="translate(25.536875 135.345884)scale(0.1 -0.1)">
       <use xlink:href="#DejaVuSans-48"/>
       <use x="63.623047" xlink:href="#DejaVuSans-46"/>
       <use x="95.410156" xlink:href="#DejaVuSans-50"/>
      </g>
     </g>
    </g>
    <g id="ytick_3">
     <g id="line2d_9">
      <g>
       <use style="stroke:#000000;stroke-width:0.8;" x="48.44" xlink:href="#ma2e0ab69db" y="97.046058"/>
      </g>
     </g>
     <g id="text_10">
      <!-- 0.4 -->
      <g transform="translate(25.536875 100.845277)scale(0.1 -0.1)">
       <use xlink:href="#DejaVuSans-48"/>
       <use x="63.623047" xlink:href="#DejaVuSans-46"/>
       <use x="95.410156" xlink:href="#DejaVuSans-52"/>
      </g>
     </g>
    </g>
    <g id="ytick_4">
     <g id="line2d_10">
      <g>
       <use style="stroke:#000000;stroke-width:0.8;" x="48.44" xlink:href="#ma2e0ab69db" y="62.545451"/>
      </g>
     </g>
     <g id="text_11">
      <!-- 0.6 -->
      <g transform="translate(25.536875 66.344669)scale(0.1 -0.1)">
       <use xlink:href="#DejaVuSans-48"/>
       <use x="63.623047" xlink:href="#DejaVuSans-46"/>
       <use x="95.410156" xlink:href="#DejaVuSans-54"/>
      </g>
     </g>
    </g>
    <g id="ytick_5">
     <g id="line2d_11">
      <g>
       <use style="stroke:#000000;stroke-width:0.8;" x="48.44" xlink:href="#ma2e0ab69db" y="28.044843"/>
      </g>
     </g>
     <g id="text_12">
      <!-- 0.8 -->
      <g transform="translate(25.536875 31.844062)scale(0.1 -0.1)">
       <use xlink:href="#DejaVuSans-48"/>
       <use x="63.623047" xlink:href="#DejaVuSans-46"/>
       <use x="95.410156" xlink:href="#DejaVuSans-56"/>
      </g>
     </g>
    </g>
    <g id="text_13">
     <!-- RACIPE JSD from WT -->
     <defs>
      <path d="M 44.390625 34.1875 
Q 47.5625 33.109375 50.5625 29.59375 
Q 53.5625 26.078125 56.59375 19.921875 
L 66.609375 0 
L 56 0 
L 46.6875 18.703125 
Q 43.0625 26.03125 39.671875 28.421875 
Q 36.28125 30.8125 30.421875 30.8125 
L 19.671875 30.8125 
L 19.671875 0 
L 9.8125 0 
L 9.8125 72.90625 
L 32.078125 72.90625 
Q 44.578125 72.90625 50.734375 67.671875 
Q 56.890625 62.453125 56.890625 51.90625 
Q 56.890625 45.015625 53.6875 40.46875 
Q 50.484375 35.9375 44.390625 34.1875 
z
M 19.671875 64.796875 
L 19.671875 38.921875 
L 32.078125 38.921875 
Q 39.203125 38.921875 42.84375 42.21875 
Q 46.484375 45.515625 46.484375 51.90625 
Q 46.484375 58.296875 42.84375 61.546875 
Q 39.203125 64.796875 32.078125 64.796875 
z
" id="DejaVuSans-82"/>
      <path d="M 34.1875 63.1875 
L 20.796875 26.90625 
L 47.609375 26.90625 
z
M 28.609375 72.90625 
L 39.796875 72.90625 
L 67.578125 0 
L 57.328125 0 
L 50.6875 18.703125 
L 17.828125 18.703125 
L 11.1875 0 
L 0.78125 0 
z
" id="DejaVuSans-65"/>
      <path d="M 64.40625 67.28125 
L 64.40625 56.890625 
Q 59.421875 61.53125 53.78125 63.8125 
Q 48.140625 66.109375 41.796875 66.109375 
Q 29.296875 66.109375 22.65625 58.46875 
Q 16.015625 50.828125 16.015625 36.375 
Q 16.015625 21.96875 22.65625 14.328125 
Q 29.296875 6.6875 41.796875 6.6875 
Q 48.140625 6.6875 53.78125 8.984375 
Q 59.421875 11.28125 64.40625 15.921875 
L 64.40625 5.609375 
Q 59.234375 2.09375 53.4375 0.328125 
Q 47.65625 -1.421875 41.21875 -1.421875 
Q 24.65625 -1.421875 15.125 8.703125 
Q 5.609375 18.84375 5.609375 36.375 
Q 5.609375 53.953125 15.125 64.078125 
Q 24.65625 74.21875 41.21875 74.21875 
Q 47.75 74.21875 53.53125 72.484375 
Q 59.328125 70.75 64.40625 67.28125 
z
" id="DejaVuSans-67"/>
      <path d="M 9.8125 72.90625 
L 19.671875 72.90625 
L 19.671875 0 
L 9.8125 0 
z
" id="DejaVuSans-73"/>
      <path d="M 19.671875 64.796875 
L 19.671875 37.40625 
L 32.078125 37.40625 
Q 38.96875 37.40625 42.71875 40.96875 
Q 46.484375 44.53125 46.484375 51.125 
Q 46.484375 57.671875 42.71875 61.234375 
Q 38.96875 64.796875 32.078125 64.796875 
z
M 9.8125 72.90625 
L 32.078125 72.90625 
Q 44.34375 72.90625 50.609375 67.359375 
Q 56.890625 61.8125 56.890625 51.125 
Q 56.890625 40.328125 50.609375 34.8125 
Q 44.34375 29.296875 32.078125 29.296875 
L 19.671875 29.296875 
L 19.671875 0 
L 9.8125 0 
z
" id="DejaVuSans-80"/>
      <path d="M 9.8125 72.90625 
L 55.90625 72.90625 
L 55.90625 64.59375 
L 19.671875 64.59375 
L 19.671875 43.015625 
L 54.390625 43.015625 
L 54.390625 34.71875 
L 19.671875 34.71875 
L 19.671875 8.296875 
L 56.78125 8.296875 
L 56.78125 0 
L 9.8125 0 
z
" id="DejaVuSans-69"/>
     </defs>
     <g transform="translate(19.04125 154.566875)rotate(-90)scale(0.12 -0.12)">
      <use xlink:href="#DejaVuSans-82"/>
      <use x="69.419922" xlink:href="#DejaVuSans-65"/>
      <use x="137.8125" xlink:href="#DejaVuSans-67"/>
      <use x="207.636719" xlink:href="#DejaVuSans-73"/>
      <use x="237.128906" xlink:href="#DejaVuSans-80"/>
      <use x="297.431641" xlink:href="#DejaVuSans-69"/>
      <use x="360.615234" xlink:href="#DejaVuSans-32"/>
      <use x="392.402344" xlink:href="#DejaVuSans-74"/>
      <use x="421.894531" xlink:href="#DejaVuSans-83"/>
      <use x="485.371094" xlink:href="#DejaVuSans-68"/>
      <use x="562.373047" xlink:href="#DejaVuSans-32"/>
      <use x="594.160156" xlink:href="#DejaVuSans-102"/>
      <use x="629.365234" xlink:href="#DejaVuSans-114"/>
      <use x="670.447266" xlink:href="#DejaVuSans-111"/>
      <use x="731.628906" xlink:href="#DejaVuSans-109"/>
      <use x="829.041016" xlink:href="#DejaVuSans-32"/>
      <use x="860.828125" xlink:href="#DejaVuSans-87"/>
      <use x="959.705078" xlink:href="#DejaVuSans-84"/>
     </g>
    </g>
   </g>
   <g id="line2d_12">
    <defs>
     <path d="M 0 3 
C 0.795609 3 1.55874 2.683901 2.12132 2.12132 
C 2.683901 1.55874 3 0.795609 3 0 
C 3 -0.795609 2.683901 -1.55874 2.12132 -2.12132 
C 1.55874 -2.683901 0.795609 -3 0 -3 
C -0.795609 -3 -1.55874 -2.683901 -2.12132 -2.12132 
C -2.683901 -1.55874 -3 -0.795609 -3 0 
C -3 0.795609 -2.683901 1.55874 -2.12132 2.12132 
C -1.55874 2.683901 -0.795609 3 0 3 
z
" id="m7ac3c58a7a" style="stroke:#1f77b4;"/>
    </defs>
    <g clip-path="url(#p95b2fdc801)">
     <use style="fill:#1f77b4;stroke:#1f77b4;" x="156.098735" xlink:href="#m7ac3c58a7a" y="111.306361"/>
     <use style="fill:#1f77b4;stroke:#1f77b4;" x="264.396364" xlink:href="#m7ac3c58a7a" y="40.944638"/>
     <use style="fill:#1f77b4;stroke:#1f77b4;" x="264.396364" xlink:href="#m7ac3c58a7a" y="26.537228"/>
     <use style="fill:#1f77b4;stroke:#1f77b4;" x="264.396364" xlink:href="#m7ac3c58a7a" y="37.40153"/>
     <use style="fill:#1f77b4;stroke:#1f77b4;" x="264.396364" xlink:href="#m7ac3c58a7a" y="66.822503"/>
     <use style="fill:#1f77b4;stroke:#1f77b4;" x="264.396364" xlink:href="#m7ac3c58a7a" y="36.475753"/>
     <use style="fill:#1f77b4;stroke:#1f77b4;" x="264.396364" xlink:href="#m7ac3c58a7a" y="67.862589"/>
     <use style="fill:#1f77b4;stroke:#1f77b4;" x="264.396364" xlink:href="#m7ac3c58a7a" y="38.189283"/>
     <use style="fill:#1f77b4;stroke:#1f77b4;" x="116.600607" xlink:href="#m7ac3c58a7a" y="99.089325"/>
     <use style="fill:#1f77b4;stroke:#1f77b4;" x="228.470339" xlink:href="#m7ac3c58a7a" y="84.526388"/>
     <use style="fill:#1f77b4;stroke:#1f77b4;" x="264.396364" xlink:href="#m7ac3c58a7a" y="38.692518"/>
     <use style="fill:#1f77b4;stroke:#1f77b4;" x="264.396364" xlink:href="#m7ac3c58a7a" y="104.716098"/>
     <use style="fill:#1f77b4;stroke:#1f77b4;" x="110.558968" xlink:href="#m7ac3c58a7a" y="132.2314"/>
     <use style="fill:#1f77b4;stroke:#1f77b4;" x="264.396364" xlink:href="#m7ac3c58a7a" y="78.919159"/>
     <use style="fill:#1f77b4;stroke:#1f77b4;" x="65.424476" xlink:href="#m7ac3c58a7a" y="146.354197"/>
     <use style="fill:#1f77b4;stroke:#1f77b4;" x="129.408605" xlink:href="#m7ac3c58a7a" y="105.530039"/>
     <use style="fill:#1f77b4;stroke:#1f77b4;" x="158.198333" xlink:href="#m7ac3c58a7a" y="119.240005"/>
     <use style="fill:#1f77b4;stroke:#1f77b4;" x="264.396364" xlink:href="#m7ac3c58a7a" y="57.041423"/>
     <use style="fill:#1f77b4;stroke:#1f77b4;" x="264.396364" xlink:href="#m7ac3c58a7a" y="43.542383"/>
     <use style="fill:#1f77b4;stroke:#1f77b4;" x="58.737323" xlink:href="#m7ac3c58a7a" y="166.047273"/>
     <use style="fill:#1f77b4;stroke:#1f77b4;" x="264.396364" xlink:href="#m7ac3c58a7a" y="65.598111"/>
     <use style="fill:#1f77b4;stroke:#1f77b4;" x="138.894742" xlink:href="#m7ac3c58a7a" y="107.742111"/>
     <use style="fill:#1f77b4;stroke:#1f77b4;" x="264.396364" xlink:href="#m7ac3c58a7a" y="52.51413"/>
     <use style="fill:#1f77b4;stroke:#1f77b4;" x="108.703731" xlink:href="#m7ac3c58a7a" y="122.674483"/>
     <use style="fill:#1f77b4;stroke:#1f77b4;" x="264.396364" xlink:href="#m7ac3c58a7a" y="49.809721"/>
     <use style="fill:#1f77b4;stroke:#1f77b4;" x="166.751687" xlink:href="#m7ac3c58a7a" y="85.724772"/>
     <use style="fill:#1f77b4;stroke:#1f77b4;" x="264.396364" xlink:href="#m7ac3c58a7a" y="82.695834"/>
     <use style="fill:#1f77b4;stroke:#1f77b4;" x="201.24964" xlink:href="#m7ac3c58a7a" y="78.677582"/>
     <use style="fill:#1f77b4;stroke:#1f77b4;" x="264.396364" xlink:href="#m7ac3c58a7a" y="44.142401"/>
     <use style="fill:#1f77b4;stroke:#1f77b4;" x="264.396364" xlink:href="#m7ac3c58a7a" y="33.544794"/>
     <use style="fill:#1f77b4;stroke:#1f77b4;" x="264.396364" xlink:href="#m7ac3c58a7a" y="41.593066"/>
     <use style="fill:#1f77b4;stroke:#1f77b4;" x="264.396364" xlink:href="#m7ac3c58a7a" y="54.857541"/>
     <use style="fill:#1f77b4;stroke:#1f77b4;" x="264.396364" xlink:href="#m7ac3c58a7a" y="80.525771"/>
     <use style="fill:#1f77b4;stroke:#1f77b4;" x="58.734011" xlink:href="#m7ac3c58a7a" y="138.784097"/>
     <use style="fill:#1f77b4;stroke:#1f77b4;" x="126.629117" xlink:href="#m7ac3c58a7a" y="107.035953"/>
     <use style="fill:#1f77b4;stroke:#1f77b4;" x="73.126755" xlink:href="#m7ac3c58a7a" y="131.817303"/>
     <use style="fill:#1f77b4;stroke:#1f77b4;" x="58.723636" xlink:href="#m7ac3c58a7a" y="141.166393"/>
     <use style="fill:#1f77b4;stroke:#1f77b4;" x="264.396364" xlink:href="#m7ac3c58a7a" y="38.595556"/>
     <use style="fill:#1f77b4;stroke:#1f77b4;" x="93.544016" xlink:href="#m7ac3c58a7a" y="150.862494"/>
     <use style="fill:#1f77b4;stroke:#1f77b4;" x="264.396364" xlink:href="#m7ac3c58a7a" y="60.556197"/>
     <use style="fill:#1f77b4;stroke:#1f77b4;" x="264.396364" xlink:href="#m7ac3c58a7a" y="27.566179"/>
     <use style="fill:#1f77b4;stroke:#1f77b4;" x="264.396364" xlink:href="#m7ac3c58a7a" y="31.804686"/>
     <use style="fill:#1f77b4;stroke:#1f77b4;" x="264.396364" xlink:href="#m7ac3c58a7a" y="62.147699"/>
     <use style="fill:#1f77b4;stroke:#1f77b4;" x="264.396364" xlink:href="#m7ac3c58a7a" y="76.233547"/>
     <use style="fill:#1f77b4;stroke:#1f77b4;" x="98.892012" xlink:href="#m7ac3c58a7a" y="155.584193"/>
     <use style="fill:#1f77b4;stroke:#1f77b4;" x="264.396364" xlink:href="#m7ac3c58a7a" y="34.875835"/>
     <use style="fill:#1f77b4;stroke:#1f77b4;" x="221.074769" xlink:href="#m7ac3c58a7a" y="51.691656"/>
     <use style="fill:#1f77b4;stroke:#1f77b4;" x="264.396364" xlink:href="#m7ac3c58a7a" y="53.210198"/>
     <use style="fill:#1f77b4;stroke:#1f77b4;" x="264.396364" xlink:href="#m7ac3c58a7a" y="32.42061"/>
     <use style="fill:#1f77b4;stroke:#1f77b4;" x="264.396364" xlink:href="#m7ac3c58a7a" y="42.915409"/>
     <use style="fill:#1f77b4;stroke:#1f77b4;" x="264.396364" xlink:href="#m7ac3c58a7a" y="50.862821"/>
     <use style="fill:#1f77b4;stroke:#1f77b4;" x="87.434239" xlink:href="#m7ac3c58a7a" y="89.69523"/>
     <use style="fill:#1f77b4;stroke:#1f77b4;" x="264.396364" xlink:href="#m7ac3c58a7a" y="41.485737"/>
     <use style="fill:#1f77b4;stroke:#1f77b4;" x="101.864892" xlink:href="#m7ac3c58a7a" y="142.482999"/>
     <use style="fill:#1f77b4;stroke:#1f77b4;" x="264.396364" xlink:href="#m7ac3c58a7a" y="48.614642"/>
     <use style="fill:#1f77b4;stroke:#1f77b4;" x="264.396364" xlink:href="#m7ac3c58a7a" y="78.161956"/>
     <use style="fill:#1f77b4;stroke:#1f77b4;" x="264.396364" xlink:href="#m7ac3c58a7a" y="44.936172"/>
     <use style="fill:#1f77b4;stroke:#1f77b4;" x="264.396364" xlink:href="#m7ac3c58a7a" y="36.05477"/>
     <use style="fill:#1f77b4;stroke:#1f77b4;" x="77.854194" xlink:href="#m7ac3c58a7a" y="142.671516"/>
     <use style="fill:#1f77b4;stroke:#1f77b4;" x="264.396364" xlink:href="#m7ac3c58a7a" y="36.924039"/>
     <use style="fill:#1f77b4;stroke:#1f77b4;" x="264.396364" xlink:href="#m7ac3c58a7a" y="79.412231"/>
     <use style="fill:#1f77b4;stroke:#1f77b4;" x="264.396364" xlink:href="#m7ac3c58a7a" y="24.13956"/>
     <use style="fill:#1f77b4;stroke:#1f77b4;" x="121.689535" xlink:href="#m7ac3c58a7a" y="113.052483"/>
     <use style="fill:#1f77b4;stroke:#1f77b4;" x="264.396364" xlink:href="#m7ac3c58a7a" y="26.870003"/>
     <use style="fill:#1f77b4;stroke:#1f77b4;" x="264.396364" xlink:href="#m7ac3c58a7a" y="44.221269"/>
     <use style="fill:#1f77b4;stroke:#1f77b4;" x="264.396364" xlink:href="#m7ac3c58a7a" y="32.865637"/>
     <use style="fill:#1f77b4;stroke:#1f77b4;" x="203.987358" xlink:href="#m7ac3c58a7a" y="72.555275"/>
     <use style="fill:#1f77b4;stroke:#1f77b4;" x="264.396364" xlink:href="#m7ac3c58a7a" y="45.397614"/>
     <use style="fill:#1f77b4;stroke:#1f77b4;" x="264.396364" xlink:href="#m7ac3c58a7a" y="29.834624"/>
     <use style="fill:#1f77b4;stroke:#1f77b4;" x="58.724176" xlink:href="#m7ac3c58a7a" y="136.385274"/>
     <use style="fill:#1f77b4;stroke:#1f77b4;" x="264.396364" xlink:href="#m7ac3c58a7a" y="64.393818"/>
     <use style="fill:#1f77b4;stroke:#1f77b4;" x="264.396364" xlink:href="#m7ac3c58a7a" y="37.796235"/>
     <use style="fill:#1f77b4;stroke:#1f77b4;" x="264.396364" xlink:href="#m7ac3c58a7a" y="20.592727"/>
     <use style="fill:#1f77b4;stroke:#1f77b4;" x="213.329727" xlink:href="#m7ac3c58a7a" y="68.240878"/>
     <use style="fill:#1f77b4;stroke:#1f77b4;" x="264.396364" xlink:href="#m7ac3c58a7a" y="115.682696"/>
     <use style="fill:#1f77b4;stroke:#1f77b4;" x="264.396364" xlink:href="#m7ac3c58a7a" y="66.187773"/>
     <use style="fill:#1f77b4;stroke:#1f77b4;" x="264.396364" xlink:href="#m7ac3c58a7a" y="61.78128"/>
    </g>
   </g>
   <g id="patch_3">
    <path d="M 48.44 173.32 
L 48.44 13.32 
" style="fill:none;stroke:#000000;stroke-linecap:square;stroke-linejoin:miter;stroke-width:0.8;"/>
   </g>
   <g id="patch_4">
    <path d="M 274.68 173.32 
L 274.68 13.32 
" style="fill:none;stroke:#000000;stroke-linecap:square;stroke-linejoin:miter;stroke-width:0.8;"/>
   </g>
   <g id="patch_5">
    <path d="M 48.44 173.32 
L 274.68 173.32 
" style="fill:none;stroke:#000000;stroke-linecap:square;stroke-linejoin:miter;stroke-width:0.8;"/>
   </g>
   <g id="patch_6">
    <path d="M 48.44 13.32 
L 274.68 13.32 
" style="fill:none;stroke:#000000;stroke-linecap:square;stroke-linejoin:miter;stroke-width:0.8;"/>
   </g>
  </g>
 </g>
 <defs>
  <clipPath id="p95b2fdc801">
   <rect height="160" width="226.24" x="48.44" y="13.32"/>
  </clipPath>
 </defs>
</svg>
