<?xml version="1.0" encoding="utf-8" standalone="no"?>
<!DOCTYPE svg PUBLIC "-//W3C//DTD SVG 1.1//EN"
  "http://www.w3.org/Graphics/SVG/1.1/DTD/svg11.dtd">
<!-- Created with matplotlib (https://matplotlib.org/) -->
<svg height="216pt" version="1.1" viewBox="0 0 288 216" width="288pt" xmlns="http://www.w3.org/2000/svg" xmlns:xlink="http://www.w3.org/1999/xlink">
 <defs>
  <style type="text/css">
*{stroke-linecap:butt;stroke-linejoin:round;}
  </style>
 </defs>
 <g id="figure_1">
  <g id="patch_1">
   <path d="M 0 216 
L 288 216 
L 288 0 
L 0 0 
z
" style="fill:#ffffff;"/>
  </g>
  <g id="axes_1">
   <g id="patch_2">
    <path d="M 52.13 169.72 
L 232.186 169.72 
L 232.186 34.8 
L 52.13 34.8 
z
" style="fill:#ffffff;"/>
   </g>
   <g id="PathCollection_1">
    <defs>
     <path d="M 0 3 
C 0.795609 3 1.55874 2.683901 2.12132 2.12132 
C 2.683901 1.55874 3 0.795609 3 0 
C 3 -0.795609 2.683901 -1.55874 2.12132 -2.12132 
C 1.55874 -2.683901 0.795609 -3 0 -3 
C -0.795609 -3 -1.55874 -2.683901 -2.12132 -2.12132 
C -2.683901 -1.55874 -3 -0.795609 -3 0 
C -3 0.795609 -2.683901 1.55874 -2.12132 2.12132 
C -1.55874 2.683901 -0.795609 3 0 3 
z
" id="C0_0_ce91a910e7"/>
    </defs>
    <g clip-path="url(#p61942b0e7c)">
     <use style="fill:#ffe600;stroke:#ffe600;" x="74.929174" xlink:href="#C0_0_ce91a910e7" y="57.75346"/>
    </g>
    <g clip-path="url(#p61942b0e7c)">
     <use style="fill:#ff4800;stroke:#ff4800;" x="67.977954" xlink:href="#C0_0_ce91a910e7" y="77.422154"/>
    </g>
    <g clip-path="url(#p61942b0e7c)">
     <use style="fill:#00d4ff;stroke:#00d4ff;" x="71.300697" xlink:href="#C0_0_ce91a910e7" y="145.413057"/>
    </g>
    <g clip-path="url(#p61942b0e7c)">
     <use style="fill:#7bff7b;stroke:#7bff7b;" x="73.109409" xlink:href="#C0_0_ce91a910e7" y="71.057906"/>
    </g>
    <g clip-path="url(#p61942b0e7c)">
     <use style="fill:#ffe600;stroke:#ffe600;" x="206.267407" xlink:href="#C0_0_ce91a910e7" y="101.496866"/>
    </g>
    <g clip-path="url(#p61942b0e7c)">
     <use style="fill:#7bff7b;stroke:#7bff7b;" x="68.556082" xlink:href="#C0_0_ce91a910e7" y="73.995252"/>
    </g>
    <g clip-path="url(#p61942b0e7c)">
     <use style="fill:#002aff;stroke:#002aff;" x="79.965691" xlink:href="#C0_0_ce91a910e7" y="90.409828"/>
    </g>
    <g clip-path="url(#p61942b0e7c)">
     <use style="fill:#00d4ff;stroke:#00d4ff;" x="76.398085" xlink:href="#C0_0_ce91a910e7" y="161.395671"/>
    </g>
    <g clip-path="url(#p61942b0e7c)">
     <use style="fill:#00d4ff;stroke:#00d4ff;" x="70.593586" xlink:href="#C0_0_ce91a910e7" y="77.594939"/>
    </g>
    <g clip-path="url(#p61942b0e7c)">
     <use style="fill:#002aff;stroke:#002aff;" x="160.918945" xlink:href="#C0_0_ce91a910e7" y="97.753191"/>
    </g>
    <g clip-path="url(#p61942b0e7c)">
     <use style="fill:#00d4ff;stroke:#00d4ff;" x="81.018979" xlink:href="#C0_0_ce91a910e7" y="137.032984"/>
    </g>
    <g clip-path="url(#p61942b0e7c)">
     <use style="fill:#002aff;stroke:#002aff;" x="79.295787" xlink:href="#C0_0_ce91a910e7" y="133.836461"/>
    </g>
    <g clip-path="url(#p61942b0e7c)">
     <use style="fill:#002aff;stroke:#002aff;" x="136.571179" xlink:href="#C0_0_ce91a910e7" y="121.338345"/>
    </g>
    <g clip-path="url(#p61942b0e7c)">
     <use style="fill:#ffe600;stroke:#ffe600;" x="75.305387" xlink:href="#C0_0_ce91a910e7" y="52.137948"/>
    </g>
    <g clip-path="url(#p61942b0e7c)">
     <use style="fill:#7bff7b;stroke:#7bff7b;" x="67.91252" xlink:href="#C0_0_ce91a910e7" y="106.075669"/>
    </g>
    <g clip-path="url(#p61942b0e7c)">
     <use style="fill:#ffe600;stroke:#ffe600;" x="66.217623" xlink:href="#C0_0_ce91a910e7" y="47.875917"/>
    </g>
    <g clip-path="url(#p61942b0e7c)">
     <use style="fill:#7bff7b;stroke:#7bff7b;" x="62.619908" xlink:href="#C0_0_ce91a910e7" y="74.916772"/>
    </g>
    <g clip-path="url(#p61942b0e7c)">
     <use style="fill:#7bff7b;stroke:#7bff7b;" x="64.488564" xlink:href="#C0_0_ce91a910e7" y="93.836731"/>
    </g>
    <g clip-path="url(#p61942b0e7c)">
     <use style="fill:#00d4ff;stroke:#00d4ff;" x="68.09195" xlink:href="#C0_0_ce91a910e7" y="74.168037"/>
    </g>
    <g clip-path="url(#p61942b0e7c)">
     <use style="fill:#7bff7b;stroke:#7bff7b;" x="63.345249" xlink:href="#C0_0_ce91a910e7" y="78.545257"/>
    </g>
    <g clip-path="url(#p61942b0e7c)">
     <use style="fill:#7bff7b;stroke:#7bff7b;" x="63.551559" xlink:href="#C0_0_ce91a910e7" y="92.828818"/>
    </g>
    <g clip-path="url(#p61942b0e7c)">
     <use style="fill:#002aff;stroke:#002aff;" x="84.763523" xlink:href="#C0_0_ce91a910e7" y="97.263633"/>
    </g>
    <g clip-path="url(#p61942b0e7c)">
     <use style="fill:#7bff7b;stroke:#7bff7b;" x="78.973126" xlink:href="#C0_0_ce91a910e7" y="57.897448"/>
    </g>
    <g clip-path="url(#p61942b0e7c)">
     <use style="fill:#ff4800;stroke:#ff4800;" x="95.669972" xlink:href="#C0_0_ce91a910e7" y="43.124329"/>
    </g>
    <g clip-path="url(#p61942b0e7c)">
     <use style="fill:#7bff7b;stroke:#7bff7b;" x="72.550031" xlink:href="#C0_0_ce91a910e7" y="87.04052"/>
    </g>
    <g clip-path="url(#p61942b0e7c)">
     <use style="fill:#7bff7b;stroke:#7bff7b;" x="65.892246" xlink:href="#C0_0_ce91a910e7" y="99.509839"/>
    </g>
    <g clip-path="url(#p61942b0e7c)">
     <use style="fill:#ff4800;stroke:#ff4800;" x="65.521286" xlink:href="#C0_0_ce91a910e7" y="52.281935"/>
    </g>
    <g clip-path="url(#p61942b0e7c)">
     <use style="fill:#ffe600;stroke:#ffe600;" x="64.925256" xlink:href="#C0_0_ce91a910e7" y="66.997459"/>
    </g>
    <g clip-path="url(#p61942b0e7c)">
     <use style="fill:#002aff;stroke:#002aff;" x="69.799652" xlink:href="#C0_0_ce91a910e7" y="59.654096"/>
    </g>
    <g clip-path="url(#p61942b0e7c)">
     <use style="fill:#00d4ff;stroke:#00d4ff;" x="85.655684" xlink:href="#C0_0_ce91a910e7" y="71.835439"/>
    </g>
    <g clip-path="url(#p61942b0e7c)">
     <use style="fill:#00d4ff;stroke:#00d4ff;" x="76.912992" xlink:href="#C0_0_ce91a910e7" y="70.913919"/>
    </g>
    <g clip-path="url(#p61942b0e7c)">
     <use style="fill:#00d4ff;stroke:#00d4ff;" x="89.965037" xlink:href="#C0_0_ce91a910e7" y="101.612056"/>
    </g>
    <g clip-path="url(#p61942b0e7c)">
     <use style="fill:#002aff;stroke:#002aff;" x="130.778047" xlink:href="#C0_0_ce91a910e7" y="151.95009"/>
    </g>
    <g clip-path="url(#p61942b0e7c)">
     <use style="fill:#002aff;stroke:#002aff;" x="80.415637" xlink:href="#C0_0_ce91a910e7" y="105.010161"/>
    </g>
    <g clip-path="url(#p61942b0e7c)">
     <use style="fill:#00d4ff;stroke:#00d4ff;" x="65.347098" xlink:href="#C0_0_ce91a910e7" y="123.152588"/>
    </g>
    <g clip-path="url(#p61942b0e7c)">
     <use style="fill:#7bff7b;stroke:#7bff7b;" x="86.114366" xlink:href="#C0_0_ce91a910e7" y="89.92027"/>
    </g>
    <g clip-path="url(#p61942b0e7c)">
     <use style="fill:#ff4800;stroke:#ff4800;" x="67.41368" xlink:href="#C0_0_ce91a910e7" y="69.013284"/>
    </g>
    <g clip-path="url(#p61942b0e7c)">
     <use style="fill:#ff4800;stroke:#ff4800;" x="66.682904" xlink:href="#C0_0_ce91a910e7" y="63.599353"/>
    </g>
    <g clip-path="url(#p61942b0e7c)">
     <use style="fill:#7bff7b;stroke:#7bff7b;" x="74.884109" xlink:href="#C0_0_ce91a910e7" y="93.347173"/>
    </g>
    <g clip-path="url(#p61942b0e7c)">
     <use style="fill:#ff4800;stroke:#ff4800;" x="67.009826" xlink:href="#C0_0_ce91a910e7" y="55.536053"/>
    </g>
    <g clip-path="url(#p61942b0e7c)">
     <use style="fill:#7bff7b;stroke:#7bff7b;" x="73.560913" xlink:href="#C0_0_ce91a910e7" y="105.989277"/>
    </g>
    <g clip-path="url(#p61942b0e7c)">
     <use style="fill:#ff4800;stroke:#ff4800;" x="66.921281" xlink:href="#C0_0_ce91a910e7" y="47.703132"/>
    </g>
    <g clip-path="url(#p61942b0e7c)">
     <use style="fill:#00d4ff;stroke:#00d4ff;" x="65.068357" xlink:href="#C0_0_ce91a910e7" y="108.033899"/>
    </g>
    <g clip-path="url(#p61942b0e7c)">
     <use style="fill:#7bff7b;stroke:#7bff7b;" x="67.908789" xlink:href="#C0_0_ce91a910e7" y="77.364559"/>
    </g>
    <g clip-path="url(#p61942b0e7c)">
     <use style="fill:#ffe600;stroke:#ffe600;" x="64.820949" xlink:href="#C0_0_ce91a910e7" y="63.541758"/>
    </g>
    <g clip-path="url(#p61942b0e7c)">
     <use style="fill:#7bff7b;stroke:#7bff7b;" x="65.492007" xlink:href="#C0_0_ce91a910e7" y="77.594939"/>
    </g>
    <g clip-path="url(#p61942b0e7c)">
     <use style="fill:#7bff7b;stroke:#7bff7b;" x="67.588357" xlink:href="#C0_0_ce91a910e7" y="74.830379"/>
    </g>
    <g clip-path="url(#p61942b0e7c)">
     <use style="fill:#7bff7b;stroke:#7bff7b;" x="65.990103" xlink:href="#C0_0_ce91a910e7" y="76.039874"/>
    </g>
    <g clip-path="url(#p61942b0e7c)">
     <use style="fill:#7bff7b;stroke:#7bff7b;" x="65.111154" xlink:href="#C0_0_ce91a910e7" y="82.43292"/>
    </g>
    <g clip-path="url(#p61942b0e7c)">
     <use style="fill:#7bff7b;stroke:#7bff7b;" x="64.096127" xlink:href="#C0_0_ce91a910e7" y="72.440187"/>
    </g>
    <g clip-path="url(#p61942b0e7c)">
     <use style="fill:#7bff7b;stroke:#7bff7b;" x="64.197016" xlink:href="#C0_0_ce91a910e7" y="91.936095"/>
    </g>
    <g clip-path="url(#p61942b0e7c)">
     <use style="fill:#7bff7b;stroke:#7bff7b;" x="65.648865" xlink:href="#C0_0_ce91a910e7" y="77.220572"/>
    </g>
    <g clip-path="url(#p61942b0e7c)">
     <use style="fill:#7bff7b;stroke:#7bff7b;" x="64.745988" xlink:href="#C0_0_ce91a910e7" y="78.142092"/>
    </g>
    <g clip-path="url(#p61942b0e7c)">
     <use style="fill:#7bff7b;stroke:#7bff7b;" x="63.859962" xlink:href="#C0_0_ce91a910e7" y="82.720895"/>
    </g>
    <g clip-path="url(#p61942b0e7c)">
     <use style="fill:#7bff7b;stroke:#7bff7b;" x="63.247406" xlink:href="#C0_0_ce91a910e7" y="75.665507"/>
    </g>
    <g clip-path="url(#p61942b0e7c)">
     <use style="fill:#7bff7b;stroke:#7bff7b;" x="63.32033" xlink:href="#C0_0_ce91a910e7" y="77.594939"/>
    </g>
    <g clip-path="url(#p61942b0e7c)">
     <use style="fill:#ff4800;stroke:#ff4800;" x="92.64996" xlink:href="#C0_0_ce91a910e7" y="74.283227"/>
    </g>
    <g clip-path="url(#p61942b0e7c)">
     <use style="fill:#ff4800;stroke:#ff4800;" x="65.702373" xlink:href="#C0_0_ce91a910e7" y="78.63165"/>
    </g>
    <g clip-path="url(#p61942b0e7c)">
     <use style="fill:#ff4800;stroke:#ff4800;" x="65.160352" xlink:href="#C0_0_ce91a910e7" y="60.114856"/>
    </g>
    <g clip-path="url(#p61942b0e7c)">
     <use style="fill:#7bff7b;stroke:#7bff7b;" x="65.895052" xlink:href="#C0_0_ce91a910e7" y="87.011723"/>
    </g>
    <g clip-path="url(#p61942b0e7c)">
     <use style="fill:#ffe600;stroke:#ffe600;" x="68.711134" xlink:href="#C0_0_ce91a910e7" y="62.303466"/>
    </g>
    <g clip-path="url(#p61942b0e7c)">
     <use style="fill:#7bff7b;stroke:#7bff7b;" x="69.027711" xlink:href="#C0_0_ce91a910e7" y="82.116147"/>
    </g>
    <g clip-path="url(#p61942b0e7c)">
     <use style="fill:#7bff7b;stroke:#7bff7b;" x="72.031998" xlink:href="#C0_0_ce91a910e7" y="87.645268"/>
    </g>
    <g clip-path="url(#p61942b0e7c)">
     <use style="fill:#ff4800;stroke:#ff4800;" x="64.686984" xlink:href="#C0_0_ce91a910e7" y="68.926891"/>
    </g>
    <g clip-path="url(#p61942b0e7c)">
     <use style="fill:#ffe600;stroke:#ffe600;" x="65.552624" xlink:href="#C0_0_ce91a910e7" y="65.586381"/>
    </g>
    <g clip-path="url(#p61942b0e7c)">
     <use style="fill:#7bff7b;stroke:#7bff7b;" x="75.698123" xlink:href="#C0_0_ce91a910e7" y="89.373118"/>
    </g>
    <g clip-path="url(#p61942b0e7c)">
     <use style="fill:#7bff7b;stroke:#7bff7b;" x="69.210622" xlink:href="#C0_0_ce91a910e7" y="67.774991"/>
    </g>
    <g clip-path="url(#p61942b0e7c)">
     <use style="fill:#ff4800;stroke:#ff4800;" x="66.383287" xlink:href="#C0_0_ce91a910e7" y="56.284788"/>
    </g>
    <g clip-path="url(#p61942b0e7c)">
     <use style="fill:#7bff7b;stroke:#7bff7b;" x="66.17111" xlink:href="#C0_0_ce91a910e7" y="91.561728"/>
    </g>
    <g clip-path="url(#p61942b0e7c)">
     <use style="fill:#ff4800;stroke:#ff4800;" x="63.921942" xlink:href="#C0_0_ce91a910e7" y="73.995252"/>
    </g>
    <g clip-path="url(#p61942b0e7c)">
     <use style="fill:#ffe600;stroke:#ffe600;" x="65.252376" xlink:href="#C0_0_ce91a910e7" y="95.161416"/>
    </g>
    <g clip-path="url(#p61942b0e7c)">
     <use style="fill:#ff4800;stroke:#ff4800;" x="67.430333" xlink:href="#C0_0_ce91a910e7" y="78.257282"/>
    </g>
    <g clip-path="url(#p61942b0e7c)">
     <use style="fill:#800000;stroke:#800000;" x="101.189961" xlink:href="#C0_0_ce91a910e7" y="74.772784"/>
    </g>
    <g clip-path="url(#p61942b0e7c)">
     <use style="fill:#7bff7b;stroke:#7bff7b;" x="66.192477" xlink:href="#C0_0_ce91a910e7" y="91.8785"/>
    </g>
    <g clip-path="url(#p61942b0e7c)">
     <use style="fill:#7bff7b;stroke:#7bff7b;" x="88.088498" xlink:href="#C0_0_ce91a910e7" y="84.794315"/>
    </g>
    <g clip-path="url(#p61942b0e7c)">
     <use style="fill:#800000;stroke:#800000;" x="66.058359" xlink:href="#C0_0_ce91a910e7" y="62.562643"/>
    </g>
    <g clip-path="url(#p61942b0e7c)">
     <use style="fill:#800000;stroke:#800000;" x="66.127134" xlink:href="#C0_0_ce91a910e7" y="66.219926"/>
    </g>
    <g clip-path="url(#p61942b0e7c)">
     <use style="fill:#7bff7b;stroke:#7bff7b;" x="68.11447" xlink:href="#C0_0_ce91a910e7" y="86.435773"/>
    </g>
    <g clip-path="url(#p61942b0e7c)">
     <use style="fill:#ffe600;stroke:#ffe600;" x="77.37552" xlink:href="#C0_0_ce91a910e7" y="95.938948"/>
    </g>
    <g clip-path="url(#p61942b0e7c)">
     <use style="fill:#ffe600;stroke:#ffe600;" x="65.353792" xlink:href="#C0_0_ce91a910e7" y="61.237958"/>
    </g>
    <g clip-path="url(#p61942b0e7c)">
     <use style="fill:#800000;stroke:#800000;" x="75.399823" xlink:href="#C0_0_ce91a910e7" y="52.22434"/>
    </g>
    <g clip-path="url(#p61942b0e7c)">
     <use style="fill:#7bff7b;stroke:#7bff7b;" x="74.69126" xlink:href="#C0_0_ce91a910e7" y="86.550963"/>
    </g>
    <g clip-path="url(#p61942b0e7c)">
     <use style="fill:#800000;stroke:#800000;" x="66.14357" xlink:href="#C0_0_ce91a910e7" y="46.58003"/>
    </g>
    <g clip-path="url(#p61942b0e7c)">
     <use style="fill:#000080;stroke:#000080;" x="137.904005" xlink:href="#C0_0_ce91a910e7" y="104.203831"/>
    </g>
    <g clip-path="url(#p61942b0e7c)">
     <use style="fill:#000080;stroke:#000080;" x="75.068246" xlink:href="#C0_0_ce91a910e7" y="118.343405"/>
    </g>
    <g clip-path="url(#p61942b0e7c)">
     <use style="fill:#ffe600;stroke:#ffe600;" x="69.290611" xlink:href="#C0_0_ce91a910e7" y="102.245601"/>
    </g>
    <g clip-path="url(#p61942b0e7c)">
     <use style="fill:#ff4800;stroke:#ff4800;" x="64.063253" xlink:href="#C0_0_ce91a910e7" y="61.554731"/>
    </g>
    <g clip-path="url(#p61942b0e7c)">
     <use style="fill:#ff4800;stroke:#ff4800;" x="69.471626" xlink:href="#C0_0_ce91a910e7" y="88.451598"/>
    </g>
    <g clip-path="url(#p61942b0e7c)">
     <use style="fill:#ffe600;stroke:#ffe600;" x="84.905955" xlink:href="#C0_0_ce91a910e7" y="65.327204"/>
    </g>
    <g clip-path="url(#p61942b0e7c)">
     <use style="fill:#ff4800;stroke:#ff4800;" x="64.971215" xlink:href="#C0_0_ce91a910e7" y="68.782904"/>
    </g>
    <g clip-path="url(#p61942b0e7c)">
     <use style="fill:#ff4800;stroke:#ff4800;" x="102.759954" xlink:href="#C0_0_ce91a910e7" y="74.945569"/>
    </g>
    <g clip-path="url(#p61942b0e7c)">
     <use style="fill:#7bff7b;stroke:#7bff7b;" x="66.525629" xlink:href="#C0_0_ce91a910e7" y="87.011723"/>
    </g>
    <g clip-path="url(#p61942b0e7c)">
     <use style="fill:#ff4800;stroke:#ff4800;" x="66.114041" xlink:href="#C0_0_ce91a910e7" y="50.208515"/>
    </g>
    <g clip-path="url(#p61942b0e7c)">
     <use style="fill:#002aff;stroke:#002aff;" x="207.189289" xlink:href="#C0_0_ce91a910e7" y="91.734513"/>
    </g>
    <g clip-path="url(#p61942b0e7c)">
     <use style="fill:#002aff;stroke:#002aff;" x="65.208971" xlink:href="#C0_0_ce91a910e7" y="95.247808"/>
    </g>
    <g clip-path="url(#p61942b0e7c)">
     <use style="fill:#7bff7b;stroke:#7bff7b;" x="76.548475" xlink:href="#C0_0_ce91a910e7" y="90.784195"/>
    </g>
    <g clip-path="url(#p61942b0e7c)">
     <use style="fill:#ff4800;stroke:#ff4800;" x="65.853384" xlink:href="#C0_0_ce91a910e7" y="64.492076"/>
    </g>
    <g clip-path="url(#p61942b0e7c)">
     <use style="fill:#7bff7b;stroke:#7bff7b;" x="71.955721" xlink:href="#C0_0_ce91a910e7" y="90.467423"/>
    </g>
    <g clip-path="url(#p61942b0e7c)">
     <use style="fill:#ff4800;stroke:#ff4800;" x="77.377509" xlink:href="#C0_0_ce91a910e7" y="52.310733"/>
    </g>
    <g clip-path="url(#p61942b0e7c)">
     <use style="fill:#7bff7b;stroke:#7bff7b;" x="76.070238" xlink:href="#C0_0_ce91a910e7" y="85.514253"/>
    </g>
    <g clip-path="url(#p61942b0e7c)">
     <use style="fill:#7bff7b;stroke:#7bff7b;" x="67.758928" xlink:href="#C0_0_ce91a910e7" y="97.810786"/>
    </g>
    <g clip-path="url(#p61942b0e7c)">
     <use style="fill:#ff4800;stroke:#ff4800;" x="67.449887" xlink:href="#C0_0_ce91a910e7" y="45.255345"/>
    </g>
    <g clip-path="url(#p61942b0e7c)">
     <use style="fill:#ff4800;stroke:#ff4800;" x="64.215722" xlink:href="#C0_0_ce91a910e7" y="85.77343"/>
    </g>
    <g clip-path="url(#p61942b0e7c)">
     <use style="fill:#7bff7b;stroke:#7bff7b;" x="67.341039" xlink:href="#C0_0_ce91a910e7" y="70.107589"/>
    </g>
    <g clip-path="url(#p61942b0e7c)">
     <use style="fill:#ffe600;stroke:#ffe600;" x="76.100275" xlink:href="#C0_0_ce91a910e7" y="69.042081"/>
    </g>
    <g clip-path="url(#p61942b0e7c)">
     <use style="fill:#ffe600;stroke:#ffe600;" x="71.283767" xlink:href="#C0_0_ce91a910e7" y="84.563935"/>
    </g>
    <g clip-path="url(#p61942b0e7c)">
     <use style="fill:#ff4800;stroke:#ff4800;" x="66.953559" xlink:href="#C0_0_ce91a910e7" y="75.867089"/>
    </g>
    <g clip-path="url(#p61942b0e7c)">
     <use style="fill:#ffe600;stroke:#ffe600;" x="65.436879" xlink:href="#C0_0_ce91a910e7" y="65.212014"/>
    </g>
    <g clip-path="url(#p61942b0e7c)">
     <use style="fill:#ffe600;stroke:#ffe600;" x="68.27162" xlink:href="#C0_0_ce91a910e7" y="68.610119"/>
    </g>
    <g clip-path="url(#p61942b0e7c)">
     <use style="fill:#ff4800;stroke:#ff4800;" x="70.733047" xlink:href="#C0_0_ce91a910e7" y="81.684185"/>
    </g>
    <g clip-path="url(#p61942b0e7c)">
     <use style="fill:#7bff7b;stroke:#7bff7b;" x="64.935051" xlink:href="#C0_0_ce91a910e7" y="72.008224"/>
    </g>
    <g clip-path="url(#p61942b0e7c)">
     <use style="fill:#002aff;stroke:#002aff;" x="65.49559" xlink:href="#C0_0_ce91a910e7" y="62.303466"/>
    </g>
    <g clip-path="url(#p61942b0e7c)">
     <use style="fill:#ffe600;stroke:#ffe600;" x="94.628469" xlink:href="#C0_0_ce91a910e7" y="66.507901"/>
    </g>
    <g clip-path="url(#p61942b0e7c)">
     <use style="fill:#ff4800;stroke:#ff4800;" x="65.243556" xlink:href="#C0_0_ce91a910e7" y="100.373764"/>
    </g>
    <g clip-path="url(#p61942b0e7c)">
     <use style="fill:#ff4800;stroke:#ff4800;" x="67.800723" xlink:href="#C0_0_ce91a910e7" y="83.901592"/>
    </g>
    <g clip-path="url(#p61942b0e7c)">
     <use style="fill:#ffe600;stroke:#ffe600;" x="64.927722" xlink:href="#C0_0_ce91a910e7" y="60.345236"/>
    </g>
    <g clip-path="url(#p61942b0e7c)">
     <use style="fill:#7bff7b;stroke:#7bff7b;" x="64.183459" xlink:href="#C0_0_ce91a910e7" y="71.749046"/>
    </g>
    <g clip-path="url(#p61942b0e7c)">
     <use style="fill:#ffe600;stroke:#ffe600;" x="66.483544" xlink:href="#C0_0_ce91a910e7" y="67.659801"/>
    </g>
    <g clip-path="url(#p61942b0e7c)">
     <use style="fill:#7bff7b;stroke:#7bff7b;" x="76.712218" xlink:href="#C0_0_ce91a910e7" y="74.801582"/>
    </g>
    <g clip-path="url(#p61942b0e7c)">
     <use style="fill:#ffe600;stroke:#ffe600;" x="69.992541" xlink:href="#C0_0_ce91a910e7" y="66.047141"/>
    </g>
    <g clip-path="url(#p61942b0e7c)">
     <use style="fill:#7bff7b;stroke:#7bff7b;" x="67.076944" xlink:href="#C0_0_ce91a910e7" y="72.497782"/>
    </g>
    <g clip-path="url(#p61942b0e7c)">
     <use style="fill:#00d4ff;stroke:#00d4ff;" x="65.564589" xlink:href="#C0_0_ce91a910e7" y="70.741134"/>
    </g>
    <g clip-path="url(#p61942b0e7c)">
     <use style="fill:#002aff;stroke:#002aff;" x="221.696092" xlink:href="#C0_0_ce91a910e7" y="89.027548"/>
    </g>
   </g>
   <g id="matplotlib.axis_1">
    <g id="xtick_1">
     <g id="line2d_1">
      <defs>
       <path d="M 0 0 
L 0 3.5 
" id="m63f1c46262" style="stroke:#000000;stroke-width:0.8;"/>
      </defs>
      <g>
       <use style="stroke:#000000;stroke-width:0.8;" x="62.619908" xlink:href="#m63f1c46262" y="169.72"/>
      </g>
     </g>
     <g id="text_1">
      <!-- 0.0 -->
      <defs>
       <path d="M 31.78125 66.40625 
Q 24.171875 66.40625 20.328125 58.90625 
Q 16.5 51.421875 16.5 36.375 
Q 16.5 21.390625 20.328125 13.890625 
Q 24.171875 6.390625 31.78125 6.390625 
Q 39.453125 6.390625 43.28125 13.890625 
Q 47.125 21.390625 47.125 36.375 
Q 47.125 51.421875 43.28125 58.90625 
Q 39.453125 66.40625 31.78125 66.40625 
z
M 31.78125 74.21875 
Q 44.046875 74.21875 50.515625 64.515625 
Q 56.984375 54.828125 56.984375 36.375 
Q 56.984375 17.96875 50.515625 8.265625 
Q 44.046875 -1.421875 31.78125 -1.421875 
Q 19.53125 -1.421875 13.0625 8.265625 
Q 6.59375 17.96875 6.59375 36.375 
Q 6.59375 54.828125 13.0625 64.515625 
Q 19.53125 74.21875 31.78125 74.21875 
z
" id="DejaVuSans-48"/>
       <path d="M 10.6875 12.40625 
L 21 12.40625 
L 21 0 
L 10.6875 0 
z
" id="DejaVuSans-46"/>
      </defs>
      <g transform="translate(54.668346 184.318438)scale(0.1 -0.1)">
       <use xlink:href="#DejaVuSans-48"/>
       <use x="63.623047" xlink:href="#DejaVuSans-46"/>
       <use x="95.410156" xlink:href="#DejaVuSans-48"/>
      </g>
     </g>
    </g>
    <g id="xtick_2">
     <g id="line2d_2">
      <g>
       <use style="stroke:#000000;stroke-width:0.8;" x="110.267834" xlink:href="#m63f1c46262" y="169.72"/>
      </g>
     </g>
     <g id="text_2">
      <!-- 0.2 -->
      <defs>
       <path d="M 19.1875 8.296875 
L 53.609375 8.296875 
L 53.609375 0 
L 7.328125 0 
L 7.328125 8.296875 
Q 12.9375 14.109375 22.625 23.890625 
Q 32.328125 33.6875 34.8125 36.53125 
Q 39.546875 41.84375 41.421875 45.53125 
Q 43.3125 49.21875 43.3125 52.78125 
Q 43.3125 58.59375 39.234375 62.25 
Q 35.15625 65.921875 28.609375 65.921875 
Q 23.96875 65.921875 18.8125 64.3125 
Q 13.671875 62.703125 7.8125 59.421875 
L 7.8125 69.390625 
Q 13.765625 71.78125 18.9375 73 
Q 24.125 74.21875 28.421875 74.21875 
Q 39.75 74.21875 46.484375 68.546875 
Q 53.21875 62.890625 53.21875 53.421875 
Q 53.21875 48.921875 51.53125 44.890625 
Q 49.859375 40.875 45.40625 35.40625 
Q 44.1875 33.984375 37.640625 27.21875 
Q 31.109375 20.453125 19.1875 8.296875 
z
" id="DejaVuSans-50"/>
      </defs>
      <g transform="translate(102.316271 184.318438)scale(0.1 -0.1)">
       <use xlink:href="#DejaVuSans-48"/>
       <use x="63.623047" xlink:href="#DejaVuSans-46"/>
       <use x="95.410156" xlink:href="#DejaVuSans-50"/>
      </g>
     </g>
    </g>
    <g id="xtick_3">
     <g id="line2d_3">
      <g>
       <use style="stroke:#000000;stroke-width:0.8;" x="157.915759" xlink:href="#m63f1c46262" y="169.72"/>
      </g>
     </g>
     <g id="text_3">
      <!-- 0.4 -->
      <defs>
       <path d="M 37.796875 64.3125 
L 12.890625 25.390625 
L 37.796875 25.390625 
z
M 35.203125 72.90625 
L 47.609375 72.90625 
L 47.609375 25.390625 
L 58.015625 25.390625 
L 58.015625 17.1875 
L 47.609375 17.1875 
L 47.609375 0 
L 37.796875 0 
L 37.796875 17.1875 
L 4.890625 17.1875 
L 4.890625 26.703125 
z
" id="DejaVuSans-52"/>
      </defs>
      <g transform="translate(149.964197 184.318438)scale(0.1 -0.1)">
       <use xlink:href="#DejaVuSans-48"/>
       <use x="63.623047" xlink:href="#DejaVuSans-46"/>
       <use x="95.410156" xlink:href="#DejaVuSans-52"/>
      </g>
     </g>
    </g>
    <g id="xtick_4">
     <g id="line2d_4">
      <g>
       <use style="stroke:#000000;stroke-width:0.8;" x="205.563684" xlink:href="#m63f1c46262" y="169.72"/>
      </g>
     </g>
     <g id="text_4">
      <!-- 0.6 -->
      <defs>
       <path d="M 33.015625 40.375 
Q 26.375 40.375 22.484375 35.828125 
Q 18.609375 31.296875 18.609375 23.390625 
Q 18.609375 15.53125 22.484375 10.953125 
Q 26.375 6.390625 33.015625 6.390625 
Q 39.65625 6.390625 43.53125 10.953125 
Q 47.40625 15.53125 47.40625 23.390625 
Q 47.40625 31.296875 43.53125 35.828125 
Q 39.65625 40.375 33.015625 40.375 
z
M 52.59375 71.296875 
L 52.59375 62.3125 
Q 48.875 64.0625 45.09375 64.984375 
Q 41.3125 65.921875 37.59375 65.921875 
Q 27.828125 65.921875 22.671875 59.328125 
Q 17.53125 52.734375 16.796875 39.40625 
Q 19.671875 43.65625 24.015625 45.921875 
Q 28.375 48.1875 33.59375 48.1875 
Q 44.578125 48.1875 50.953125 41.515625 
Q 57.328125 34.859375 57.328125 23.390625 
Q 57.328125 12.15625 50.6875 5.359375 
Q 44.046875 -1.421875 33.015625 -1.421875 
Q 20.359375 -1.421875 13.671875 8.265625 
Q 6.984375 17.96875 6.984375 36.375 
Q 6.984375 53.65625 15.1875 63.9375 
Q 23.390625 74.21875 37.203125 74.21875 
Q 40.921875 74.21875 44.703125 73.484375 
Q 48.484375 72.75 52.59375 71.296875 
z
" id="DejaVuSans-54"/>
      </defs>
      <g transform="translate(197.612122 184.318438)scale(0.1 -0.1)">
       <use xlink:href="#DejaVuSans-48"/>
       <use x="63.623047" xlink:href="#DejaVuSans-46"/>
       <use x="95.410156" xlink:href="#DejaVuSans-54"/>
      </g>
     </g>
    </g>
    <g id="text_5">
     <!-- JSD(1) from WT -->
     <defs>
      <path d="M 9.8125 72.90625 
L 19.671875 72.90625 
L 19.671875 5.078125 
Q 19.671875 -8.109375 14.671875 -14.0625 
Q 9.671875 -20.015625 -1.421875 -20.015625 
L -5.171875 -20.015625 
L -5.171875 -11.71875 
L -2.09375 -11.71875 
Q 4.4375 -11.71875 7.125 -8.046875 
Q 9.8125 -4.390625 9.8125 5.078125 
z
" id="DejaVuSans-74"/>
      <path d="M 53.515625 70.515625 
L 53.515625 60.890625 
Q 47.90625 63.578125 42.921875 64.890625 
Q 37.9375 66.21875 33.296875 66.21875 
Q 25.25 66.21875 20.875 63.09375 
Q 16.5 59.96875 16.5 54.203125 
Q 16.5 49.359375 19.40625 46.890625 
Q 22.3125 44.4375 30.421875 42.921875 
L 36.375 41.703125 
Q 47.40625 39.59375 52.65625 34.296875 
Q 57.90625 29 57.90625 20.125 
Q 57.90625 9.515625 50.796875 4.046875 
Q 43.703125 -1.421875 29.984375 -1.421875 
Q 24.8125 -1.421875 18.96875 -0.25 
Q 13.140625 0.921875 6.890625 3.21875 
L 6.890625 13.375 
Q 12.890625 10.015625 18.65625 8.296875 
Q 24.421875 6.59375 29.984375 6.59375 
Q 38.421875 6.59375 43.015625 9.90625 
Q 47.609375 13.234375 47.609375 19.390625 
Q 47.609375 24.75 44.3125 27.78125 
Q 41.015625 30.8125 33.5 32.328125 
L 27.484375 33.5 
Q 16.453125 35.6875 11.515625 40.375 
Q 6.59375 45.0625 6.59375 53.421875 
Q 6.59375 63.09375 13.40625 68.65625 
Q 20.21875 74.21875 32.171875 74.21875 
Q 37.3125 74.21875 42.625 73.28125 
Q 47.953125 72.359375 53.515625 70.515625 
z
" id="DejaVuSans-83"/>
      <path d="M 19.671875 64.796875 
L 19.671875 8.109375 
L 31.59375 8.109375 
Q 46.6875 8.109375 53.6875 14.9375 
Q 60.6875 21.78125 60.6875 36.53125 
Q 60.6875 51.171875 53.6875 57.984375 
Q 46.6875 64.796875 31.59375 64.796875 
z
M 9.8125 72.90625 
L 30.078125 72.90625 
Q 51.265625 72.90625 61.171875 64.09375 
Q 71.09375 55.28125 71.09375 36.53125 
Q 71.09375 17.671875 61.125 8.828125 
Q 51.171875 0 30.078125 0 
L 9.8125 0 
z
" id="DejaVuSans-68"/>
      <path d="M 31 75.875 
Q 24.46875 64.65625 21.28125 53.65625 
Q 18.109375 42.671875 18.109375 31.390625 
Q 18.109375 20.125 21.3125 9.0625 
Q 24.515625 -2 31 -13.1875 
L 23.1875 -13.1875 
Q 15.875 -1.703125 12.234375 9.375 
Q 8.59375 20.453125 8.59375 31.390625 
Q 8.59375 42.28125 12.203125 53.3125 
Q 15.828125 64.359375 23.1875 75.875 
z
" id="DejaVuSans-40"/>
      <path d="M 12.40625 8.296875 
L 28.515625 8.296875 
L 28.515625 63.921875 
L 10.984375 60.40625 
L 10.984375 69.390625 
L 28.421875 72.90625 
L 38.28125 72.90625 
L 38.28125 8.296875 
L 54.390625 8.296875 
L 54.390625 0 
L 12.40625 0 
z
" id="DejaVuSans-49"/>
      <path d="M 8.015625 75.875 
L 15.828125 75.875 
Q 23.140625 64.359375 26.78125 53.3125 
Q 30.421875 42.28125 30.421875 31.390625 
Q 30.421875 20.453125 26.78125 9.375 
Q 23.140625 -1.703125 15.828125 -13.1875 
L 8.015625 -13.1875 
Q 14.5 -2 17.703125 9.0625 
Q 20.90625 20.125 20.90625 31.390625 
Q 20.90625 42.671875 17.703125 53.65625 
Q 14.5 64.65625 8.015625 75.875 
z
" id="DejaVuSans-41"/>
      <path id="DejaVuSans-32"/>
      <path d="M 37.109375 75.984375 
L 37.109375 68.5 
L 28.515625 68.5 
Q 23.6875 68.5 21.796875 66.546875 
Q 19.921875 64.59375 19.921875 59.515625 
L 19.921875 54.6875 
L 34.71875 54.6875 
L 34.71875 47.703125 
L 19.921875 47.703125 
L 19.921875 0 
L 10.890625 0 
L 10.890625 47.703125 
L 2.296875 47.703125 
L 2.296875 54.6875 
L 10.890625 54.6875 
L 10.890625 58.5 
Q 10.890625 67.625 15.140625 71.796875 
Q 19.390625 75.984375 28.609375 75.984375 
z
" id="DejaVuSans-102"/>
      <path d="M 41.109375 46.296875 
Q 39.59375 47.171875 37.8125 47.578125 
Q 36.03125 48 33.890625 48 
Q 26.265625 48 22.1875 43.046875 
Q 18.109375 38.09375 18.109375 28.8125 
L 18.109375 0 
L 9.078125 0 
L 9.078125 54.6875 
L 18.109375 54.6875 
L 18.109375 46.1875 
Q 20.953125 51.171875 25.484375 53.578125 
Q 30.03125 56 36.53125 56 
Q 37.453125 56 38.578125 55.875 
Q 39.703125 55.765625 41.0625 55.515625 
z
" id="DejaVuSans-114"/>
      <path d="M 30.609375 48.390625 
Q 23.390625 48.390625 19.1875 42.75 
Q 14.984375 37.109375 14.984375 27.296875 
Q 14.984375 17.484375 19.15625 11.84375 
Q 23.34375 6.203125 30.609375 6.203125 
Q 37.796875 6.203125 41.984375 11.859375 
Q 46.1875 17.53125 46.1875 27.296875 
Q 46.1875 37.015625 41.984375 42.703125 
Q 37.796875 48.390625 30.609375 48.390625 
z
M 30.609375 56 
Q 42.328125 56 49.015625 48.375 
Q 55.71875 40.765625 55.71875 27.296875 
Q 55.71875 13.875 49.015625 6.21875 
Q 42.328125 -1.421875 30.609375 -1.421875 
Q 18.84375 -1.421875 12.171875 6.21875 
Q 5.515625 13.875 5.515625 27.296875 
Q 5.515625 40.765625 12.171875 48.375 
Q 18.84375 56 30.609375 56 
z
" id="DejaVuSans-111"/>
      <path d="M 52 44.1875 
Q 55.375 50.25 60.0625 53.125 
Q 64.75 56 71.09375 56 
Q 79.640625 56 84.28125 50.015625 
Q 88.921875 44.046875 88.921875 33.015625 
L 88.921875 0 
L 79.890625 0 
L 79.890625 32.71875 
Q 79.890625 40.578125 77.09375 44.375 
Q 74.3125 48.1875 68.609375 48.1875 
Q 61.625 48.1875 57.5625 43.546875 
Q 53.515625 38.921875 53.515625 30.90625 
L 53.515625 0 
L 44.484375 0 
L 44.484375 32.71875 
Q 44.484375 40.625 41.703125 44.40625 
Q 38.921875 48.1875 33.109375 48.1875 
Q 26.21875 48.1875 22.15625 43.53125 
Q 18.109375 38.875 18.109375 30.90625 
L 18.109375 0 
L 9.078125 0 
L 9.078125 54.6875 
L 18.109375 54.6875 
L 18.109375 46.1875 
Q 21.1875 51.21875 25.484375 53.609375 
Q 29.78125 56 35.6875 56 
Q 41.65625 56 45.828125 52.96875 
Q 50 49.953125 52 44.1875 
z
" id="DejaVuSans-109"/>
      <path d="M 3.328125 72.90625 
L 13.28125 72.90625 
L 28.609375 11.28125 
L 43.890625 72.90625 
L 54.984375 72.90625 
L 70.3125 11.28125 
L 85.59375 72.90625 
L 95.609375 72.90625 
L 77.296875 0 
L 64.890625 0 
L 49.515625 63.28125 
L 33.984375 0 
L 21.578125 0 
z
" id="DejaVuSans-87"/>
      <path d="M -0.296875 72.90625 
L 61.375 72.90625 
L 61.375 64.59375 
L 35.5 64.59375 
L 35.5 0 
L 25.59375 0 
L 25.59375 64.59375 
L -0.296875 64.59375 
z
" id="DejaVuSans-84"/>
     </defs>
     <g transform="translate(84.405656 201.795781)scale(0.15 -0.15)">
      <use xlink:href="#DejaVuSans-74"/>
      <use x="29.492188" xlink:href="#DejaVuSans-83"/>
      <use x="92.96875" xlink:href="#DejaVuSans-68"/>
      <use x="169.970703" xlink:href="#DejaVuSans-40"/>
      <use x="208.984375" xlink:href="#DejaVuSans-49"/>
      <use x="272.607422" xlink:href="#DejaVuSans-41"/>
      <use x="311.621094" xlink:href="#DejaVuSans-32"/>
      <use x="343.408203" xlink:href="#DejaVuSans-102"/>
      <use x="378.613281" xlink:href="#DejaVuSans-114"/>
      <use x="419.695312" xlink:href="#DejaVuSans-111"/>
      <use x="480.876953" xlink:href="#DejaVuSans-109"/>
      <use x="578.289062" xlink:href="#DejaVuSans-32"/>
      <use x="610.076172" xlink:href="#DejaVuSans-87"/>
      <use x="708.953125" xlink:href="#DejaVuSans-84"/>
     </g>
    </g>
   </g>
   <g id="matplotlib.axis_2">
    <g id="ytick_1">
     <g id="line2d_5">
      <defs>
       <path d="M 0 0 
L -3.5 0 
" id="m20c139ce54" style="stroke:#000000;stroke-width:0.8;"/>
      </defs>
      <g>
       <use style="stroke:#000000;stroke-width:0.8;" x="52.13" xlink:href="#m20c139ce54" y="142.418117"/>
      </g>
     </g>
     <g id="text_6">
      <!-- 0.6 -->
      <g transform="translate(29.226875 146.217335)scale(0.1 -0.1)">
       <use xlink:href="#DejaVuSans-48"/>
       <use x="63.623047" xlink:href="#DejaVuSans-46"/>
       <use x="95.410156" xlink:href="#DejaVuSans-54"/>
      </g>
     </g>
    </g>
    <g id="ytick_2">
     <g id="line2d_6">
      <g>
       <use style="stroke:#000000;stroke-width:0.8;" x="52.13" xlink:href="#m20c139ce54" y="108.667444"/>
      </g>
     </g>
     <g id="text_7">
      <!-- 0.8 -->
      <defs>
       <path d="M 31.78125 34.625 
Q 24.75 34.625 20.71875 30.859375 
Q 16.703125 27.09375 16.703125 20.515625 
Q 16.703125 13.921875 20.71875 10.15625 
Q 24.75 6.390625 31.78125 6.390625 
Q 38.8125 6.390625 42.859375 10.171875 
Q 46.921875 13.96875 46.921875 20.515625 
Q 46.921875 27.09375 42.890625 30.859375 
Q 38.875 34.625 31.78125 34.625 
z
M 21.921875 38.8125 
Q 15.578125 40.375 12.03125 44.71875 
Q 8.5 49.078125 8.5 55.328125 
Q 8.5 64.0625 14.71875 69.140625 
Q 20.953125 74.21875 31.78125 74.21875 
Q 42.671875 74.21875 48.875 69.140625 
Q 55.078125 64.0625 55.078125 55.328125 
Q 55.078125 49.078125 51.53125 44.71875 
Q 48 40.375 41.703125 38.8125 
Q 48.828125 37.15625 52.796875 32.3125 
Q 56.78125 27.484375 56.78125 20.515625 
Q 56.78125 9.90625 50.3125 4.234375 
Q 43.84375 -1.421875 31.78125 -1.421875 
Q 19.734375 -1.421875 13.25 4.234375 
Q 6.78125 9.90625 6.78125 20.515625 
Q 6.78125 27.484375 10.78125 32.3125 
Q 14.796875 37.15625 21.921875 38.8125 
z
M 18.3125 54.390625 
Q 18.3125 48.734375 21.84375 45.5625 
Q 25.390625 42.390625 31.78125 42.390625 
Q 38.140625 42.390625 41.71875 45.5625 
Q 45.3125 48.734375 45.3125 54.390625 
Q 45.3125 60.0625 41.71875 63.234375 
Q 38.140625 66.40625 31.78125 66.40625 
Q 25.390625 66.40625 21.84375 63.234375 
Q 18.3125 60.0625 18.3125 54.390625 
z
" id="DejaVuSans-56"/>
      </defs>
      <g transform="translate(29.226875 112.466663)scale(0.1 -0.1)">
       <use xlink:href="#DejaVuSans-48"/>
       <use x="63.623047" xlink:href="#DejaVuSans-46"/>
       <use x="95.410156" xlink:href="#DejaVuSans-56"/>
      </g>
     </g>
    </g>
    <g id="ytick_3">
     <g id="line2d_7">
      <g>
       <use style="stroke:#000000;stroke-width:0.8;" x="52.13" xlink:href="#m20c139ce54" y="74.916772"/>
      </g>
     </g>
     <g id="text_8">
      <!-- 1.0 -->
      <g transform="translate(29.226875 78.71599)scale(0.1 -0.1)">
       <use xlink:href="#DejaVuSans-49"/>
       <use x="63.623047" xlink:href="#DejaVuSans-46"/>
       <use x="95.410156" xlink:href="#DejaVuSans-48"/>
      </g>
     </g>
    </g>
    <g id="ytick_4">
     <g id="line2d_8">
      <g>
       <use style="stroke:#000000;stroke-width:0.8;" x="52.13" xlink:href="#m20c139ce54" y="41.166099"/>
      </g>
     </g>
     <g id="text_9">
      <!-- 1.2 -->
      <g transform="translate(29.226875 44.965318)scale(0.1 -0.1)">
       <use xlink:href="#DejaVuSans-49"/>
       <use x="63.623047" xlink:href="#DejaVuSans-46"/>
       <use x="95.410156" xlink:href="#DejaVuSans-50"/>
      </g>
     </g>
    </g>
    <g id="text_10">
     <!-- Plasticity Ratio -->
     <defs>
      <path d="M 19.671875 64.796875 
L 19.671875 37.40625 
L 32.078125 37.40625 
Q 38.96875 37.40625 42.71875 40.96875 
Q 46.484375 44.53125 46.484375 51.125 
Q 46.484375 57.671875 42.71875 61.234375 
Q 38.96875 64.796875 32.078125 64.796875 
z
M 9.8125 72.90625 
L 32.078125 72.90625 
Q 44.34375 72.90625 50.609375 67.359375 
Q 56.890625 61.8125 56.890625 51.125 
Q 56.890625 40.328125 50.609375 34.8125 
Q 44.34375 29.296875 32.078125 29.296875 
L 19.671875 29.296875 
L 19.671875 0 
L 9.8125 0 
z
" id="DejaVuSans-80"/>
      <path d="M 9.421875 75.984375 
L 18.40625 75.984375 
L 18.40625 0 
L 9.421875 0 
z
" id="DejaVuSans-108"/>
      <path d="M 34.28125 27.484375 
Q 23.390625 27.484375 19.1875 25 
Q 14.984375 22.515625 14.984375 16.5 
Q 14.984375 11.71875 18.140625 8.90625 
Q 21.296875 6.109375 26.703125 6.109375 
Q 34.1875 6.109375 38.703125 11.40625 
Q 43.21875 16.703125 43.21875 25.484375 
L 43.21875 27.484375 
z
M 52.203125 31.203125 
L 52.203125 0 
L 43.21875 0 
L 43.21875 8.296875 
Q 40.140625 3.328125 35.546875 0.953125 
Q 30.953125 -1.421875 24.3125 -1.421875 
Q 15.921875 -1.421875 10.953125 3.296875 
Q 6 8.015625 6 15.921875 
Q 6 25.140625 12.171875 29.828125 
Q 18.359375 34.515625 30.609375 34.515625 
L 43.21875 34.515625 
L 43.21875 35.40625 
Q 43.21875 41.609375 39.140625 45 
Q 35.0625 48.390625 27.6875 48.390625 
Q 23 48.390625 18.546875 47.265625 
Q 14.109375 46.140625 10.015625 43.890625 
L 10.015625 52.203125 
Q 14.9375 54.109375 19.578125 55.046875 
Q 24.21875 56 28.609375 56 
Q 40.484375 56 46.34375 49.84375 
Q 52.203125 43.703125 52.203125 31.203125 
z
" id="DejaVuSans-97"/>
      <path d="M 44.28125 53.078125 
L 44.28125 44.578125 
Q 40.484375 46.53125 36.375 47.5 
Q 32.28125 48.484375 27.875 48.484375 
Q 21.1875 48.484375 17.84375 46.4375 
Q 14.5 44.390625 14.5 40.28125 
Q 14.5 37.15625 16.890625 35.375 
Q 19.28125 33.59375 26.515625 31.984375 
L 29.59375 31.296875 
Q 39.15625 29.25 43.1875 25.515625 
Q 47.21875 21.78125 47.21875 15.09375 
Q 47.21875 7.46875 41.1875 3.015625 
Q 35.15625 -1.421875 24.609375 -1.421875 
Q 20.21875 -1.421875 15.453125 -0.5625 
Q 10.6875 0.296875 5.421875 2 
L 5.421875 11.28125 
Q 10.40625 8.6875 15.234375 7.390625 
Q 20.0625 6.109375 24.8125 6.109375 
Q 31.15625 6.109375 34.5625 8.28125 
Q 37.984375 10.453125 37.984375 14.40625 
Q 37.984375 18.0625 35.515625 20.015625 
Q 33.0625 21.96875 24.703125 23.78125 
L 21.578125 24.515625 
Q 13.234375 26.265625 9.515625 29.90625 
Q 5.8125 33.546875 5.8125 39.890625 
Q 5.8125 47.609375 11.28125 51.796875 
Q 16.75 56 26.8125 56 
Q 31.78125 56 36.171875 55.265625 
Q 40.578125 54.546875 44.28125 53.078125 
z
" id="DejaVuSans-115"/>
      <path d="M 18.3125 70.21875 
L 18.3125 54.6875 
L 36.8125 54.6875 
L 36.8125 47.703125 
L 18.3125 47.703125 
L 18.3125 18.015625 
Q 18.3125 11.328125 20.140625 9.421875 
Q 21.96875 7.515625 27.59375 7.515625 
L 36.8125 7.515625 
L 36.8125 0 
L 27.59375 0 
Q 17.1875 0 13.234375 3.875 
Q 9.28125 7.765625 9.28125 18.015625 
L 9.28125 47.703125 
L 2.6875 47.703125 
L 2.6875 54.6875 
L 9.28125 54.6875 
L 9.28125 70.21875 
z
" id="DejaVuSans-116"/>
      <path d="M 9.421875 54.6875 
L 18.40625 54.6875 
L 18.40625 0 
L 9.421875 0 
z
M 9.421875 75.984375 
L 18.40625 75.984375 
L 18.40625 64.59375 
L 9.421875 64.59375 
z
" id="DejaVuSans-105"/>
      <path d="M 48.78125 52.59375 
L 48.78125 44.1875 
Q 44.96875 46.296875 41.140625 47.34375 
Q 37.3125 48.390625 33.40625 48.390625 
Q 24.65625 48.390625 19.8125 42.84375 
Q 14.984375 37.3125 14.984375 27.296875 
Q 14.984375 17.28125 19.8125 11.734375 
Q 24.65625 6.203125 33.40625 6.203125 
Q 37.3125 6.203125 41.140625 7.25 
Q 44.96875 8.296875 48.78125 10.40625 
L 48.78125 2.09375 
Q 45.015625 0.34375 40.984375 -0.53125 
Q 36.96875 -1.421875 32.421875 -1.421875 
Q 20.0625 -1.421875 12.78125 6.34375 
Q 5.515625 14.109375 5.515625 27.296875 
Q 5.515625 40.671875 12.859375 48.328125 
Q 20.21875 56 33.015625 56 
Q 37.15625 56 41.109375 55.140625 
Q 45.0625 54.296875 48.78125 52.59375 
z
" id="DejaVuSans-99"/>
      <path d="M 32.171875 -5.078125 
Q 28.375 -14.84375 24.75 -17.8125 
Q 21.140625 -20.796875 15.09375 -20.796875 
L 7.90625 -20.796875 
L 7.90625 -13.28125 
L 13.1875 -13.28125 
Q 16.890625 -13.28125 18.9375 -11.515625 
Q 21 -9.765625 23.484375 -3.21875 
L 25.09375 0.875 
L 2.984375 54.6875 
L 12.5 54.6875 
L 29.59375 11.921875 
L 46.6875 54.6875 
L 56.203125 54.6875 
z
" id="DejaVuSans-121"/>
      <path d="M 44.390625 34.1875 
Q 47.5625 33.109375 50.5625 29.59375 
Q 53.5625 26.078125 56.59375 19.921875 
L 66.609375 0 
L 56 0 
L 46.6875 18.703125 
Q 43.0625 26.03125 39.671875 28.421875 
Q 36.28125 30.8125 30.421875 30.8125 
L 19.671875 30.8125 
L 19.671875 0 
L 9.8125 0 
L 9.8125 72.90625 
L 32.078125 72.90625 
Q 44.578125 72.90625 50.734375 67.671875 
Q 56.890625 62.453125 56.890625 51.90625 
Q 56.890625 45.015625 53.6875 40.46875 
Q 50.484375 35.9375 44.390625 34.1875 
z
M 19.671875 64.796875 
L 19.671875 38.921875 
L 32.078125 38.921875 
Q 39.203125 38.921875 42.84375 42.21875 
Q 46.484375 45.515625 46.484375 51.90625 
Q 46.484375 58.296875 42.84375 61.546875 
Q 39.203125 64.796875 32.078125 64.796875 
z
" id="DejaVuSans-82"/>
     </defs>
     <g transform="translate(22.107344 157.781094)rotate(-90)scale(0.15 -0.15)">
      <use xlink:href="#DejaVuSans-80"/>
      <use x="60.302734" xlink:href="#DejaVuSans-108"/>
      <use x="88.085938" xlink:href="#DejaVuSans-97"/>
      <use x="149.365234" xlink:href="#DejaVuSans-115"/>
      <use x="201.464844" xlink:href="#DejaVuSans-116"/>
      <use x="240.673828" xlink:href="#DejaVuSans-105"/>
      <use x="268.457031" xlink:href="#DejaVuSans-99"/>
      <use x="323.4375" xlink:href="#DejaVuSans-105"/>
      <use x="351.220703" xlink:href="#DejaVuSans-116"/>
      <use x="390.429688" xlink:href="#DejaVuSans-121"/>
      <use x="449.609375" xlink:href="#DejaVuSans-32"/>
      <use x="481.396484" xlink:href="#DejaVuSans-82"/>
      <use x="550.847656" xlink:href="#DejaVuSans-97"/>
      <use x="612.126953" xlink:href="#DejaVuSans-116"/>
      <use x="651.335938" xlink:href="#DejaVuSans-105"/>
      <use x="679.119141" xlink:href="#DejaVuSans-111"/>
     </g>
    </g>
   </g>
   <g id="patch_3">
    <path d="M 52.13 169.72 
L 52.13 34.8 
" style="fill:none;stroke:#000000;stroke-linecap:square;stroke-linejoin:miter;stroke-width:0.8;"/>
   </g>
   <g id="patch_4">
    <path d="M 232.186 169.72 
L 232.186 34.8 
" style="fill:none;stroke:#000000;stroke-linecap:square;stroke-linejoin:miter;stroke-width:0.8;"/>
   </g>
   <g id="patch_5">
    <path d="M 52.13 169.72 
L 232.186 169.72 
" style="fill:none;stroke:#000000;stroke-linecap:square;stroke-linejoin:miter;stroke-width:0.8;"/>
   </g>
   <g id="patch_6">
    <path d="M 52.13 34.8 
L 232.186 34.8 
" style="fill:none;stroke:#000000;stroke-linecap:square;stroke-linejoin:miter;stroke-width:0.8;"/>
   </g>
   <g id="text_11">
    <!-- JSD1 &amp; Plasticity: -0.230 -->
    <defs>
     <path d="M 24.3125 39.203125 
Q 19.875 35.25 17.796875 31.3125 
Q 15.71875 27.390625 15.71875 23.09375 
Q 15.71875 15.96875 20.890625 11.234375 
Q 26.078125 6.5 33.890625 6.5 
Q 38.53125 6.5 42.578125 8.03125 
Q 46.625 9.578125 50.203125 12.703125 
z
M 31.203125 44.671875 
L 56 19.28125 
Q 58.890625 23.640625 60.5 28.59375 
Q 62.109375 33.546875 62.40625 39.109375 
L 71.484375 39.109375 
Q 70.90625 32.671875 68.359375 26.359375 
Q 65.828125 20.0625 61.28125 13.921875 
L 74.90625 0 
L 62.59375 0 
L 55.609375 7.171875 
Q 50.53125 2.828125 44.96875 0.703125 
Q 39.40625 -1.421875 33.015625 -1.421875 
Q 21.234375 -1.421875 13.765625 5.296875 
Q 6.296875 12.015625 6.296875 22.515625 
Q 6.296875 28.765625 9.5625 34.25 
Q 12.84375 39.75 19.390625 44.578125 
Q 17.046875 47.65625 15.8125 50.703125 
Q 14.59375 53.765625 14.59375 56.6875 
Q 14.59375 64.59375 20.015625 69.40625 
Q 25.4375 74.21875 34.421875 74.21875 
Q 38.484375 74.21875 42.5 73.34375 
Q 46.53125 72.46875 50.6875 70.703125 
L 50.6875 61.8125 
Q 46.4375 64.109375 42.578125 65.296875 
Q 38.71875 66.5 35.40625 66.5 
Q 30.28125 66.5 27.078125 63.78125 
Q 23.875 61.078125 23.875 56.78125 
Q 23.875 54.296875 25.3125 51.78125 
Q 26.765625 49.265625 31.203125 44.671875 
z
" id="DejaVuSans-38"/>
     <path d="M 11.71875 12.40625 
L 22.015625 12.40625 
L 22.015625 0 
L 11.71875 0 
z
M 11.71875 51.703125 
L 22.015625 51.703125 
L 22.015625 39.3125 
L 11.71875 39.3125 
z
" id="DejaVuSans-58"/>
     <path d="M 4.890625 31.390625 
L 31.203125 31.390625 
L 31.203125 23.390625 
L 4.890625 23.390625 
z
" id="DejaVuSans-45"/>
     <path d="M 40.578125 39.3125 
Q 47.65625 37.796875 51.625 33 
Q 55.609375 28.21875 55.609375 21.1875 
Q 55.609375 10.40625 48.1875 4.484375 
Q 40.765625 -1.421875 27.09375 -1.421875 
Q 22.515625 -1.421875 17.65625 -0.515625 
Q 12.796875 0.390625 7.625 2.203125 
L 7.625 11.71875 
Q 11.71875 9.328125 16.59375 8.109375 
Q 21.484375 6.890625 26.8125 6.890625 
Q 36.078125 6.890625 40.9375 10.546875 
Q 45.796875 14.203125 45.796875 21.1875 
Q 45.796875 27.640625 41.28125 31.265625 
Q 36.765625 34.90625 28.71875 34.90625 
L 20.21875 34.90625 
L 20.21875 43.015625 
L 29.109375 43.015625 
Q 36.375 43.015625 40.234375 45.921875 
Q 44.09375 48.828125 44.09375 54.296875 
Q 44.09375 59.90625 40.109375 62.90625 
Q 36.140625 65.921875 28.71875 65.921875 
Q 24.65625 65.921875 20.015625 65.03125 
Q 15.375 64.15625 9.8125 62.3125 
L 9.8125 71.09375 
Q 15.4375 72.65625 20.34375 73.4375 
Q 25.25 74.21875 29.59375 74.21875 
Q 40.828125 74.21875 47.359375 69.109375 
Q 53.90625 64.015625 53.90625 55.328125 
Q 53.90625 49.265625 50.4375 45.09375 
Q 46.96875 40.921875 40.578125 39.3125 
z
" id="DejaVuSans-51"/>
    </defs>
    <g transform="translate(91.658677 19.472222)scale(0.0833 -0.0833)">
     <use xlink:href="#DejaVuSans-74"/>
     <use x="29.492188" xlink:href="#DejaVuSans-83"/>
     <use x="92.96875" xlink:href="#DejaVuSans-68"/>
     <use x="169.970703" xlink:href="#DejaVuSans-49"/>
     <use x="233.59375" xlink:href="#DejaVuSans-32"/>
     <use x="265.380859" xlink:href="#DejaVuSans-38"/>
     <use x="343.359375" xlink:href="#DejaVuSans-32"/>
     <use x="375.146484" xlink:href="#DejaVuSans-80"/>
     <use x="435.449219" xlink:href="#DejaVuSans-108"/>
     <use x="463.232422" xlink:href="#DejaVuSans-97"/>
     <use x="524.511719" xlink:href="#DejaVuSans-115"/>
     <use x="576.611328" xlink:href="#DejaVuSans-116"/>
     <use x="615.820312" xlink:href="#DejaVuSans-105"/>
     <use x="643.603516" xlink:href="#DejaVuSans-99"/>
     <use x="698.583984" xlink:href="#DejaVuSans-105"/>
     <use x="726.367188" xlink:href="#DejaVuSans-116"/>
     <use x="765.576172" xlink:href="#DejaVuSans-121"/>
     <use x="824.646484" xlink:href="#DejaVuSans-58"/>
     <use x="858.337891" xlink:href="#DejaVuSans-32"/>
     <use x="890.125" xlink:href="#DejaVuSans-45"/>
     <use x="926.208984" xlink:href="#DejaVuSans-48"/>
     <use x="989.832031" xlink:href="#DejaVuSans-46"/>
     <use x="1021.619141" xlink:href="#DejaVuSans-50"/>
     <use x="1085.242188" xlink:href="#DejaVuSans-51"/>
     <use x="1148.865234" xlink:href="#DejaVuSans-48"/>
    </g>
    <!--  Positive cycles &amp; Plasticity: 0.5828 -->
    <defs>
     <path d="M 2.984375 54.6875 
L 12.5 54.6875 
L 29.59375 8.796875 
L 46.6875 54.6875 
L 56.203125 54.6875 
L 35.6875 0 
L 23.484375 0 
z
" id="DejaVuSans-118"/>
     <path d="M 56.203125 29.59375 
L 56.203125 25.203125 
L 14.890625 25.203125 
Q 15.484375 15.921875 20.484375 11.0625 
Q 25.484375 6.203125 34.421875 6.203125 
Q 39.59375 6.203125 44.453125 7.46875 
Q 49.3125 8.734375 54.109375 11.28125 
L 54.109375 2.78125 
Q 49.265625 0.734375 44.1875 -0.34375 
Q 39.109375 -1.421875 33.890625 -1.421875 
Q 20.796875 -1.421875 13.15625 6.1875 
Q 5.515625 13.8125 5.515625 26.8125 
Q 5.515625 40.234375 12.765625 48.109375 
Q 20.015625 56 32.328125 56 
Q 43.359375 56 49.78125 48.890625 
Q 56.203125 41.796875 56.203125 29.59375 
z
M 47.21875 32.234375 
Q 47.125 39.59375 43.09375 43.984375 
Q 39.0625 48.390625 32.421875 48.390625 
Q 24.90625 48.390625 20.390625 44.140625 
Q 15.875 39.890625 15.1875 32.171875 
z
" id="DejaVuSans-101"/>
     <path d="M 10.796875 72.90625 
L 49.515625 72.90625 
L 49.515625 64.59375 
L 19.828125 64.59375 
L 19.828125 46.734375 
Q 21.96875 47.46875 24.109375 47.828125 
Q 26.265625 48.1875 28.421875 48.1875 
Q 40.625 48.1875 47.75 41.5 
Q 54.890625 34.8125 54.890625 23.390625 
Q 54.890625 11.625 47.5625 5.09375 
Q 40.234375 -1.421875 26.90625 -1.421875 
Q 22.3125 -1.421875 17.546875 -0.640625 
Q 12.796875 0.140625 7.71875 1.703125 
L 7.71875 11.625 
Q 12.109375 9.234375 16.796875 8.0625 
Q 21.484375 6.890625 26.703125 6.890625 
Q 35.15625 6.890625 40.078125 11.328125 
Q 45.015625 15.765625 45.015625 23.390625 
Q 45.015625 31 40.078125 35.4375 
Q 35.15625 39.890625 26.703125 39.890625 
Q 22.75 39.890625 18.8125 39.015625 
Q 14.890625 38.140625 10.796875 36.28125 
z
" id="DejaVuSans-53"/>
    </defs>
    <g transform="translate(68.456373 28.8)scale(0.0833 -0.0833)">
     <use xlink:href="#DejaVuSans-32"/>
     <use x="31.787109" xlink:href="#DejaVuSans-80"/>
     <use x="92.042969" xlink:href="#DejaVuSans-111"/>
     <use x="153.224609" xlink:href="#DejaVuSans-115"/>
     <use x="205.324219" xlink:href="#DejaVuSans-105"/>
     <use x="233.107422" xlink:href="#DejaVuSans-116"/>
     <use x="272.316406" xlink:href="#DejaVuSans-105"/>
     <use x="300.099609" xlink:href="#DejaVuSans-118"/>
     <use x="359.279297" xlink:href="#DejaVuSans-101"/>
     <use x="420.802734" xlink:href="#DejaVuSans-32"/>
     <use x="452.589844" xlink:href="#DejaVuSans-99"/>
     <use x="507.570312" xlink:href="#DejaVuSans-121"/>
     <use x="566.75" xlink:href="#DejaVuSans-99"/>
     <use x="621.730469" xlink:href="#DejaVuSans-108"/>
     <use x="649.513672" xlink:href="#DejaVuSans-101"/>
     <use x="711.037109" xlink:href="#DejaVuSans-115"/>
     <use x="763.136719" xlink:href="#DejaVuSans-32"/>
     <use x="794.923828" xlink:href="#DejaVuSans-38"/>
     <use x="872.902344" xlink:href="#DejaVuSans-32"/>
     <use x="904.689453" xlink:href="#DejaVuSans-80"/>
     <use x="964.992188" xlink:href="#DejaVuSans-108"/>
     <use x="992.775391" xlink:href="#DejaVuSans-97"/>
     <use x="1054.054688" xlink:href="#DejaVuSans-115"/>
     <use x="1106.154297" xlink:href="#DejaVuSans-116"/>
     <use x="1145.363281" xlink:href="#DejaVuSans-105"/>
     <use x="1173.146484" xlink:href="#DejaVuSans-99"/>
     <use x="1228.126953" xlink:href="#DejaVuSans-105"/>
     <use x="1255.910156" xlink:href="#DejaVuSans-116"/>
     <use x="1295.119141" xlink:href="#DejaVuSans-121"/>
     <use x="1354.189453" xlink:href="#DejaVuSans-58"/>
     <use x="1387.880859" xlink:href="#DejaVuSans-32"/>
     <use x="1419.667969" xlink:href="#DejaVuSans-48"/>
     <use x="1483.291016" xlink:href="#DejaVuSans-46"/>
     <use x="1515.078125" xlink:href="#DejaVuSans-53"/>
     <use x="1578.701172" xlink:href="#DejaVuSans-56"/>
     <use x="1642.324219" xlink:href="#DejaVuSans-50"/>
     <use x="1705.947266" xlink:href="#DejaVuSans-56"/>
    </g>
   </g>
  </g>
  <g id="axes_2">
   <g id="patch_7">
    <path clip-path="url(#pc485b2d998)" d="M 243.4395 169.72 
L 243.4395 150.445714 
L 243.4395 54.074286 
L 243.4395 34.8 
L 250.1855 34.8 
L 250.1855 54.074286 
L 250.1855 150.445714 
L 250.1855 169.72 
z
" style="fill:#ffffff;stroke:#ffffff;stroke-linejoin:miter;stroke-width:0.01;"/>
   </g>
   <g id="QuadMesh_1">
    <path clip-path="url(#pc485b2d998)" d="M 243.4395 169.72 
L 250.1855 169.72 
L 250.1855 150.445714 
L 243.4395 150.445714 
L 243.4395 169.72 
" style="fill:#000080;"/>
    <path clip-path="url(#pc485b2d998)" d="M 243.4395 150.445714 
L 250.1855 150.445714 
L 250.1855 131.171429 
L 243.4395 131.171429 
L 243.4395 150.445714 
" style="fill:#002aff;"/>
    <path clip-path="url(#pc485b2d998)" d="M 243.4395 131.171429 
L 250.1855 131.171429 
L 250.1855 111.897143 
L 243.4395 111.897143 
L 243.4395 131.171429 
" style="fill:#00d4ff;"/>
    <path clip-path="url(#pc485b2d998)" d="M 243.4395 111.897143 
L 250.1855 111.897143 
L 250.1855 92.622857 
L 243.4395 92.622857 
L 243.4395 111.897143 
" style="fill:#7bff7b;"/>
    <path clip-path="url(#pc485b2d998)" d="M 243.4395 92.622857 
L 250.1855 92.622857 
L 250.1855 73.348571 
L 243.4395 73.348571 
L 243.4395 92.622857 
" style="fill:#ffe600;"/>
    <path clip-path="url(#pc485b2d998)" d="M 243.4395 73.348571 
L 250.1855 73.348571 
L 250.1855 54.074286 
L 243.4395 54.074286 
L 243.4395 73.348571 
" style="fill:#ff4800;"/>
    <path clip-path="url(#pc485b2d998)" d="M 243.4395 54.074286 
L 250.1855 54.074286 
L 250.1855 34.8 
L 243.4395 34.8 
L 243.4395 54.074286 
" style="fill:#800000;"/>
   </g>
   <g id="matplotlib.axis_3"/>
   <g id="matplotlib.axis_4">
    <g id="ytick_5">
     <g id="line2d_9">
      <defs>
       <path d="M 0 0 
L 3.5 0 
" id="m915ea86ef3" style="stroke:#000000;stroke-width:0.8;"/>
      </defs>
      <g>
       <use style="stroke:#000000;stroke-width:0.8;" x="250.1855" xlink:href="#m915ea86ef3" y="169.72"/>
      </g>
     </g>
     <g id="text_12">
      <!-- 5 -->
      <g transform="translate(257.1855 173.519219)scale(0.1 -0.1)">
       <use xlink:href="#DejaVuSans-53"/>
      </g>
     </g>
    </g>
    <g id="ytick_6">
     <g id="line2d_10">
      <g>
       <use style="stroke:#000000;stroke-width:0.8;" x="250.1855" xlink:href="#m915ea86ef3" y="147.233333"/>
      </g>
     </g>
     <g id="text_13">
      <!-- 6 -->
      <g transform="translate(257.1855 151.032552)scale(0.1 -0.1)">
       <use xlink:href="#DejaVuSans-54"/>
      </g>
     </g>
    </g>
    <g id="ytick_7">
     <g id="line2d_11">
      <g>
       <use style="stroke:#000000;stroke-width:0.8;" x="250.1855" xlink:href="#m915ea86ef3" y="124.746667"/>
      </g>
     </g>
     <g id="text_14">
      <!-- 7 -->
      <defs>
       <path d="M 8.203125 72.90625 
L 55.078125 72.90625 
L 55.078125 68.703125 
L 28.609375 0 
L 18.3125 0 
L 43.21875 64.59375 
L 8.203125 64.59375 
z
" id="DejaVuSans-55"/>
      </defs>
      <g transform="translate(257.1855 128.545885)scale(0.1 -0.1)">
       <use xlink:href="#DejaVuSans-55"/>
      </g>
     </g>
    </g>
    <g id="ytick_8">
     <g id="line2d_12">
      <g>
       <use style="stroke:#000000;stroke-width:0.8;" x="250.1855" xlink:href="#m915ea86ef3" y="102.26"/>
      </g>
     </g>
     <g id="text_15">
      <!-- 8 -->
      <g transform="translate(257.1855 106.059219)scale(0.1 -0.1)">
       <use xlink:href="#DejaVuSans-56"/>
      </g>
     </g>
    </g>
    <g id="ytick_9">
     <g id="line2d_13">
      <g>
       <use style="stroke:#000000;stroke-width:0.8;" x="250.1855" xlink:href="#m915ea86ef3" y="79.773333"/>
      </g>
     </g>
     <g id="text_16">
      <!-- 9 -->
      <defs>
       <path d="M 10.984375 1.515625 
L 10.984375 10.5 
Q 14.703125 8.734375 18.5 7.8125 
Q 22.3125 6.890625 25.984375 6.890625 
Q 35.75 6.890625 40.890625 13.453125 
Q 46.046875 20.015625 46.78125 33.40625 
Q 43.953125 29.203125 39.59375 26.953125 
Q 35.25 24.703125 29.984375 24.703125 
Q 19.046875 24.703125 12.671875 31.3125 
Q 6.296875 37.9375 6.296875 49.421875 
Q 6.296875 60.640625 12.9375 67.421875 
Q 19.578125 74.21875 30.609375 74.21875 
Q 43.265625 74.21875 49.921875 64.515625 
Q 56.59375 54.828125 56.59375 36.375 
Q 56.59375 19.140625 48.40625 8.859375 
Q 40.234375 -1.421875 26.421875 -1.421875 
Q 22.703125 -1.421875 18.890625 -0.6875 
Q 15.09375 0.046875 10.984375 1.515625 
z
M 30.609375 32.421875 
Q 37.25 32.421875 41.125 36.953125 
Q 45.015625 41.5 45.015625 49.421875 
Q 45.015625 57.28125 41.125 61.84375 
Q 37.25 66.40625 30.609375 66.40625 
Q 23.96875 66.40625 20.09375 61.84375 
Q 16.21875 57.28125 16.21875 49.421875 
Q 16.21875 41.5 20.09375 36.953125 
Q 23.96875 32.421875 30.609375 32.421875 
z
" id="DejaVuSans-57"/>
      </defs>
      <g transform="translate(257.1855 83.572552)scale(0.1 -0.1)">
       <use xlink:href="#DejaVuSans-57"/>
      </g>
     </g>
    </g>
    <g id="ytick_10">
     <g id="line2d_14">
      <g>
       <use style="stroke:#000000;stroke-width:0.8;" x="250.1855" xlink:href="#m915ea86ef3" y="57.286667"/>
      </g>
     </g>
     <g id="text_17">
      <!-- 10 -->
      <g transform="translate(257.1855 61.085885)scale(0.1 -0.1)">
       <use xlink:href="#DejaVuSans-49"/>
       <use x="63.623047" xlink:href="#DejaVuSans-48"/>
      </g>
     </g>
    </g>
    <g id="ytick_11">
     <g id="line2d_15">
      <g>
       <use style="stroke:#000000;stroke-width:0.8;" x="250.1855" xlink:href="#m915ea86ef3" y="34.8"/>
      </g>
     </g>
     <g id="text_18">
      <!-- 11 -->
      <g transform="translate(257.1855 38.599219)scale(0.1 -0.1)">
       <use xlink:href="#DejaVuSans-49"/>
       <use x="63.623047" xlink:href="#DejaVuSans-49"/>
      </g>
     </g>
    </g>
   </g>
   <g id="patch_8">
    <path d="M 243.4395 169.72 
L 243.4395 150.445714 
L 243.4395 54.074286 
L 243.4395 34.8 
L 250.1855 34.8 
L 250.1855 54.074286 
L 250.1855 150.445714 
L 250.1855 169.72 
z
" style="fill:none;stroke:#000000;stroke-linejoin:miter;stroke-width:0.8;"/>
   </g>
  </g>
 </g>
 <defs>
  <clipPath id="p61942b0e7c">
   <rect height="134.92" width="180.056" x="52.13" y="34.8"/>
  </clipPath>
  <clipPath id="pc485b2d998">
   <rect height="134.92" width="6.746" x="243.4395" y="34.8"/>
  </clipPath>
 </defs>
</svg>
